<?xml version="1.0" ?><!DOCTYPE svg  PUBLIC '-//W3C//DTD SVG 1.1//EN'  'http://www.w3.org/Graphics/SVG/1.1/DTD/svg11.dtd'><svg id="Icon_Set" style="enable-background:new 0 0 256 256;" version="1.1" viewBox="0 0 256 256" xml:space="preserve" xmlns="http://www.w3.org/2000/svg" xmlns:xlink="http://www.w3.org/1999/xlink"><style type="text/css">
	.st0{fill:#484771;}
	.st1{fill:#F1C48B;}
	.st2{fill:#FD919F;}
	.st3{fill:#E0667D;}
	.st4{fill:#504774;}
	.st5{fill:#A0D1F2;}
	.st6{fill:#D4E7F8;}
	.st7{fill:#7BABF3;}
	.st8{fill:#4C4372;}
	.st9{fill:#D5E6F7;}
	.st10{fill:#FFFFFF;}
</style><g><g><circle class="st1" cx="128" cy="128" r="103.873"/></g><g><path class="st9" d="M191.894,188.219H64.106c-4.756,0-8.612-3.856-8.612-8.612V76.394c0-4.757,3.856-8.612,8.612-8.612h127.787    c4.756,0,8.612,3.856,8.612,8.612v103.213C200.506,184.363,196.65,188.219,191.894,188.219z"/></g><g><path class="st5" d="M191.894,67.781h-15.07c4.757,0,8.612,3.856,8.612,8.612v103.213c0,4.756-3.856,8.612-8.612,8.612h15.07    c4.756,0,8.612-3.856,8.612-8.612V76.394C200.506,71.637,196.65,67.781,191.894,67.781z"/></g><g><path class="st7" d="M180.4,173.969H75.6c-2.781,0-5.035-2.254-5.035-5.035V87.067c0-2.781,2.254-5.035,5.035-5.035h104.8    c2.781,0,5.035,2.254,5.035,5.035v81.866C185.436,171.714,183.181,173.969,180.4,173.969z"/></g><g><circle class="st9" cx="113.667" cy="128" r="27.333"/></g><g><circle class="st5" cx="113.667" cy="128" r="14.667"/></g><g><rect class="st2" height="15.667" width="15.667" x="156.333" y="92.667"/></g><g><rect class="st2" height="15.667" width="15.667" x="156.333" y="120.167"/></g><g><path class="st4" d="M191.894,191.219H64.106c-6.403,0-11.612-5.21-11.612-11.612V76.394c0-6.403,5.21-11.612,11.612-11.612    h127.787c6.403,0,11.612,5.209,11.612,11.612v103.213C203.506,186.009,198.296,191.219,191.894,191.219z M64.106,70.781    c-3.095,0-5.612,2.517-5.612,5.612v103.213c0,3.095,2.518,5.612,5.612,5.612h127.787c3.095,0,5.612-2.518,5.612-5.612V76.394    c0-3.095-2.518-5.612-5.612-5.612H64.106z"/></g><g><path class="st4" d="M180.4,176.969H75.6c-4.431,0-8.036-3.605-8.036-8.036V87.067c0-4.431,3.605-8.036,8.036-8.036h104.8    c4.431,0,8.036,3.605,8.036,8.036v81.866C188.436,173.364,184.831,176.969,180.4,176.969z M75.6,85.031    c-1.123,0-2.036,0.913-2.036,2.036v81.866c0,1.123,0.913,2.036,2.036,2.036h104.8c1.123,0,2.036-0.913,2.036-2.036V87.067    c0-1.123-0.913-2.036-2.036-2.036H75.6z"/></g><g><path class="st4" d="M113.666,158.333c-16.726,0-30.333-13.607-30.333-30.333s13.607-30.334,30.333-30.334    C130.393,97.666,144,111.274,144,128S130.393,158.333,113.666,158.333z M113.666,103.666c-13.417,0-24.333,10.916-24.333,24.334    s10.915,24.333,24.333,24.333S138,141.417,138,128S127.084,103.666,113.666,103.666z"/></g><g><path class="st4" d="M113.666,145.667C103.925,145.667,96,137.741,96,128s7.925-17.666,17.666-17.666    c9.742,0,17.667,7.925,17.667,17.666S123.408,145.667,113.666,145.667z M113.666,116.334c-6.433,0-11.666,5.233-11.666,11.666    c0,6.433,5.233,11.667,11.666,11.667s11.667-5.233,11.667-11.667C125.333,121.567,120.1,116.334,113.666,116.334z"/></g><g><circle class="st4" cx="113.667" cy="128" r="5.667"/></g><g><path class="st4" d="M122.191,119.067c-0.915,0-1.817-0.416-2.407-1.206c-0.991-1.328-0.718-3.208,0.61-4.199l20.926-15.619    c0.519-0.387,1.148-0.596,1.794-0.596h13.218c1.657,0,3,1.343,3,3c0,1.657-1.343,3-3,3h-12.222l-20.128,15.023    C123.445,118.873,122.815,119.067,122.191,119.067z"/></g><g><path class="st4" d="M172,111.334h-15.667c-1.657,0-3-1.343-3-3V92.666c0-1.657,1.343-3,3-3H172c1.657,0,3,1.343,3,3v15.667    C175,109.99,173.657,111.334,172,111.334z M159.333,105.334H169v-9.667h-9.667V105.334z"/></g><g><path class="st4" d="M172,138.833h-15.667c-1.657,0-3-1.343-3-3v-15.667c0-1.657,1.343-3,3-3H172c1.657,0,3,1.343,3,3v15.667    C175,137.49,173.657,138.833,172,138.833z M159.333,132.833H169v-9.667h-9.667V132.833z"/></g><g><path class="st4" d="M172,151.667h-23.478c-1.657,0-3-1.343-3-3c0-1.657,1.343-3,3-3H172c1.657,0,3,1.343,3,3    C175,150.323,173.657,151.667,172,151.667z"/></g><g><path class="st4" d="M172,162.667h-23.478c-1.657,0-3-1.343-3-3c0-1.657,1.343-3,3-3H172c1.657,0,3,1.343,3,3    C175,161.323,173.657,162.667,172,162.667z"/></g><g><path class="st4" d="M94.334,95.666h-12c-1.657,0-3-1.343-3-3c0-1.657,1.343-3,3-3h12c1.657,0,3,1.343,3,3    C97.334,94.323,95.99,95.666,94.334,95.666z"/></g><g><circle class="st2" cx="105.25" cy="116.067" r="5.442"/></g><g><path class="st4" d="M105.25,124.51c-4.655,0-8.442-3.787-8.442-8.442c0-4.655,3.787-8.442,8.442-8.442    c4.655,0,8.442,3.787,8.442,8.442C113.692,120.723,109.905,124.51,105.25,124.51z M105.25,113.625    c-1.347,0-2.442,1.096-2.442,2.442c0,1.347,1.096,2.442,2.442,2.442c1.347,0,2.442-1.096,2.442-2.442    C107.692,114.721,106.597,113.625,105.25,113.625z"/></g><g><circle class="st2" cx="106.521" cy="154.224" r="5.442"/></g><g><path class="st4" d="M106.521,162.667c-4.655,0-8.442-3.787-8.442-8.442c0-4.655,3.787-8.442,8.442-8.442    c4.655,0,8.442,3.787,8.442,8.442C114.963,158.879,111.176,162.667,106.521,162.667z M106.521,151.782    c-1.347,0-2.442,1.096-2.442,2.442c0,1.347,1.096,2.442,2.442,2.442c1.347,0,2.442-1.095,2.442-2.442    C108.963,152.878,107.867,151.782,106.521,151.782z"/></g></g></svg>