<?xml version="1.0" ?><!DOCTYPE svg  PUBLIC '-//W3C//DTD SVG 1.1//EN'  'http://www.w3.org/Graphics/SVG/1.1/DTD/svg11.dtd'><svg id="Icon_Set" style="enable-background:new 0 0 256 256;" version="1.1" viewBox="0 0 256 256" xml:space="preserve" xmlns="http://www.w3.org/2000/svg" xmlns:xlink="http://www.w3.org/1999/xlink"><style type="text/css">
	.st0{fill:#484771;}
	.st1{fill:#F1C48B;}
	.st2{fill:#FD919F;}
	.st3{fill:#E0667D;}
	.st4{fill:#504774;}
	.st5{fill:#A0D1F2;}
	.st6{fill:#D4E7F8;}
	.st7{fill:#7BABF3;}
	.st8{fill:#4C4372;}
	.st9{fill:#D5E6F7;}
	.st10{fill:#FFFFFF;}
</style><g><g><circle class="st1" cx="128" cy="128" r="103.873"/></g><g><polygon class="st2" points="185.171,157.03 70.829,157.03 88.979,180.624 167.021,180.624   "/></g><g><polygon class="st9" points="185.171,157.03 70.829,157.03 88.979,65.376 167.021,65.376   "/></g><g><path class="st9" d="M138.436,33.917h-20.872c-2.554,0-4.624,2.07-4.624,4.624v11.862h30.119V38.54    C143.06,35.987,140.99,33.917,138.436,33.917z"/></g><g><rect class="st9" height="11.495" width="35.391" x="83.08" y="200.589"/></g><g><rect class="st9" height="11.495" width="35.391" x="137.528" y="200.589"/></g><g><rect class="st5" height="11.495" width="10.792" x="162.128" y="200.589"/></g><g><rect class="st5" height="19.964" width="12.251" x="94.651" y="180.624"/></g><g><rect class="st7" height="19.964" width="12.251" x="149.099" y="180.624"/></g><g><path class="st4" d="M106.901,203.589H94.65c-1.657,0-3-1.343-3-3v-19.964c0-1.657,1.343-3,3-3h12.251c1.657,0,3,1.343,3,3v19.964    C109.901,202.246,108.558,203.589,106.901,203.589z M97.65,197.589h6.251v-13.964H97.65V197.589z"/></g><g><path class="st4" d="M161.35,203.589h-12.251c-1.657,0-3-1.343-3-3v-19.964c0-1.657,1.343-3,3-3h12.251c1.657,0,3,1.343,3,3    v19.964C164.35,202.246,163.006,203.589,161.35,203.589z M152.099,197.589h6.251v-13.964h-6.251V197.589z"/></g><g><path class="st4" d="M118.472,215.083H83.08c-1.657,0-3-1.343-3-3v-11.495c0-1.657,1.343-3,3-3h35.392c1.657,0,3,1.343,3,3v11.495    C121.472,213.74,120.128,215.083,118.472,215.083z M86.08,209.083h29.392v-5.495H86.08V209.083z"/></g><g><path class="st4" d="M172.92,215.083h-35.392c-1.657,0-3-1.343-3-3v-11.495c0-1.657,1.343-3,3-3h35.392c1.657,0,3,1.343,3,3    v11.495C175.92,213.74,174.577,215.083,172.92,215.083z M140.528,209.083h29.392v-5.495h-29.392V209.083z"/></g><g><polygon class="st5" points="167.021,67.413 151.021,67.413 169.171,159.068 185.171,159.068   "/></g><g><rect class="st5" height="14.973" width="61.254" x="97.373" y="50.402"/></g><g><rect class="st7" height="14.973" width="13.837" x="144.79" y="50.402"/></g><g><path class="st5" d="M138.436,33.917h-8c2.554,0,4.624,2.07,4.624,4.624v11.862h8V38.54    C143.06,35.987,140.99,33.917,138.436,33.917z"/></g><g><circle class="st5" cx="128" cy="112.991" r="16.334"/></g><g><polygon class="st7" points="152.955,108.48 175.557,108.48 172.676,93.934 152.955,93.934   "/></g><g><polygon class="st7" points="103.045,93.934 83.324,93.934 80.443,108.48 103.045,108.48   "/></g><g><polygon class="st7" points="152.955,135.264 180.861,135.264 177.98,120.718 152.955,120.718   "/></g><g><polygon class="st7" points="103.045,120.718 78.02,120.718 75.139,135.264 103.045,135.264   "/></g><g><polygon class="st3" points="168.253,157.03 150.104,180.624 167.021,180.624 185.171,157.03   "/></g><g><circle class="st7" cx="128" cy="112.991" r="7.233"/></g><g><path class="st4" d="M167.021,183.624H88.979c-0.932,0-1.81-0.433-2.378-1.171l-18.149-23.594    c-0.697-0.906-0.818-2.129-0.313-3.154c0.505-1.025,1.548-1.675,2.691-1.675H185.17c1.143,0,2.186,0.649,2.691,1.675    c0.505,1.025,0.383,2.249-0.314,3.154l-18.149,23.594C168.831,183.192,167.953,183.624,167.021,183.624z M90.456,177.624h75.088    l13.534-17.594H76.922L90.456,177.624z"/></g><g><path class="st4" d="M128,132.325c-10.661,0-19.335-8.673-19.335-19.334c0-10.661,8.673-19.334,19.335-19.334    s19.335,8.673,19.335,19.334C147.335,123.652,138.661,132.325,128,132.325z M128,99.656c-7.353,0-13.335,5.982-13.335,13.334    c0,7.353,5.982,13.335,13.335,13.335c7.352,0,13.335-5.982,13.335-13.335C141.335,105.638,135.352,99.656,128,99.656z"/></g><g><path class="st4" d="M128,123.223c-5.642,0-10.232-4.59-10.232-10.232s4.59-10.232,10.232-10.232    c5.642,0,10.232,4.59,10.232,10.232S133.642,123.223,128,123.223z M128,108.758c-2.334,0-4.232,1.898-4.232,4.232    s1.898,4.232,4.232,4.232s4.232-1.898,4.232-4.232S130.334,108.758,128,108.758z"/></g><g><path class="st4" d="M185.19,160.03c-0.006,0-0.013,0-0.02,0H70.83c-0.898,0-1.748-0.402-2.318-1.096    c-0.57-0.694-0.799-1.607-0.624-2.487l18.149-91.655c0.278-1.405,1.511-2.417,2.943-2.417h78.042c1.432,0,2.665,1.012,2.943,2.417    l18.082,91.315c0.094,0.29,0.145,0.6,0.145,0.922C188.19,158.687,186.847,160.03,185.19,160.03z M74.482,154.03h107.036    l-16.962-85.655H91.443L74.482,154.03z"/></g><g><path class="st4" d="M175.557,111.48h-22.602c-1.657,0-3-1.343-3-3V93.934c0-1.657,1.343-3,3-3h19.721    c1.432,0,2.664,1.012,2.943,2.417l2.881,14.547c0.174,0.881-0.055,1.793-0.625,2.487    C177.306,111.079,176.455,111.48,175.557,111.48z M155.956,105.48h15.949l-1.693-8.547h-14.256V105.48z"/></g><g><path class="st4" d="M103.044,111.48H80.443c-0.898,0-1.749-0.402-2.318-1.096c-0.57-0.694-0.799-1.607-0.624-2.487l2.88-14.547    c0.278-1.405,1.511-2.417,2.943-2.417h19.721c1.657,0,3,1.343,3,3v14.547C106.044,110.137,104.701,111.48,103.044,111.48z     M84.096,105.48h15.949v-8.547H85.788L84.096,105.48z"/></g><g><path class="st4" d="M180.86,138.264h-27.905c-1.657,0-3-1.343-3-3v-14.546c0-1.657,1.343-3,3-3h25.024    c1.432,0,2.665,1.012,2.943,2.418l2.88,14.546c0.174,0.88-0.055,1.793-0.624,2.487    C182.609,137.862,181.758,138.264,180.86,138.264z M155.956,132.264h21.252l-1.692-8.546h-19.56V132.264z"/></g><g><path class="st4" d="M103.044,138.264H75.139c-0.898,0-1.749-0.402-2.318-1.096c-0.57-0.694-0.799-1.607-0.625-2.487l2.881-14.546    c0.278-1.405,1.511-2.417,2.943-2.417h25.024c1.657,0,3,1.343,3,3v14.546C106.044,136.921,104.701,138.264,103.044,138.264z     M78.791,132.264h21.253v-8.546h-19.56L78.791,132.264z"/></g><g><path class="st4" d="M158.627,68.376H97.373c-1.657,0-3-1.343-3-3V50.402c0-1.657,1.343-3,3-3h61.254c1.657,0,3,1.343,3,3v14.973    C161.627,67.032,160.284,68.376,158.627,68.376z M100.373,62.375h55.254v-8.973h-55.254V62.375z"/></g><g><path class="st4" d="M143.06,53.402H112.94c-1.657,0-3-1.343-3-3V38.541c0-4.204,3.42-7.624,7.624-7.624h20.872    c4.204,0,7.624,3.42,7.624,7.624v11.862C146.06,52.059,144.716,53.402,143.06,53.402z M115.94,47.402h24.119v-8.862    c0-0.896-0.729-1.624-1.624-1.624h-20.872c-0.895,0-1.624,0.729-1.624,1.624V47.402z"/></g><g><path class="st4" d="M111.082,68.376c-1.657,0-3-1.343-3-3V50.402c0-1.657,1.343-3,3-3c1.657,0,3,1.343,3,3v14.973    C114.082,67.032,112.739,68.376,111.082,68.376z"/></g><g><path class="st4" d="M128,68.376c-1.657,0-3-1.343-3-3V50.402c0-1.657,1.343-3,3-3c1.657,0,3,1.343,3,3v14.973    C131,67.032,129.657,68.376,128,68.376z"/></g><g><path class="st4" d="M144.917,68.376c-1.657,0-3-1.343-3-3V50.402c0-1.657,1.343-3,3-3c1.657,0,3,1.343,3,3v14.973    C147.917,67.032,146.574,68.376,144.917,68.376z"/></g></g></svg>