<?xml version="1.0" ?><!DOCTYPE svg  PUBLIC '-//W3C//DTD SVG 1.1//EN'  'http://www.w3.org/Graphics/SVG/1.1/DTD/svg11.dtd'><svg id="Icon_Set" style="enable-background:new 0 0 256 256;" version="1.1" viewBox="0 0 256 256" xml:space="preserve" xmlns="http://www.w3.org/2000/svg" xmlns:xlink="http://www.w3.org/1999/xlink"><style type="text/css">
	.st0{fill:#484771;}
	.st1{fill:#F1C48B;}
	.st2{fill:#FD919F;}
	.st3{fill:#E0667D;}
	.st4{fill:#504774;}
	.st5{fill:#A0D1F2;}
	.st6{fill:#D4E7F8;}
	.st7{fill:#7BABF3;}
	.st8{fill:#4C4372;}
	.st9{fill:#D5E6F7;}
	.st10{fill:#FFFFFF;}
</style><g><g><circle class="st1" cx="128" cy="128" r="103.873"/></g><g><path class="st10" d="M210.941,184.652c4.525,0,8.193-3.668,8.193-8.193c0-4.525-3.668-8.193-8.193-8.193    c-0.143,0-0.282,0.014-0.423,0.021c-1.464-5.611-6.566-9.753-12.635-9.753c-4.77,0-8.941,2.559-11.219,6.377    c-0.597-0.111-1.21-0.177-1.839-0.177c-5.5,0-9.958,4.459-9.958,9.958c0,5.5,4.458,9.958,9.958,9.958H210.941z"/></g><g><path class="st4" d="M210.941,187.652h-26.117c-7.146,0-12.958-5.813-12.958-12.958c0-7.271,6.018-13.165,13.339-12.953    c3.021-3.869,7.718-6.206,12.678-6.206c6.548,0,12.36,3.963,14.821,9.87c5.337,0.848,9.43,5.482,9.43,11.055    C222.134,182.632,217.113,187.652,210.941,187.652z M184.824,167.735c-3.837,0-6.958,3.122-6.958,6.959    c0,3.837,3.121,6.958,6.958,6.958h26.117c2.863,0,5.192-2.329,5.192-5.192c0-2.863-2.329-5.193-5.192-5.193l-0.279,0.018    c-1.447,0.085-2.688-0.866-3.048-2.239c-1.153-4.422-5.155-7.51-9.732-7.51c-3.575,0-6.807,1.837-8.643,4.915    c-0.644,1.078-1.892,1.641-3.126,1.411C185.659,167.776,185.237,167.735,184.824,167.735z"/></g><g><path class="st10" d="M70.941,106.794c4.234,0,7.667-3.433,7.667-7.667c0-4.235-3.433-7.667-7.667-7.667    c-0.134,0-0.264,0.013-0.396,0.02c-1.37-5.251-6.144-9.127-11.824-9.127c-4.464,0-8.367,2.394-10.5,5.968    c-0.558-0.104-1.132-0.165-1.721-0.165c-5.147,0-9.319,4.172-9.319,9.319c0,5.147,4.172,9.319,9.319,9.319H70.941z"/></g><g><path class="st5" d="M128,34.16L128,34.16L128,34.16c-17,18.945-26.403,43.502-26.403,68.956v63.561h52.806v-63.561    C154.403,77.662,145,53.104,128,34.16z"/></g><g><path class="st7" d="M128,34.16L128,34.16c-2.074,2.311-4.033,4.707-5.877,7.176c13.275,17.774,20.526,39.431,20.526,61.78v63.561    h11.754v-63.561C154.403,77.662,145,53.104,128,34.16z"/></g><g><path class="st2" d="M128,34.16L128,34.16c-9.52,10.609-16.656,22.979-21.094,36.279h42.187    C144.656,57.138,137.52,44.769,128,34.16z"/></g><g><path class="st3" d="M124.86,37.836c-0.878,1.077-1.731,2.171-2.563,3.278c-0.057,0.076-0.113,0.151-0.17,0.227    c6.621,8.865,11.741,18.697,15.212,29.097h11.754c-0.265-0.794-0.541-1.584-0.825-2.371c-0.058-0.16-0.119-0.319-0.177-0.479    c-0.23-0.627-0.464-1.253-0.706-1.875c-0.083-0.213-0.168-0.425-0.252-0.637c-0.226-0.569-0.455-1.137-0.691-1.702    c-0.097-0.233-0.196-0.466-0.295-0.699c-0.232-0.545-0.469-1.089-0.71-1.63c-0.106-0.237-0.212-0.474-0.32-0.711    c-0.247-0.542-0.499-1.081-0.755-1.619c-0.108-0.226-0.214-0.453-0.324-0.678c-0.274-0.564-0.554-1.125-0.838-1.684    c-0.097-0.192-0.192-0.384-0.291-0.575c-0.342-0.663-0.692-1.322-1.048-1.977c-0.044-0.082-0.087-0.165-0.132-0.246    c-0.415-0.759-0.839-1.513-1.274-2.261c-0.008-0.014-0.017-0.028-0.025-0.042c-0.411-0.707-0.831-1.41-1.259-2.108    c-0.124-0.203-0.253-0.403-0.378-0.605c-0.316-0.508-0.634-1.014-0.959-1.516c-0.163-0.252-0.33-0.501-0.495-0.752    c-0.297-0.449-0.595-0.898-0.899-1.343c-0.184-0.269-0.37-0.536-0.556-0.804c-0.295-0.423-0.592-0.845-0.893-1.264    c-0.197-0.275-0.396-0.548-0.596-0.821c-0.301-0.41-0.606-0.818-0.913-1.224c-0.204-0.27-0.409-0.541-0.616-0.809    c-0.318-0.412-0.642-0.82-0.967-1.228c-0.202-0.254-0.403-0.509-0.607-0.761c-0.359-0.442-0.725-0.879-1.091-1.315    c-0.177-0.211-0.351-0.424-0.53-0.634c-0.548-0.642-1.104-1.279-1.669-1.909h0c-0.961,1.071-1.892,2.165-2.804,3.271    C125.085,37.566,124.971,37.7,124.86,37.836z"/></g><g><path class="st4" d="M149.094,73.439h-42.187c-0.965,0-1.87-0.464-2.434-1.246c-0.564-0.783-0.718-1.789-0.412-2.704    c4.633-13.884,11.937-26.445,21.707-37.333c1.137-1.269,3.328-1.269,4.465,0c9.77,10.888,17.074,23.449,21.707,37.333    c0.306,0.915,0.152,1.921-0.412,2.704C150.964,72.975,150.059,73.439,149.094,73.439z M111.16,67.439h33.68    c-3.983-10.481-9.632-20.108-16.84-28.702C120.792,47.331,115.144,56.958,111.16,67.439z"/></g><g><path class="st4" d="M154.403,169.677h-52.807c-1.657,0-3-1.343-3-3v-63.561c0-26.233,9.649-51.434,27.171-70.959    c1.137-1.269,3.328-1.269,4.465,0c17.521,19.525,27.171,44.726,27.171,70.959v63.561    C157.403,168.334,156.061,169.677,154.403,169.677z M104.597,163.677h46.807v-60.561c0-23.614-8.286-46.341-23.403-64.378    c-15.117,18.037-23.403,40.764-23.403,64.378V163.677z"/></g><g><path class="st9" d="M142.649,176.118h-29.299V93.125c0-8.091,6.559-14.649,14.649-14.649l0,0c8.091,0,14.649,6.559,14.649,14.649    V176.118z"/></g><g><polygon class="st2" points="154.403,96.753 161.843,81.723 169.283,96.753 169.283,210.699 154.403,210.699   "/></g><g><rect class="st10" height="24.891" width="14.88" x="154.403" y="120.501"/></g><g><path class="st4" d="M169.283,213.699h-14.88c-1.657,0-3-1.343-3-3V96.753c0-0.461,0.106-0.917,0.311-1.33l7.439-15.031    c0.506-1.022,1.548-1.669,2.689-1.669c1.141,0,2.183,0.647,2.688,1.669l7.44,15.03c0.205,0.414,0.312,0.869,0.312,1.331v113.946    C172.283,212.356,170.94,213.699,169.283,213.699z M157.403,207.699h8.88V97.455l-4.44-8.969l-4.439,8.969V207.699z"/></g><g><path class="st4" d="M169.283,99.753h-14.88c-1.657,0-3-1.343-3-3c0-1.657,1.343-3,3-3h14.88c1.657,0,3,1.343,3,3    C172.283,98.41,170.94,99.753,169.283,99.753z"/></g><g><path class="st4" d="M169.283,148.393h-14.88c-1.657,0-3-1.343-3-3v-24.891c0-1.657,1.343-3,3-3h14.88c1.657,0,3,1.343,3,3v24.891    C172.283,147.05,170.94,148.393,169.283,148.393z M157.403,142.393h8.88v-18.891h-8.88V142.393z"/></g><g><path class="st2" d="M142.649,139.76v36.359l0,0c2.559,0,4.633,2.074,4.633,4.633v12.841h33.045v-17.474L142.649,139.76z"/></g><g><polygon class="st3" points="180.328,193.593 180.328,176.118 170.543,166.676 170.543,193.593   "/></g><g><polygon class="st2" points="86.717,96.753 94.157,81.723 101.597,96.753 101.597,210.699 86.717,210.699   "/></g><g><rect class="st10" height="24.891" width="14.88" x="86.717" y="120.501"/></g><g><path class="st5" d="M147.282,198.949h-38.565v-18.198c0-2.559,2.074-4.633,4.633-4.633h29.299c2.559,0,4.633,2.074,4.633,4.633    V198.949z"/></g><g><polygon class="st7" points="136.249,209.233 119.752,209.233 114.609,198.949 141.391,198.949   "/></g><g><path class="st5" d="M128,78.476c-1.352,0-2.654,0.198-3.897,0.54c6.196,1.708,10.753,7.37,10.753,14.109v82.994h7.793V93.125    C142.649,85.034,136.091,78.476,128,78.476z"/></g><g><path class="st3" d="M106.155,221.84H82.159v-7.181c0-2.187,1.773-3.96,3.959-3.96h16.077c2.187,0,3.96,1.773,3.96,3.96V221.84z"/></g><g><path class="st4" d="M101.597,213.699h-14.88c-1.657,0-3-1.343-3-3V96.753c0-0.462,0.106-0.917,0.312-1.331l7.441-15.03    c0.506-1.022,1.548-1.669,2.688-1.669l0,0c1.141,0,2.183,0.647,2.688,1.669l7.439,15.031c0.205,0.413,0.312,0.869,0.312,1.33    v113.946C104.597,212.356,103.254,213.699,101.597,213.699z M89.717,207.699h8.88V97.455l-4.439-8.969l-4.44,8.969V207.699z"/></g><g><path class="st4" d="M106.155,224.841H82.159c-1.657,0-3-1.343-3-3v-7.182c0-3.838,3.122-6.96,6.96-6.96h16.076    c3.838,0,6.96,3.122,6.96,6.96v7.182C109.155,223.498,107.813,224.841,106.155,224.841z M85.159,218.841h17.996v-4.182    c0-0.529-0.431-0.96-0.96-0.96H86.119c-0.529,0-0.96,0.431-0.96,0.96V218.841z"/></g><g><path class="st4" d="M101.597,99.753h-14.88c-1.657,0-3-1.343-3-3c0-1.657,1.343-3,3-3h14.88c1.657,0,3,1.343,3,3    C104.597,98.41,103.254,99.753,101.597,99.753z"/></g><g><path class="st4" d="M101.597,148.393h-14.88c-1.657,0-3-1.343-3-3v-24.891c0-1.657,1.343-3,3-3h14.88c1.657,0,3,1.343,3,3v24.891    C104.597,147.05,103.254,148.393,101.597,148.393z M89.717,142.393h8.88v-18.891h-8.88V142.393z"/></g><g><path class="st3" d="M173.841,221.84h-23.996v-7.181c0-2.187,1.773-3.96,3.96-3.96h16.077c2.187,0,3.96,1.773,3.96,3.96V221.84z"/></g><g><path class="st4" d="M173.841,224.841h-23.996c-1.657,0-3-1.343-3-3v-7.182c0-3.838,3.122-6.96,6.96-6.96h16.076    c3.838,0,6.96,3.122,6.96,6.96v7.182C176.841,223.498,175.498,224.841,173.841,224.841z M152.845,218.841h17.996v-4.182    c0-0.529-0.431-0.96-0.96-0.96h-16.076c-0.529,0-0.96,0.431-0.96,0.96V218.841z"/></g><g><path class="st2" d="M113.351,176.118L113.351,176.118V139.76l-37.678,36.359v17.474h33.045v-12.841    C108.718,178.193,110.792,176.118,113.351,176.118z"/></g><g><path class="st4" d="M142.649,179.118h-29.299c-1.657,0-3-1.343-3-3V93.125c0-9.732,7.918-17.649,17.649-17.649    s17.649,7.917,17.649,17.649v82.993C145.649,177.775,144.307,179.118,142.649,179.118z M116.351,173.118h23.299V93.125    c0-6.423-5.226-11.649-11.649-11.649s-11.649,5.226-11.649,11.649V173.118z"/></g><g><path class="st4" d="M108.718,196.593H75.672c-1.657,0-3-1.343-3-3v-17.475c0-0.814,0.331-1.594,0.917-2.159l37.679-36.358    c0.866-0.835,2.15-1.07,3.256-0.603c1.107,0.471,1.827,1.558,1.827,2.762v36.358c0,1.657-1.343,3-3,3    c-0.9,0-1.633,0.732-1.633,1.633v12.842C111.718,195.25,110.375,196.593,108.718,196.593z M78.672,190.593h27.046v-9.842    c0-3.145,1.911-5.851,4.633-7.019v-26.909l-31.679,30.569V190.593z"/></g><g><path class="st4" d="M180.328,196.593h-33.046c-1.657,0-3-1.343-3-3v-12.842c0-0.9-0.732-1.633-1.633-1.633c-1.657,0-3-1.343-3-3    V139.76c0-1.204,0.72-2.291,1.827-2.762c1.108-0.471,2.391-0.231,3.256,0.603l37.679,36.358c0.586,0.565,0.917,1.345,0.917,2.159    v17.475C183.328,195.25,181.985,196.593,180.328,196.593z M150.282,190.593h27.046v-13.2l-31.679-30.569v26.909    c2.722,1.168,4.633,3.874,4.633,7.019V190.593z"/></g><g><path class="st4" d="M147.282,201.949h-38.564c-1.657,0-3-1.343-3-3v-18.198c0-4.209,3.424-7.633,7.633-7.633h29.299    c4.209,0,7.633,3.424,7.633,7.633v18.198C150.282,200.606,148.939,201.949,147.282,201.949z M111.718,195.949h32.564v-15.198    c0-0.9-0.732-1.633-1.633-1.633h-29.299c-0.9,0-1.633,0.732-1.633,1.633V195.949z"/></g><g><path class="st4" d="M136.248,212.233h-16.496c-1.137,0-2.175-0.642-2.684-1.658l-5.143-10.284    c-0.465-0.93-0.415-2.034,0.132-2.919c0.547-0.885,1.512-1.423,2.552-1.423h26.781c1.04,0,2.005,0.538,2.552,1.423    c0.547,0.885,0.597,1.989,0.132,2.919l-5.143,10.284C138.423,211.592,137.385,212.233,136.248,212.233z M121.606,206.233h12.787    l2.143-4.284h-17.072L121.606,206.233z"/></g><g><path class="st4" d="M108.718,187.963H75.672c-1.657,0-3-1.343-3-3c0-1.657,1.343-3,3-3h33.046c1.657,0,3,1.343,3,3    C111.718,186.62,110.375,187.963,108.718,187.963z"/></g><g><path class="st4" d="M180.328,187.963h-33.046c-1.657,0-3-1.343-3-3c0-1.657,1.343-3,3-3h33.046c1.657,0,3,1.343,3,3    C183.328,186.62,181.985,187.963,180.328,187.963z"/></g><g><path class="st7" d="M134.856,96.753h-13.712v-2.142c0-3.786,3.07-6.856,6.856-6.856l0,0c3.786,0,6.856,3.07,6.856,6.856V96.753z"/></g><g><path class="st4" d="M134.855,99.753h-13.711c-1.657,0-3-1.343-3-3v-2.142c0-5.435,4.421-9.856,9.855-9.856    s9.855,4.421,9.855,9.856v2.142C137.855,98.41,136.513,99.753,134.855,99.753z M124.24,93.753h7.52    c-0.392-1.715-1.929-2.998-3.76-2.998S124.632,92.038,124.24,93.753z"/></g><g><path class="st4" d="M128,220.019c-1.657,0-3-1.343-3-3v-40.9c0-1.657,1.343-3,3-3c1.657,0,3,1.343,3,3v40.9    C131,218.676,129.657,220.019,128,220.019z"/></g><g><path class="st4" d="M185.667,123.502c-1.657,0-3-1.343-3-3V98.429c0-1.657,1.343-3,3-3c1.657,0,3,1.343,3,3v22.073    C188.667,122.158,187.324,123.502,185.667,123.502z"/></g><g><path class="st4" d="M197,161.535c-1.657,0-3-1.343-3-3v-22.072c0-1.657,1.343-3,3-3s3,1.343,3,3v22.072    C200,160.192,198.657,161.535,197,161.535z"/></g><g><path class="st4" d="M185.667,142.76c-1.657,0-3-1.343-3-3v-5.403c0-1.657,1.343-3,3-3c1.657,0,3,1.343,3,3v5.403    C188.667,141.417,187.324,142.76,185.667,142.76z"/></g><g><path class="st4" d="M67.978,141.465c-1.657,0-3-1.343-3-3v-22.072c0-1.657,1.343-3,3-3c1.657,0,3,1.343,3,3v22.072    C70.978,140.122,69.635,141.465,67.978,141.465z"/></g><g><path class="st4" d="M67.978,160.724c-1.657,0-3-1.343-3-3v-5.404c0-1.657,1.343-3,3-3c1.657,0,3,1.343,3,3v5.404    C70.978,159.381,69.635,160.724,67.978,160.724z"/></g><g><path class="st4" d="M54.705,142.76c-1.657,0-3-1.343-3-3v-5.403c0-1.657,1.343-3,3-3s3,1.343,3,3v5.403    C57.705,141.417,56.362,142.76,54.705,142.76z"/></g><g><path class="st4" d="M70.94,109.794H46.5c-6.793,0-12.319-5.526-12.319-12.319c0-6.793,5.526-12.319,12.319-12.319    c0.088,0,0.177,0.001,0.265,0.003c2.864-3.621,7.288-5.805,11.956-5.805c6.17,0,11.65,3.712,14.007,9.256    c5.034,0.853,8.881,5.244,8.881,10.517C81.608,105.008,76.823,109.794,70.94,109.794z M46.5,91.155    c-3.484,0-6.319,2.835-6.319,6.319c0,3.484,2.835,6.319,6.319,6.319h24.44c2.574,0,4.668-2.094,4.668-4.667    c0-2.573-2.094-4.667-4.668-4.667l-0.24,0.016c-1.447,0.065-2.698-0.862-3.058-2.239c-1.058-4.053-4.727-6.884-8.922-6.884    c-3.278,0-6.24,1.684-7.924,4.505c-0.645,1.08-1.899,1.64-3.128,1.411C47.26,91.192,46.877,91.155,46.5,91.155z"/></g></g></svg>