<?xml version="1.0" ?><!DOCTYPE svg  PUBLIC '-//W3C//DTD SVG 1.1//EN'  'http://www.w3.org/Graphics/SVG/1.1/DTD/svg11.dtd'><svg id="Icon_Set" style="enable-background:new 0 0 256 256;" version="1.1" viewBox="0 0 256 256" xml:space="preserve" xmlns="http://www.w3.org/2000/svg" xmlns:xlink="http://www.w3.org/1999/xlink"><style type="text/css">
	.st0{fill:#484771;}
	.st1{fill:#F1C48B;}
	.st2{fill:#FD919F;}
	.st3{fill:#E0667D;}
	.st4{fill:#504774;}
	.st5{fill:#A0D1F2;}
	.st6{fill:#D4E7F8;}
	.st7{fill:#7BABF3;}
	.st8{fill:#4C4372;}
	.st9{fill:#D5E6F7;}
	.st10{fill:#FFFFFF;}
</style><g><g><circle class="st1" cx="128" cy="128" r="103.873"/></g><g><path class="st9" d="M176.661,163.378h12.17v-33.763c0-3.361-2.724-6.085-6.085-6.085l0,0c-3.361,0-6.085,2.724-6.085,6.085    V163.378z"/></g><g><rect class="st5" height="35.763" width="19.802" x="172.845" y="163.378"/></g><g><rect class="st7" height="35.763" width="8.662" x="183.985" y="163.378"/></g><g><rect class="st5" height="30.983" width="85.423" x="63.353" y="168.158"/></g><g><rect class="st7" height="30.983" width="17.539" x="131.237" y="168.158"/></g><g><path class="st7" d="M148.776,189.166h-31.17c-3.047,0-5.517-2.47-5.517-5.517l0,0c0-3.047,2.47-5.517,5.517-5.517h31.17V189.166z    "/></g><g><path class="st2" d="M164.856,114.649c-20.008,20.009-52.449,20.009-72.457,0c-20.008-20.008-20.008-52.449,0-72.457    L164.856,114.649z"/></g><g><path class="st3" d="M152.55,102.343c-17.91,17.91-45.773,19.775-65.773,5.622c1.658,2.344,3.524,4.586,5.622,6.684    c20.009,20.009,52.449,20.009,72.457,0L152.55,102.343z"/></g><g><circle class="st2" cx="145.577" cy="60.836" r="10.012"/></g><g><path class="st8" d="M128.627,132.656c-14.486,0-28.106-5.642-38.35-15.885c-21.146-21.146-21.146-55.554,0-76.699    c1.171-1.172,3.071-1.172,4.242,0l72.457,72.457c0.563,0.563,0.879,1.326,0.879,2.121s-0.316,1.559-0.879,2.121    C156.734,127.014,143.114,132.656,128.627,132.656z M92.464,46.5c-16.722,18.921-16.038,47.934,2.056,66.028    c9.11,9.11,21.223,14.128,34.107,14.128c11.879,0,23.103-4.265,31.921-12.071L92.464,46.5z"/></g><g><path class="st8" d="M145.577,73.848c-3.476,0-6.744-1.353-9.201-3.811c-2.458-2.458-3.812-5.726-3.812-9.202    c0-3.475,1.354-6.744,3.812-9.201c2.457-2.458,5.725-3.811,9.201-3.811c3.476,0,6.743,1.354,9.201,3.812    c5.073,5.073,5.074,13.328,0.001,18.402C152.32,72.495,149.053,73.848,145.577,73.848z M145.577,53.823    c-1.873,0-3.634,0.729-4.959,2.054c-1.324,1.325-2.054,3.085-2.054,4.958c0,1.873,0.729,3.634,2.054,4.959    c1.325,1.324,3.085,2.053,4.959,2.053c1.873,0,3.634-0.729,4.958-2.054c2.734-2.734,2.734-7.183,0-9.917    C149.211,54.553,147.45,53.823,145.577,53.823z"/></g><g><path class="st8" d="M128.31,81.103c-0.768,0-1.536-0.293-2.122-0.879c-1.171-1.171-1.171-3.071,0-4.243l10.188-10.187    c1.171-1.171,3.071-1.171,4.243,0.001c1.171,1.171,1.171,3.071-0.001,4.243l-10.187,10.187    C129.845,80.81,129.077,81.103,128.31,81.103z"/></g><g><rect class="st9" height="68.74" width="25.653" x="76.039" y="99.418"/></g><g><rect class="st5" height="68.74" width="8.16" x="93.532" y="99.418"/></g><g><circle class="st2" cx="88.866" cy="113.51" r="5.798"/></g><g><path class="st8" d="M88.866,122.308c-2.35,0-4.559-0.915-6.221-2.577c-1.662-1.661-2.578-3.871-2.578-6.221    c0-2.35,0.915-4.56,2.578-6.221c1.662-1.662,3.871-2.577,6.221-2.577c2.35,0,4.559,0.915,6.221,2.577    c3.431,3.43,3.431,9.011,0,12.441C93.425,121.393,91.216,122.308,88.866,122.308z M88.866,110.712    c-0.747,0-1.45,0.291-1.978,0.819c-0.528,0.529-0.82,1.231-0.82,1.979c0,0.747,0.291,1.45,0.82,1.978    c1.058,1.058,2.899,1.057,3.957,0c1.091-1.091,1.091-2.866,0-3.957C90.315,111.003,89.613,110.712,88.866,110.712z"/></g><g><path class="st8" d="M101.692,171.159H76.039c-1.657,0-3-1.343-3-3V99.418c0-1.657,1.343-3,3-3h25.654c1.657,0,3,1.343,3,3v68.741    C104.692,169.815,103.349,171.159,101.692,171.159z M79.039,165.159h19.654v-62.741H79.039V165.159z"/></g><g><path class="st8" d="M148.776,202.141H63.353c-1.657,0-3-1.343-3-3v-30.982c0-1.657,1.343-3,3-3h85.423c1.657,0,3,1.343,3,3    v30.982C151.776,200.798,150.433,202.141,148.776,202.141z M66.353,196.141h79.423v-24.982H66.353V196.141z"/></g><g><path class="st8" d="M148.776,192.167h-31.17c-4.696,0-8.517-3.82-8.517-8.517s3.82-8.517,8.517-8.517h31.17c1.657,0,3,1.343,3,3    v11.033C151.776,190.823,150.433,192.167,148.776,192.167z M117.606,181.133c-1.388,0-2.517,1.129-2.517,2.517    s1.129,2.517,2.517,2.517h28.17v-5.033H117.606z"/></g><g><path class="st8" d="M192.647,202.141h-19.801c-1.657,0-3-1.343-3-3v-35.763c0-1.657,1.343-3,3-3h19.801c1.657,0,3,1.343,3,3    v35.763C195.647,200.798,194.304,202.141,192.647,202.141z M175.846,196.141h13.801v-29.763h-13.801V196.141z"/></g><g><path class="st8" d="M188.831,166.378h-12.169c-1.657,0-3-1.343-3-3v-33.763c0-5.009,4.075-9.085,9.084-9.085    c5.009,0,9.085,4.076,9.085,9.085v33.763C191.831,165.035,190.488,166.378,188.831,166.378z M179.662,160.378h6.169v-30.763    c0-1.701-1.384-3.085-3.085-3.085c-1.701,0-3.084,1.384-3.084,3.085V160.378z"/></g></g></svg>