<?xml version="1.0" ?><!DOCTYPE svg  PUBLIC '-//W3C//DTD SVG 1.1//EN'  'http://www.w3.org/Graphics/SVG/1.1/DTD/svg11.dtd'><svg id="Icon_Set" style="enable-background:new 0 0 256 256;" version="1.1" viewBox="0 0 256 256" xml:space="preserve" xmlns="http://www.w3.org/2000/svg" xmlns:xlink="http://www.w3.org/1999/xlink"><style type="text/css">
	.st0{fill:#484771;}
	.st1{fill:#F1C48B;}
	.st2{fill:#FD919F;}
	.st3{fill:#E0667D;}
	.st4{fill:#504774;}
	.st5{fill:#A0D1F2;}
	.st6{fill:#D4E7F8;}
	.st7{fill:#7BABF3;}
	.st8{fill:#4C4372;}
	.st9{fill:#D5E6F7;}
	.st10{fill:#FFFFFF;}
</style><g><g><circle class="st1" cx="128" cy="128" r="104.245"/></g><g><path class="st9" d="M58.792,80.02L58.792,80.02c0-7.723,6.103-14.066,13.82-14.363l75.677-2.917    c20.271-1.341,40.328,4.808,56.364,17.28l0,0l0,0c-16.036,12.472-36.093,18.622-56.364,17.28l-75.677-2.917    C64.895,94.086,58.792,87.743,58.792,80.02z"/></g><g><path class="st5" d="M148.289,87.198l-75.677-2.917c-5.941-0.229-10.912-4.047-12.892-9.313c-0.592,1.575-0.928,3.273-0.928,5.051    c0,7.723,6.103,14.066,13.82,14.363l75.677,2.917c20.271,1.341,40.328-4.808,56.364-17.28c-2.341-1.821-4.771-3.503-7.271-5.051    C182.754,84.022,165.6,88.344,148.289,87.198z"/></g><g><path class="st10" d="M148.223,97.298l0.066,0.003c20.271,1.341,40.328-4.808,56.364-17.28    c-16.036-12.473-36.093-18.622-56.364-17.28C148.289,62.74,142.074,86.581,148.223,97.298z"/></g><g><path class="st9" d="M202.973,78.749c-0.129-0.095-0.259-0.187-0.388-0.281c-0.457-0.333-0.916-0.662-1.378-0.984    c-0.111-0.078-0.224-0.154-0.335-0.231c-0.506-0.349-1.015-0.694-1.528-1.031c-0.063-0.041-0.126-0.083-0.189-0.124    c-0.586-0.384-1.177-0.76-1.771-1.128c-14.628,9.053-31.782,13.375-49.093,12.229l-2.667-0.103    c0.265,3.847,1.025,7.456,2.601,10.202l0.066,0.003c20.271,1.341,40.328-4.808,56.364-17.28    C204.098,79.589,203.537,79.165,202.973,78.749z"/></g><g><path class="st4" d="M153.766,100.48c-1.884,0-3.794-0.063-5.675-0.188l-75.594-2.912c-9.367-0.36-16.705-7.986-16.705-17.361    c0-9.374,7.338-17,16.705-17.36l75.677-2.917c1.798-0.12,3.708-0.183,5.592-0.183c19.003,0,37.73,6.425,52.73,18.093    c0.73,0.568,1.158,1.442,1.158,2.368s-0.428,1.8-1.158,2.368C191.494,94.056,172.769,100.48,153.766,100.48z M153.766,65.56    c-1.753,0-3.528,0.059-5.278,0.174l-75.76,2.922c-6.132,0.235-10.936,5.228-10.936,11.364c0,6.138,4.804,11.13,10.936,11.365    l75.677,2.917c1.833,0.12,3.608,0.179,5.361,0.179c16.344,0,32.469-5.11,45.837-14.46C186.234,70.67,170.109,65.56,153.766,65.56z    "/></g><g><polygon class="st2" points="118.74,96.161 118.74,125.298 133.957,125.298 133.957,96.748   "/></g><g><polygon class="st3" points="126.348,125.298 133.957,125.298 133.957,96.748 126.348,96.454   "/></g><g><path class="st2" d="M152.367,137.255h-52.037c-3.302,0-5.979-2.677-5.979-5.979l0,0c0-3.302,2.677-5.979,5.979-5.979h52.037    c3.302,0,5.978,2.677,5.978,5.979l0,0C158.345,134.579,155.669,137.255,152.367,137.255z"/></g><g><path class="st9" d="M187.628,200.527H65.069c-4.265,0-7.722-3.457-7.722-7.722v-34.376c0-4.265,3.457-7.722,7.722-7.722h122.559    c4.265,0,7.722,3.457,7.722,7.722v34.376C195.35,197.07,191.892,200.527,187.628,200.527z"/></g><g><polygon class="st2" points="118.74,63.879 118.74,54.945 78.385,47.472 78.385,65.434   "/></g><g><polygon class="st3" points="78.385,94.605 78.385,112.568 118.74,105.094 118.74,96.161   "/></g><g><path class="st3" d="M152.367,125.298h-14.249c3.302,0,5.979,2.677,5.979,5.978l0,0c0,3.302-2.677,5.979-5.979,5.979h14.249    c3.302,0,5.979-2.676,5.979-5.979l0,0C158.345,127.975,155.669,125.298,152.367,125.298z"/></g><g><path class="st5" d="M187.628,150.707h-17.577c4.265,0,7.722,3.457,7.722,7.722v34.376c0,4.265-3.457,7.722-7.722,7.722h17.577    c4.265,0,7.722-3.457,7.722-7.722v-34.376C195.35,154.164,191.893,150.707,187.628,150.707z"/></g><g><path class="st4" d="M78.385,68.435c-0.774,0-1.521-0.3-2.08-0.838c-0.588-0.565-0.92-1.347-0.92-2.162V47.473    c0-0.892,0.396-1.736,1.081-2.307c0.686-0.569,1.587-0.806,2.465-0.644l40.354,7.473c1.422,0.264,2.454,1.504,2.454,2.95v8.934    c0,1.612-1.274,2.936-2.885,2.998L78.5,68.433C78.462,68.434,78.423,68.435,78.385,68.435z M81.385,51.079v11.237l34.354-1.324    V57.44L81.385,51.079z"/></g><g><path class="st4" d="M78.385,115.567c-0.695,0-1.375-0.242-1.919-0.693c-0.684-0.57-1.081-1.415-1.081-2.307V94.605    c0-0.815,0.332-1.597,0.92-2.162c0.587-0.564,1.383-0.86,2.195-0.836l40.354,1.556c1.611,0.063,2.885,1.386,2.885,2.998v8.934    c0,1.446-1.032,2.687-2.454,2.95l-40.354,7.473C78.749,115.551,78.566,115.567,78.385,115.567z M81.385,97.724v11.237    l34.354-6.361v-3.552L81.385,97.724z"/></g><g><path class="st4" d="M152.367,140.255h-52.038c-4.951,0-8.979-4.027-8.979-8.979c0-4.951,4.027-8.979,8.979-8.979h52.038    c4.951,0,8.979,4.027,8.979,8.979C161.346,136.227,157.318,140.255,152.367,140.255z M100.329,128.298    c-1.643,0-2.979,1.336-2.979,2.979c0,1.643,1.336,2.979,2.979,2.979h52.038c1.643,0,2.979-1.336,2.979-2.979    c0-1.643-1.336-2.979-2.979-2.979H100.329z"/></g><g><path class="st4" d="M187.628,203.527H65.068c-5.912,0-10.722-4.809-10.722-10.722v-34.377c0-5.912,4.81-10.722,10.722-10.722    h122.56c5.912,0,10.722,4.81,10.722,10.722v34.377C198.35,198.718,193.54,203.527,187.628,203.527z M65.068,153.707    c-2.604,0-4.722,2.118-4.722,4.722v34.377c0,2.604,2.118,4.722,4.722,4.722h122.56c2.604,0,4.722-2.118,4.722-4.722v-34.377    c0-2.604-2.118-4.722-4.722-4.722H65.068z"/></g><g><path class="st4" d="M195.35,178.43h-92.695c-0.796,0-1.559-0.316-2.121-0.879l-10.393-10.393H57.518c-1.657,0-3-1.343-3-3    s1.343-3,3-3h33.865c0.796,0,1.559,0.316,2.121,0.879l10.393,10.393h91.453c1.657,0,3,1.343,3,3S197.007,178.43,195.35,178.43z"/></g><g><path class="st4" d="M195.35,192.068H57.347c-1.657,0-3-1.343-3-3c0-1.657,1.343-3,3-3H195.35c1.657,0,3,1.343,3,3    C198.35,190.726,197.007,192.068,195.35,192.068z"/></g><g><path class="st4" d="M126.432,153.707c-0.634,0-1.272-0.2-1.815-0.613l-15.845-12.068l-15.845,12.068    c-1.318,1.002-3.199,0.749-4.204-0.569c-1.004-1.317-0.749-3.2,0.569-4.204l17.662-13.452c1.074-0.818,2.561-0.818,3.635,0    l17.662,13.452c1.318,1.004,1.573,2.887,0.569,4.204C128.23,153.3,127.336,153.707,126.432,153.707z"/></g><g><path class="st4" d="M161.757,153.707c-0.634,0-1.272-0.2-1.815-0.613l-15.845-12.068l-15.846,12.068    c-1.317,1.002-3.199,0.749-4.204-0.569c-1.004-1.317-0.749-3.2,0.569-4.204l17.663-13.452c1.074-0.818,2.561-0.818,3.635,0    l17.662,13.452c1.318,1.004,1.573,2.887,0.569,4.204C163.555,153.3,162.661,153.707,161.757,153.707z"/></g><g><path class="st4" d="M133.957,128.298h-15.218c-1.657,0-3-1.343-3-3V96.161c0-0.815,0.332-1.597,0.92-2.162    c0.587-0.564,1.383-0.854,2.195-0.836l15.218,0.587c1.611,0.063,2.885,1.386,2.885,2.998v28.55    C136.957,126.955,135.614,128.298,133.957,128.298z M121.739,122.298h9.218V99.635l-9.218-0.356V122.298z"/></g><g><path class="st4" d="M153.769,100.48c-0.001,0-0.001,0-0.003,0c-1.882,0-3.787-0.063-5.664-0.187    c-1.008-0.063-1.979-0.627-2.481-1.503c-6.683-11.646-0.5-35.787-0.234-36.809c0.326-1.25,1.416-2.151,2.705-2.236    c1.88-0.125,3.788-0.188,5.672-0.188c19.004,0,37.731,6.426,52.732,18.094c0.73,0.568,1.158,1.442,1.158,2.368    s-0.428,1.8-1.158,2.368C191.495,94.056,172.769,100.48,153.769,100.48z M150.14,94.398c17.615,0.798,35.109-4.339,49.463-14.378    c-13.368-9.351-29.494-14.462-45.84-14.462c-1.021,0-2.052,0.02-3.079,0.06C149.102,72.719,147.001,86.789,150.14,94.398z"/></g></g></svg>