<?xml version="1.0" ?><!DOCTYPE svg  PUBLIC '-//W3C//DTD SVG 1.1//EN'  'http://www.w3.org/Graphics/SVG/1.1/DTD/svg11.dtd'><svg id="Icon_Set" style="enable-background:new 0 0 256 256;" version="1.1" viewBox="0 0 256 256" xml:space="preserve" xmlns="http://www.w3.org/2000/svg" xmlns:xlink="http://www.w3.org/1999/xlink"><style type="text/css">
	.st0{fill:#484771;}
	.st1{fill:#F1C48B;}
	.st2{fill:#FD919F;}
	.st3{fill:#E0667D;}
	.st4{fill:#504774;}
	.st5{fill:#A0D1F2;}
	.st6{fill:#D4E7F8;}
	.st7{fill:#7BABF3;}
	.st8{fill:#4C4372;}
	.st9{fill:#D5E6F7;}
	.st10{fill:#FFFFFF;}
</style><g><g><circle class="st1" cx="128" cy="128" r="103.873"/></g><g><rect class="st9" height="19.247" width="46.793" x="34.349" y="141.511"/></g><g><polygon class="st9" points="34.349,141.511 81.142,141.511 72.779,127.582 42.712,127.582   "/></g><g><polygon class="st5" points="151,197 103.327,197 94.964,171.073 159.364,171.073   "/></g><g><polygon class="st9" points="174.858,141.511 221.651,141.511 213.288,127.582 183.221,127.582   "/></g><g><polygon class="st7" points="147.376,171.073 139.012,197 151,197 159.364,171.073   "/></g><g><rect class="st7" height="12.267" width="93.716" x="81.142" y="145.982"/></g><g><path class="st4" d="M174.858,161.249H81.142c-1.657,0-3-1.343-3-3v-12.267c0-1.657,1.343-3,3-3h93.716c1.657,0,3,1.343,3,3    v12.267C177.858,159.905,176.515,161.249,174.858,161.249z M84.142,155.249h87.716v-6.267H84.142V155.249z"/></g><g><polygon class="st5" points="213.288,127.582 201.021,127.582 209.385,141.511 221.651,141.511   "/></g><g><rect class="st9" height="19.247" width="46.793" x="174.858" y="141.511"/></g><g><rect class="st5" height="19.247" width="12.781" x="208.87" y="141.511"/></g><g><polygon class="st5" points="72.779,127.582 60.512,127.582 68.876,141.511 81.142,141.511   "/></g><g><rect class="st5" height="19.247" width="12.781" x="68.361" y="141.511"/></g><g><path class="st4" d="M221.651,144.511h-46.794c-1.081,0-2.079-0.581-2.611-1.522c-0.532-0.94-0.518-2.095,0.039-3.022    l8.364-13.929c0.542-0.903,1.519-1.456,2.572-1.456h30.066c1.053,0,2.03,0.553,2.572,1.456l8.364,13.929    c0.557,0.927,0.571,2.082,0.039,3.022C223.73,143.929,222.732,144.511,221.651,144.511z M180.159,138.511h36.192l-4.761-7.929    h-26.67L180.159,138.511z"/></g><g><path class="st4" d="M221.651,163.758h-46.794c-1.657,0-3-1.343-3-3v-19.247c0-1.657,1.343-3,3-3h46.794c1.657,0,3,1.343,3,3    v19.247C224.651,162.415,223.308,163.758,221.651,163.758z M177.858,157.758h40.794v-13.247h-40.794V157.758z"/></g><g><rect class="st9" height="68.582" width="64.4" x="95.8" y="102.491"/></g><g><rect class="st5" height="68.582" width="12.824" x="147.376" y="102.491"/></g><g><rect class="st2" height="19.794" width="64.4" x="95.8" y="117.685"/></g><g><rect class="st3" height="19.794" width="12.934" x="147.266" y="117.685"/></g><g><polygon class="st7" points="160.2,102.491 95.8,102.491 104.164,59 151.836,59   "/></g><g><path class="st4" d="M160.22,105.491c-0.007-0.001-0.013-0.001-0.02,0H95.8c-0.895,0-1.743-0.399-2.313-1.089    c-0.57-0.69-0.802-1.599-0.633-2.477l8.364-43.491c0.271-1.413,1.507-2.434,2.946-2.434h47.673c1.439,0,2.674,1.021,2.946,2.434    l8.299,43.151c0.09,0.286,0.139,0.59,0.139,0.906C163.22,104.147,161.877,105.491,160.22,105.491z M99.432,99.491h57.137    L149.358,62h-42.717L99.432,99.491z"/></g><g><path class="st4" d="M151.836,200h-47.673c-1.302,0-2.456-0.84-2.855-2.079l-8.364-25.927c-0.294-0.913-0.135-1.912,0.43-2.687    c0.565-0.775,1.466-1.234,2.425-1.234h64.4c0.959,0,1.86,0.458,2.425,1.234c0.564,0.775,0.724,1.775,0.43,2.687l-8.364,25.927    C154.292,199.16,153.139,200,151.836,200z M106.348,194h43.304l6.428-19.927H99.92L106.348,194z"/></g><g><path class="st4" d="M160.2,174.073H95.8c-1.657,0-3-1.343-3-3v-68.582c0-1.657,1.343-3,3-3h64.4c1.657,0,3,1.343,3,3v68.582    C163.2,172.73,161.857,174.073,160.2,174.073z M98.8,168.073h58.4v-62.582H98.8V168.073z"/></g><g><path class="st4" d="M160.2,140.479H95.8c-1.657,0-3-1.343-3-3v-19.794c0-1.657,1.343-3,3-3h64.4c1.657,0,3,1.343,3,3v19.794    C163.2,139.136,161.857,140.479,160.2,140.479z M98.8,134.479h58.4v-13.794H98.8V134.479z"/></g><g><path class="st4" d="M81.142,144.511H34.349c-1.081,0-2.079-0.581-2.611-1.522c-0.532-0.94-0.518-2.095,0.039-3.022l8.364-13.929    c0.542-0.903,1.519-1.456,2.572-1.456h30.066c1.053,0,2.03,0.553,2.572,1.456l8.364,13.929c0.557,0.927,0.571,2.082,0.039,3.022    C83.221,143.929,82.223,144.511,81.142,144.511z M39.649,138.511h36.192l-4.761-7.929H44.41L39.649,138.511z"/></g><g><path class="st4" d="M81.142,163.758H34.349c-1.657,0-3-1.343-3-3v-19.247c0-1.657,1.343-3,3-3h46.793c1.657,0,3,1.343,3,3v19.247    C84.142,162.415,82.799,163.758,81.142,163.758z M37.349,157.758h40.793v-13.247H37.349V157.758z"/></g></g></svg>