<?xml version="1.0" ?><!DOCTYPE svg  PUBLIC '-//W3C//DTD SVG 1.1//EN'  'http://www.w3.org/Graphics/SVG/1.1/DTD/svg11.dtd'><svg id="Icon_Set" style="enable-background:new 0 0 256 256;" version="1.1" viewBox="0 0 256 256" xml:space="preserve" xmlns="http://www.w3.org/2000/svg" xmlns:xlink="http://www.w3.org/1999/xlink"><style type="text/css">
	.st0{fill:#484771;}
	.st1{fill:#F1C48B;}
	.st2{fill:#FD919F;}
	.st3{fill:#E0667D;}
	.st4{fill:#504774;}
	.st5{fill:#A0D1F2;}
	.st6{fill:#D4E7F8;}
	.st7{fill:#7BABF3;}
	.st8{fill:#4C4372;}
	.st9{fill:#D5E6F7;}
	.st10{fill:#FFFFFF;}
</style><g><g><circle class="st1" cx="128" cy="128" r="104.245"/></g><g><path class="st2" d="M193.903,100.903C193.903,64.506,164.397,35,128,35s-65.903,29.506-65.903,65.903H193.903z"/></g><g><path class="st6" d="M161.614,100.903C161.614,64.506,146.564,35,128,35s-33.614,29.506-33.614,65.903H161.614z"/></g><g><path class="st3" d="M193.903,100.903c0-36.395-29.502-65.899-65.896-65.903c18.561,0.008,33.607,29.51,33.607,65.903H193.903z"/></g><g><path class="st6" d="M91.904,212.485v-29.963l15.257-32.529c1.703-3.631,5.352-5.95,9.363-5.95h22.951    c4.011,0,7.66,2.319,9.363,5.95l15.257,32.529v29.963c0,4.703-3.812,8.515-8.515,8.515h-55.16    C95.717,221,91.904,217.188,91.904,212.485z"/></g><g><path class="st5" d="M148.839,149.993c-1.703-3.631-5.352-5.951-9.363-5.951h-11.671c4.011,0,7.66,2.319,9.363,5.951    l15.257,32.528v29.964c0,4.703-3.813,8.515-8.516,8.515h11.671c4.703,0,8.515-3.812,8.515-8.515v-29.964L148.839,149.993z"/></g><g><polygon class="st5" points="98.019,169.484 157.981,169.484 151.921,156.564 104.079,156.564   "/></g><g><polygon class="st7" points="140.25,156.564 146.31,169.484 157.981,169.484 156.673,166.697 151.921,156.564   "/></g><g><path class="st2" d="M134.147,184.74h-12.294c-2.984,0-5.404,2.419-5.404,5.403V221h23.101v-30.857    C139.551,187.159,137.131,184.74,134.147,184.74z"/></g><g><path class="st3" d="M134.147,184.74h-6.257c2.984,0,5.404,2.419,5.404,5.404V221h6.257v-30.856    C139.551,187.159,137.131,184.74,134.147,184.74z"/></g><g><rect class="st7" height="21.147" width="11.671" x="152.425" y="182.521"/></g><g><rect class="st5" height="21.147" width="11.671" x="91.904" y="182.521"/></g><g><path class="st4" d="M139.551,224h-23.102c-1.657,0-3-1.343-3-3v-30.856c0-4.634,3.77-8.403,8.403-8.403h12.295    c4.634,0,8.403,3.77,8.403,8.403V221C142.551,222.657,141.208,224,139.551,224z M119.449,218h17.102v-27.856    c0-1.325-1.078-2.403-2.403-2.403h-12.295c-1.325,0-2.403,1.078-2.403,2.403V218z"/></g><g><path class="st4" d="M157.98,172.484H98.02c-1.026,0-1.981-0.524-2.532-1.391c-0.55-0.866-0.62-1.954-0.184-2.883l6.06-12.921    c0.494-1.054,1.553-1.726,2.716-1.726h47.842c1.163,0,2.222,0.673,2.716,1.726l6.06,12.921c0.436,0.929,0.366,2.017-0.184,2.883    C159.962,171.96,159.007,172.484,157.98,172.484z M102.74,166.484h50.52l-3.245-6.921h-44.029L102.74,166.484z"/></g><g><path class="st4" d="M155.58,224h-55.16c-6.35,0-11.516-5.166-11.516-11.516v-29.963c0-0.44,0.097-0.875,0.284-1.273    l15.257-32.529c2.188-4.664,6.929-7.677,12.079-7.677h22.951c5.15,0,9.892,3.013,12.079,7.676l15.257,32.53    c0.188,0.398,0.284,0.833,0.284,1.273v29.963C167.096,218.834,161.93,224,155.58,224z M94.904,183.19v29.294    c0,3.041,2.475,5.516,5.516,5.516h55.16c3.041,0,5.516-2.475,5.516-5.516V183.19l-14.973-31.925    c-1.204-2.565-3.813-4.224-6.647-4.224h-22.951c-2.834,0-5.443,1.658-6.647,4.225L94.904,183.19z"/></g><g><path class="st4" d="M164.096,206.668h-11.671c-1.657,0-3-1.343-3-3v-21.146c0-1.657,1.343-3,3-3h11.671c1.657,0,3,1.343,3,3    v21.146C167.096,205.325,165.753,206.668,164.096,206.668z M155.425,200.668h5.671v-15.146h-5.671V200.668z"/></g><g><path class="st4" d="M103.575,206.668H91.904c-1.657,0-3-1.343-3-3v-21.146c0-1.657,1.343-3,3-3h11.671c1.657,0,3,1.343,3,3    v21.146C106.575,205.325,105.232,206.668,103.575,206.668z M94.904,200.668h5.671v-15.146h-5.671V200.668z"/></g><g><circle class="st4" cx="122.826" cy="203.668" r="2.587"/></g><g><path class="st4" d="M193.903,103.903H62.097c-1.657,0-3-1.343-3-3C59.097,62.91,90.007,32,128,32s68.903,30.91,68.903,68.903    C196.903,102.561,195.561,103.903,193.903,103.903z M65.167,97.903h125.666C189.262,64.605,161.68,38,128,38    S66.738,64.605,65.167,97.903z"/></g><g><path class="st4" d="M161.614,103.903H94.386c-1.657,0-3-1.343-3-3C91.386,62.266,107.469,32,128,32    c20.531,0,36.614,30.266,36.614,68.903C164.614,102.561,163.271,103.903,161.614,103.903z M97.422,97.903h61.156    C157.785,65.134,144.105,38,128,38S98.215,65.134,97.422,97.903z"/></g><g><path class="st4" d="M107.162,152.992c-0.812,0-1.619-0.327-2.211-0.972l-45.065-49.089c-1.12-1.22-1.039-3.118,0.182-4.238    c1.22-1.122,3.117-1.039,4.238,0.182l45.064,49.089c1.12,1.22,1.039,3.118-0.182,4.238    C108.614,152.731,107.887,152.992,107.162,152.992z"/></g><g><path class="st4" d="M116.527,147.043c-1.09,0-2.141-0.596-2.672-1.631l-22.139-43.139c-0.757-1.475-0.175-3.282,1.299-4.039    c1.476-0.757,3.283-0.174,4.039,1.299l22.139,43.139c0.757,1.475,0.175,3.282-1.299,4.039    C117.456,146.936,116.988,147.043,116.527,147.043z"/></g><g><path class="st4" d="M139.473,147.043c-0.461,0-0.929-0.107-1.367-0.332c-1.474-0.757-2.056-2.564-1.299-4.039l22.139-43.139    c0.757-1.473,2.564-2.056,4.039-1.299c1.474,0.757,2.056,2.564,1.299,4.039l-22.139,43.139    C141.613,146.447,140.563,147.043,139.473,147.043z"/></g><g><path class="st4" d="M148.838,152.992c-0.725,0-1.452-0.261-2.027-0.79c-1.221-1.12-1.302-3.019-0.182-4.238l45.064-49.089    c1.121-1.221,3.02-1.303,4.238-0.182c1.221,1.12,1.302,3.019,0.182,4.238l-45.064,49.089    C150.457,152.665,149.648,152.992,148.838,152.992z"/></g></g></svg>