<?xml version="1.0" ?><!DOCTYPE svg  PUBLIC '-//W3C//DTD SVG 1.1//EN'  'http://www.w3.org/Graphics/SVG/1.1/DTD/svg11.dtd'><svg id="Icon_Set" style="enable-background:new 0 0 256 256;" version="1.1" viewBox="0 0 256 256" xml:space="preserve" xmlns="http://www.w3.org/2000/svg" xmlns:xlink="http://www.w3.org/1999/xlink"><style type="text/css">
	.st0{fill:#484771;}
	.st1{fill:#F1C48B;}
	.st2{fill:#FD919F;}
	.st3{fill:#E0667D;}
	.st4{fill:#504774;}
	.st5{fill:#A0D1F2;}
	.st6{fill:#D4E7F8;}
	.st7{fill:#7BABF3;}
	.st8{fill:#4C4372;}
	.st9{fill:#D5E6F7;}
	.st10{fill:#FFFFFF;}
</style><g><g><circle class="st1" cx="128" cy="128" r="103.873"/></g><g><path class="st6" d="M183.98,213.707h-23.736c-2.98,0-5.396-2.416-5.396-5.396l0,0c0-2.98,2.416-5.396,5.396-5.396h23.736    c2.98,0,5.396,2.416,5.396,5.396l0,0C189.376,211.291,186.96,213.707,183.98,213.707z"/></g><g><path class="st6" d="M189.375,161.502H66.625c-3.274,0-5.927-2.654-5.927-5.928v-9.881c0-3.274,2.654-5.928,5.927-5.928h122.75    c3.274,0,5.927,2.654,5.927,5.928v9.881C195.303,158.848,192.649,161.502,189.375,161.502z"/></g><g><rect class="st6" height="23.263" width="102.331" x="76.834" y="116.502"/></g><g><rect class="st5" height="23.263" width="10.453" x="168.713" y="116.502"/></g><g><path class="st5" d="M189.375,139.765h-18.5c3.274,0,5.927,2.654,5.927,5.928v9.881c0,3.274-2.654,5.928-5.927,5.928h18.5    c3.274,0,5.927-2.654,5.927-5.928v-9.881C195.303,142.419,192.649,139.765,189.375,139.765z"/></g><g><rect class="st6" height="41.413" width="14.107" x="76.834" y="161.502"/></g><g><rect class="st6" height="41.413" width="14.107" x="165.059" y="161.502"/></g><g><rect class="st5" height="41.413" width="7.244" x="171.921" y="161.502"/></g><g><path class="st6" d="M95.755,213.707H72.02c-2.98,0-5.396-2.416-5.396-5.396l0,0c0-2.98,2.416-5.396,5.396-5.396h23.736    c2.98,0,5.396,2.416,5.396,5.396l0,0C101.151,211.291,98.736,213.707,95.755,213.707z"/></g><g><path class="st5" d="M183.98,202.915h-12.75c2.98,0,5.396,2.416,5.396,5.396c0,2.98-2.416,5.396-5.396,5.396h12.75    c2.98,0,5.396-2.416,5.396-5.396C189.376,205.33,186.96,202.915,183.98,202.915z"/></g><g><path class="st7" d="M153.332,180.483h-50.664c-6.477,0-11.727-5.25-11.727-11.727v-7.254h74.118v7.254    C165.059,175.233,159.809,180.483,153.332,180.483z"/></g><g><rect class="st5" height="12.028" width="15.752" x="157.97" y="58.866"/></g><g><rect class="st5" height="15.057" width="9.972" x="89.821" y="78.641"/></g><g><rect class="st6" height="12.743" width="19.156" x="85.229" y="65.85"/></g><g><rect class="st5" height="12.743" width="7.656" x="96.729" y="65.85"/></g><g><rect class="st5" height="16.573" width="8.599" x="161.546" y="42.293"/></g><g><polygon class="st7" points="76.834,116.502 128,116.502 128,93.698 84.706,93.698   "/></g><g><rect class="st2" height="22.804" width="51.166" x="128" y="93.698"/></g><g><rect class="st2" height="22.804" width="51.166" x="128" y="70.894"/></g><g><rect class="st3" height="22.804" width="10.453" x="168.713" y="93.697"/></g><g><rect class="st3" height="22.804" width="10.453" x="168.713" y="70.893"/></g><g><path class="st8" d="M189.375,164.501H66.625c-4.923,0-8.928-4.005-8.928-8.927v-9.881c0-4.922,4.005-8.927,8.928-8.927h122.75    c4.923,0,8.928,4.005,8.928,8.927v9.881C198.303,160.497,194.298,164.501,189.375,164.501z M66.625,142.766    c-1.614,0-2.928,1.313-2.928,2.927v9.881c0,1.614,1.313,2.927,2.928,2.927h122.75c1.614,0,2.928-1.313,2.928-2.927v-9.881    c0-1.614-1.313-2.927-2.928-2.927H66.625z"/></g><g><path class="st8" d="M179.166,142.766H76.834c-1.657,0-3-1.343-3-3v-23.264c0-1.657,1.343-3,3-3h102.332c1.657,0,3,1.343,3,3    v23.264C182.166,141.422,180.823,142.766,179.166,142.766z M79.834,136.766h96.332v-17.264H79.834V136.766z"/></g><g><path class="st8" d="M128,119.502H76.834c-0.97,0-1.88-0.469-2.443-1.259c-0.563-0.79-0.709-1.803-0.393-2.72l7.872-22.804    c0.418-1.21,1.557-2.021,2.836-2.021H128c1.657,0,3,1.343,3,3v22.804C131,118.159,129.657,119.502,128,119.502z M81.043,113.502    H125V96.698H86.844L81.043,113.502z"/></g><g><path class="st8" d="M179.166,119.502H128c-1.657,0-3-1.343-3-3V93.698c0-1.657,1.343-3,3-3h51.166c1.657,0,3,1.343,3,3v22.804    C182.166,118.159,180.823,119.502,179.166,119.502z M131,113.502h45.166V96.698H131V113.502z"/></g><g><path class="st8" d="M179.166,96.698H128c-1.657,0-3-1.343-3-3V70.894c0-1.657,1.343-3,3-3h51.166c1.657,0,3,1.343,3,3v22.804    C182.166,95.354,180.823,96.698,179.166,96.698z M131,90.698h45.166V73.894H131V90.698z"/></g><g><path class="st8" d="M173.722,73.894H157.97c-1.657,0-3-1.343-3-3V58.866c0-1.657,1.343-3,3-3h15.752c1.657,0,3,1.343,3,3v12.027    C176.722,72.55,175.379,73.894,173.722,73.894z M160.97,67.894h9.752v-6.027h-9.752V67.894z"/></g><g><path class="st8" d="M99.793,96.698H89.82c-1.657,0-3-1.343-3-3V78.641c0-1.657,1.343-3,3-3h9.973c1.657,0,3,1.343,3,3v15.057    C102.793,95.354,101.45,96.698,99.793,96.698z M92.82,90.698h3.973v-9.057H92.82V90.698z"/></g><g><path class="st8" d="M104.385,81.593H85.229c-1.657,0-3-1.343-3-3V65.85c0-1.657,1.343-3,3-3h19.156c1.657,0,3,1.343,3,3v12.743    C107.385,80.249,106.042,81.593,104.385,81.593z M88.229,75.593h13.156V68.85H88.229V75.593z"/></g><g><path class="st8" d="M170.145,61.866h-8.599c-1.657,0-3-1.343-3-3V42.293c0-1.657,1.343-3,3-3h8.599c1.657,0,3,1.343,3,3v16.573    C173.145,60.523,171.803,61.866,170.145,61.866z M164.547,55.866h2.599V45.293h-2.599V55.866z"/></g><g><path class="st8" d="M153.332,183.483h-50.664c-8.12,0-14.727-6.606-14.727-14.727v-7.254c0-1.657,1.343-3,3-3h74.117    c1.657,0,3,1.343,3,3v7.254C168.059,176.876,161.452,183.483,153.332,183.483z M93.941,164.501v4.254    c0,4.812,3.915,8.727,8.727,8.727h50.664c4.812,0,8.727-3.915,8.727-8.727v-4.254H93.941z"/></g><g><path class="st8" d="M90.941,205.915H76.834c-1.657,0-3-1.343-3-3v-41.413c0-1.657,1.343-3,3-3h14.107c1.657,0,3,1.343,3,3v41.413    C93.941,204.571,92.599,205.915,90.941,205.915z M79.834,199.915h8.107v-35.413h-8.107V199.915z"/></g><g><path class="st8" d="M179.166,205.915h-14.107c-1.657,0-3-1.343-3-3v-41.413c0-1.657,1.343-3,3-3h14.107c1.657,0,3,1.343,3,3    v41.413C182.166,204.571,180.823,205.915,179.166,205.915z M168.059,199.915h8.107v-35.413h-8.107V199.915z"/></g><g><path class="st8" d="M95.756,216.707H72.02c-4.629,0-8.396-3.767-8.396-8.396c0-4.629,3.767-8.396,8.396-8.396h23.736    c4.629,0,8.396,3.767,8.396,8.396C104.151,212.94,100.385,216.707,95.756,216.707z M72.02,205.915    c-1.321,0-2.396,1.075-2.396,2.396c0,1.321,1.074,2.396,2.396,2.396h23.736c1.321,0,2.396-1.075,2.396-2.396    c0-1.321-1.074-2.396-2.396-2.396H72.02z"/></g><g><path class="st8" d="M183.98,216.707h-23.736c-4.629,0-8.395-3.767-8.395-8.396c0-4.629,3.767-8.396,8.395-8.396h23.736    c4.629,0,8.396,3.767,8.396,8.396C192.376,212.94,188.609,216.707,183.98,216.707z M160.244,205.915    c-1.321,0-2.395,1.075-2.395,2.396c0,1.321,1.074,2.396,2.395,2.396h23.736c1.321,0,2.396-1.075,2.396-2.396    c0-1.321-1.074-2.396-2.396-2.396H160.244z"/></g><g><path class="st8" d="M168.713,131h-31.38c-1.657,0-3-1.343-3-3c0-1.657,1.343-3,3-3h31.38c1.657,0,3,1.343,3,3    C171.713,129.657,170.37,131,168.713,131z"/></g></g></svg>