<?xml version="1.0" ?><!DOCTYPE svg  PUBLIC '-//W3C//DTD SVG 1.1//EN'  'http://www.w3.org/Graphics/SVG/1.1/DTD/svg11.dtd'><svg id="Icon_Set" style="enable-background:new 0 0 256 256;" version="1.1" viewBox="0 0 256 256" xml:space="preserve" xmlns="http://www.w3.org/2000/svg" xmlns:xlink="http://www.w3.org/1999/xlink"><style type="text/css">
	.st0{fill:#484771;}
	.st1{fill:#F1C48B;}
	.st2{fill:#FD919F;}
	.st3{fill:#E0667D;}
	.st4{fill:#504774;}
	.st5{fill:#A0D1F2;}
	.st6{fill:#D4E7F8;}
	.st7{fill:#7BABF3;}
	.st8{fill:#4C4372;}
	.st9{fill:#D5E6F7;}
	.st10{fill:#FFFFFF;}
</style><g><g><circle class="st1" cx="128" cy="128" r="104.245"/></g><g><path class="st6" d="M104.872,172.236l-7.082-7.082c-4.567-4.567-4.62-11.927-0.179-16.571l-3.888-6.476l-2.651-2.651    c-7.895-7.895-11.197-18.637-9.926-28.922c0.012-0.099,0.023-0.199,0.036-0.298c0.051-0.383,0.11-0.765,0.174-1.146    c0.022-0.131,0.043-0.262,0.066-0.392l-0.55-25.656l-17.72,28.263l6.378,17.352l-20.243,39.179l4.8,17.065h55.086v-16.965    L104.872,172.236z"/></g><g><path class="st5" d="M109.172,167.936l-4.3,4.3l-7.082-7.082c-4.567-4.567-4.62-11.927-0.179-16.571l-3.888-6.476l-2.651-2.651    c-7.895-7.895-11.197-18.637-9.926-28.922c0.012-0.099,0.023-0.199,0.036-0.298c0.051-0.383,0.11-0.765,0.174-1.146    c0.022-0.131,0.043-0.262,0.066-0.392l-0.55-25.657l-17.72,28.263l6.378,17.352l-0.192,33.997l9.891,22.248h29.943V167.936z"/></g><g><path class="st2" d="M173.101,104.006l-68.229,68.229l-7.082-7.082c-4.63-4.63-4.63-12.138,0-16.768l51.461-51.461    c4.63-4.631,12.138-4.631,16.768,0L173.101,104.006z"/></g><g><path class="st7" d="M148.145,98.03l-49.25,49.25l-7.823-7.823c-13.6-13.6-13.6-35.65,0-49.25h0c13.6-13.6,35.65-13.6,49.25,0    L148.145,98.03z"/></g><g><path class="st6" d="M109.316,108.45L109.316,108.45c7.681-7.681,8.79-19.44,3.339-28.306    c-7.873,0.686-15.558,4.036-21.583,10.062h0c-6.025,6.025-9.375,13.71-10.062,21.583    C89.876,117.241,101.634,116.132,109.316,108.45z"/></g><g><path class="st5" d="M116.044,92.542c0.066-4.298-1.062-8.612-3.389-12.397c-7.873,0.686-15.558,4.036-21.583,10.062h0    c-1.846,1.846-3.438,3.848-4.782,5.963C95.244,90.467,106.227,89.258,116.044,92.542z"/></g><g><path class="st5" d="M163.612,128.288l-34.458,34.458c-4.085,4.085-10.708,4.085-14.792,0v0l49.25-49.25l0,0    C167.697,117.581,167.697,124.203,163.612,128.288z"/></g><g><circle class="st7" cx="157.871" cy="157.005" r="5.649"/></g><g><circle class="st7" cx="134.089" cy="180.787" r="5.649"/></g><g><circle class="st7" cx="183.066" cy="131.809" r="5.649"/></g><g><path class="st7" d="M151.971,125.136l5.639,5.64c0.97,0.97,0.97,2.543,0,3.513l6.001-6.001c4.085-4.085,4.085-10.708,0-14.792    l0,0L151.971,125.136z"/></g><g><path class="st3" d="M149.251,96.924l-17.118,17.118c4.63-4.63,12.138-4.63,16.768,0l7.082,7.082l17.118-17.118l-7.082-7.082    C161.389,92.294,153.881,92.294,149.251,96.924z"/></g><g><path class="st8" d="M93.056,118.186C93.056,118.186,93.056,118.186,93.056,118.186c-4.822,0-9.53-1.328-13.617-3.841    c-0.968-0.595-1.516-1.685-1.417-2.816c0.771-8.841,4.652-17.166,10.93-23.443c6.276-6.277,14.603-10.158,23.443-10.929    c1.139-0.103,2.222,0.449,2.816,1.417c6.327,10.29,4.775,23.448-3.774,31.998C106.527,115.481,99.999,118.186,93.056,118.186z     M84.224,110.14c2.733,1.343,5.751,2.046,8.831,2.046h0.001c5.342,0,10.362-2.08,14.139-5.856    c6.13-6.131,7.585-15.34,3.813-22.971c-6.721,1-12.988,4.143-17.814,8.969C88.367,97.154,85.224,103.419,84.224,110.14z"/></g><g><path class="st8" d="M98.896,150.28c-0.796,0-1.559-0.316-2.121-0.879l-7.823-7.823c-14.748-14.748-14.748-38.745,0-53.493    c7.144-7.145,16.643-11.079,26.746-11.079c10.102,0,19.601,3.935,26.746,11.079l7.823,7.823c1.172,1.171,1.172,3.071,0,4.242    l-49.25,49.251C100.454,149.964,99.691,150.28,98.896,150.28z M115.697,83.006c-8.501,0-16.493,3.311-22.504,9.321    c-12.408,12.409-12.408,32.6,0,45.009l5.702,5.702l45.008-45.009l-5.702-5.702C132.189,86.316,124.197,83.006,115.697,83.006z"/></g><g><path class="st8" d="M104.872,175.235c-0.768,0-1.535-0.293-2.121-0.879l-7.082-7.082c-2.807-2.806-4.352-6.536-4.352-10.505    c0-3.969,1.545-7.699,4.352-10.505l51.461-51.461c2.806-2.807,6.537-4.352,10.506-4.352c3.968,0,7.699,1.545,10.505,4.352    l7.082,7.081c0.563,0.563,0.879,1.325,0.879,2.121c0,0.796-0.316,1.559-0.879,2.121l-68.229,68.229    C106.407,174.942,105.64,175.235,104.872,175.235z M157.636,96.452c-2.366,0-4.591,0.921-6.264,2.594l-51.461,51.461    c-1.673,1.673-2.594,3.897-2.594,6.263c0,2.365,0.921,4.59,2.594,6.263l4.961,4.961l63.986-63.987l-4.96-4.96    C162.226,97.373,160.001,96.451,157.636,96.452z"/></g><g><path class="st8" d="M121.758,168.81c-3.596,0-6.976-1.399-9.518-3.942c-1.172-1.171-1.172-3.071,0-4.242l49.25-49.25    c1.172-1.172,3.07-1.172,4.242,0c5.248,5.248,5.248,13.786,0,19.034l-34.457,34.458C128.733,167.41,125.354,168.81,121.758,168.81    z M119.046,162.304c0.854,0.332,1.77,0.506,2.712,0.506c1.993,0,3.866-0.775,5.275-2.185l34.457-34.458    c2.154-2.154,2.713-5.31,1.676-7.982L119.046,162.304z"/></g><g><path class="st8" d="M157.871,165.653c-2.311,0-4.482-0.899-6.116-2.533s-2.533-3.806-2.533-6.115s0.899-4.481,2.533-6.115    c1.634-1.634,3.806-2.533,6.116-2.533c2.31,0,4.481,0.9,6.115,2.533c3.371,3.372,3.371,8.858,0.001,12.23    C162.352,164.754,160.181,165.653,157.871,165.653z M157.871,154.356c-0.708,0-1.373,0.275-1.874,0.775    c-0.5,0.501-0.775,1.166-0.775,1.873s0.275,1.372,0.775,1.873c1.001,0.999,2.744,1.001,3.747,0    c1.032-1.032,1.032-2.714-0.001-3.746C159.243,154.632,158.578,154.356,157.871,154.356z"/></g><g><path class="st8" d="M153.876,156.011c-0.768,0-1.535-0.293-2.121-0.879l-7.493-7.493c-1.172-1.171-1.172-3.071,0-4.242    c1.172-1.172,3.07-1.172,4.242,0l7.493,7.493c1.172,1.171,1.172,3.071,0,4.242C155.411,155.718,154.644,156.011,153.876,156.011z"/></g><g><path class="st8" d="M134.089,189.436c-2.31,0-4.481-0.899-6.115-2.533c-1.634-1.634-2.533-3.806-2.533-6.115    c0-2.311,0.899-4.482,2.533-6.116c1.634-1.633,3.806-2.532,6.115-2.532c2.31,0,4.481,0.899,6.115,2.533    c1.634,1.633,2.533,3.805,2.533,6.115c0,2.31-0.899,4.482-2.533,6.115C138.57,188.536,136.398,189.436,134.089,189.436z     M134.089,178.139c-0.707,0-1.372,0.275-1.873,0.775c-0.5,0.501-0.775,1.165-0.775,1.873c0,0.707,0.275,1.372,0.775,1.873    c1.002,1,2.744,1,3.746,0c0.5-0.501,0.775-1.166,0.775-1.873c0-0.708-0.275-1.372-0.775-1.872    C135.461,178.414,134.796,178.139,134.089,178.139z"/></g><g><path class="st8" d="M131.852,178.601c-1.161,0-2.267-0.679-2.756-1.814l-4.686-10.865c-0.656-1.521,0.046-3.286,1.567-3.942    c1.521-0.656,3.286,0.045,3.942,1.567l4.686,10.865c0.656,1.521-0.046,3.286-1.567,3.942    C132.652,178.521,132.249,178.601,131.852,178.601z"/></g><g><path class="st8" d="M183.066,140.458c-2.31,0-4.481-0.899-6.115-2.533c-1.634-1.634-2.533-3.806-2.533-6.115    c0-2.31,0.899-4.481,2.533-6.115c1.634-1.634,3.806-2.533,6.115-2.533s4.481,0.899,6.115,2.533    c1.634,1.634,2.533,3.806,2.533,6.115c0,2.309-0.899,4.481-2.533,6.115C187.548,139.559,185.376,140.458,183.066,140.458z     M183.066,129.161c-0.707,0-1.372,0.275-1.873,0.775c-0.5,0.501-0.775,1.166-0.775,1.873c0,0.707,0.275,1.372,0.775,1.873    c1.002,1,2.744,1,3.746,0c0.5-0.501,0.775-1.166,0.775-1.873c0-0.707-0.275-1.372-0.775-1.873    C184.439,129.436,183.773,129.161,183.066,129.161z"/></g><g><path class="st8" d="M177.484,132.403c-0.396,0-0.8-0.079-1.187-0.246l-10.472-4.516c-1.521-0.656-2.224-2.421-1.567-3.942    c0.656-1.521,2.42-2.224,3.942-1.567l10.472,4.516c1.521,0.656,2.224,2.421,1.567,3.942    C179.751,131.725,178.645,132.403,177.484,132.403z"/></g><g><path class="st8" d="M97.79,168.153c-0.768,0-1.535-0.293-2.121-0.879c-1.172-1.171-1.172-3.071,0-4.242l68.23-68.228    c1.172-1.172,3.07-1.172,4.242,0c1.172,1.171,1.172,3.071,0,4.242l-68.229,68.229C99.325,167.86,98.558,168.153,97.79,168.153z"/></g><g><path class="st8" d="M147.287,81.959c-0.661,0-1.326-0.217-1.881-0.664c-1.29-1.04-1.492-2.929-0.453-4.219l5.748-7.131h-10.021    c-1.529,0-2.813-1.15-2.981-2.67l-1.105-9.969l-8.12,6.911c-1.125,0.957-2.778,0.953-3.897-0.007l-8.055-6.91v9.644    c0,1.657-1.343,3-3,3c-1.657,0-3-1.343-3-3V50.774c0-1.172,0.683-2.236,1.747-2.726c1.065-0.492,2.317-0.313,3.206,0.448    l11.063,9.49l10.472-8.913c0.846-0.72,2.019-0.913,3.051-0.505c1.031,0.41,1.753,1.355,1.875,2.459l1.431,12.917h13.607    c1.155,0,2.208,0.663,2.706,1.705c0.499,1.042,0.355,2.278-0.37,3.178l-9.684,12.014    C149.032,81.577,148.163,81.959,147.287,81.959z"/></g><g><path class="st8" d="M109.172,187.901H79.229c-1.186,0-2.26-0.698-2.741-1.781l-9.891-22.248    c-0.173-0.389-0.261-0.811-0.259-1.235l0.188-33.454l-6.19-16.843c-0.32-0.872-0.22-1.842,0.274-2.629L78.33,81.448    c0.704-1.123,2.06-1.652,3.34-1.298c1.278,0.353,2.173,1.502,2.201,2.827l0.55,25.656c0.005,0.199-0.011,0.398-0.046,0.594    l-0.06,0.35c-0.059,0.355-0.113,0.703-0.16,1.054l-0.029,0.255c-1.217,9.837,2.089,19.471,9.067,26.449l2.651,2.651    c0.173,0.173,0.324,0.367,0.45,0.576l3.889,6.476c0.695,1.16,0.53,2.642-0.404,3.618c-3.301,3.451-3.241,9.003,0.132,12.377    l4.961,4.96l2.179-2.179c0.856-0.858,2.144-1.117,3.27-0.65c1.121,0.464,1.852,1.558,1.852,2.771v16.966    C112.172,186.559,110.829,187.901,109.172,187.901z M81.178,181.901h24.994v-6.961c-1.115,0.534-2.495,0.342-3.421-0.584    l-7.082-7.081c-5.1-5.099-5.688-13.163-1.708-18.944l-2.62-4.363l-2.391-2.391c-8.295-8.294-12.225-19.743-10.781-31.41    l0.037-0.31c0.057-0.431,0.121-0.845,0.19-1.259l0.02-0.12l-0.328-15.348l-11.613,18.521l5.87,15.971    c0.124,0.337,0.187,0.693,0.185,1.052l-0.188,33.351L81.178,181.901z"/></g><g><path class="st8" d="M109.172,187.901H54.086c-1.344,0-2.524-0.894-2.888-2.188l-4.8-17.065c-0.206-0.731-0.126-1.515,0.223-2.189    l19.637-38.007l-5.922-16.112c-0.32-0.872-0.22-1.842,0.274-2.629L78.33,81.448c0.705-1.124,2.063-1.65,3.34-1.298    c1.278,0.353,2.173,1.502,2.201,2.827l0.55,25.656c0.005,0.199-0.011,0.398-0.046,0.594l-0.06,0.35    c-0.059,0.354-0.113,0.704-0.16,1.054l-0.029,0.255c-1.217,9.837,2.089,19.471,9.067,26.449l2.651,2.651    c0.173,0.173,0.324,0.367,0.45,0.576l3.889,6.476c0.695,1.16,0.53,2.642-0.404,3.618c-3.301,3.451-3.241,9.003,0.132,12.376    l4.961,4.961l2.179-2.179c0.856-0.858,2.144-1.117,3.27-0.65c1.121,0.464,1.852,1.558,1.852,2.771v16.966    C112.172,186.559,110.829,187.901,109.172,187.901z M56.358,181.901h49.813v-6.962c-1.104,0.529-2.537,0.301-3.421-0.583    l-7.082-7.082c-5.1-5.098-5.688-13.162-1.708-18.943l-2.62-4.363l-2.391-2.391c-8.295-8.294-12.225-19.743-10.781-31.41    l0.037-0.31c0.057-0.432,0.121-0.846,0.19-1.26l0.02-0.119l-0.328-15.348l-11.613,18.521l5.87,15.97    c0.291,0.79,0.236,1.665-0.15,2.412l-19.7,38.129L56.358,181.901z"/></g><g><rect class="st6" height="16.849" width="171.721" x="42.139" y="184.901"/></g><g><rect class="st5" height="16.849" width="42.678" x="171.183" y="184.901"/></g><g><path class="st8" d="M213.86,204.75H42.14c-1.657,0-3-1.343-3-3v-16.849c0-1.657,1.343-3,3-3H213.86c1.657,0,3,1.343,3,3v16.849    C216.86,203.407,215.518,204.75,213.86,204.75z M45.14,198.75H210.86v-10.849H45.14V198.75z"/></g></g></svg>