<?xml version="1.0" ?><!DOCTYPE svg  PUBLIC '-//W3C//DTD SVG 1.1//EN'  'http://www.w3.org/Graphics/SVG/1.1/DTD/svg11.dtd'><svg id="Icon_Set" style="enable-background:new 0 0 256 256;" version="1.1" viewBox="0 0 256 256" xml:space="preserve" xmlns="http://www.w3.org/2000/svg" xmlns:xlink="http://www.w3.org/1999/xlink"><style type="text/css">
	.st0{fill:#484771;}
	.st1{fill:#F1C48B;}
	.st2{fill:#FD919F;}
	.st3{fill:#E0667D;}
	.st4{fill:#504774;}
	.st5{fill:#A0D1F2;}
	.st6{fill:#D4E7F8;}
	.st7{fill:#7BABF3;}
	.st8{fill:#4C4372;}
	.st9{fill:#D5E6F7;}
	.st10{fill:#FFFFFF;}
</style><g><g><circle class="st1" cx="128" cy="128" r="103.873"/></g><g><path class="st9" d="M157.018,161.566H98.982c-2.577,0-4.667-2.089-4.667-4.667V97.072c0-2.577,2.089-4.666,4.667-4.666h58.036    c2.577,0,4.666,2.089,4.666,4.666v59.827C161.684,159.476,159.595,161.566,157.018,161.566z"/></g><g><g><rect class="st5" height="26.104" width="16.951" x="119.524" y="92.406"/></g><g><rect class="st5" height="26.104" width="16.951" x="119.524" y="135.461"/></g></g><g><rect class="st5" height="12.322" width="47.867" x="104.067" y="161.566"/></g><g><rect class="st9" height="20.644" width="8.988" x="123.506" y="54.15"/></g><g><rect class="st7" height="17.611" width="17.869" x="119.065" y="74.795"/></g><g><rect class="st7" height="12.322" width="14.999" x="136.935" y="161.566"/></g><g><path class="st5" d="M157.018,92.406h-12.702c2.577,0,4.667,2.089,4.667,4.666v59.827c0,2.577-2.089,4.667-4.667,4.667h12.702    c2.577,0,4.666-2.089,4.666-4.667V97.072C161.684,94.495,159.595,92.406,157.018,92.406z"/></g><g><rect class="st2" height="16.951" width="67.369" x="94.316" y="118.51"/></g><g><rect class="st3" height="16.951" width="12.702" x="148.982" y="118.51"/></g><g><path class="st8" d="M157.018,164.565H98.982c-4.228,0-7.667-3.439-7.667-7.667V97.072c0-4.228,3.439-7.667,7.667-7.667h58.035    c4.228,0,7.667,3.439,7.667,7.667v59.827C164.685,161.126,161.245,164.565,157.018,164.565z M98.982,95.406    c-0.919,0-1.667,0.747-1.667,1.667v59.827c0,0.919,0.748,1.667,1.667,1.667h58.035c0.919,0,1.667-0.747,1.667-1.667V97.072    c0-0.919-0.748-1.667-1.667-1.667H98.982z"/></g><g><path class="st8" d="M136.935,95.406h-17.869c-1.657,0-3-1.343-3-3V74.794c0-1.657,1.343-3,3-3h17.869c1.657,0,3,1.343,3,3v17.611    C139.935,94.063,138.592,95.406,136.935,95.406z M122.065,89.406h11.869V77.794h-11.869V89.406z"/></g><g><path class="st8" d="M132.494,77.794h-8.988c-1.657,0-3-1.343-3-3V54.15c0-1.657,1.343-3,3-3h8.988c1.657,0,3,1.343,3,3v20.644    C135.494,76.451,134.151,77.794,132.494,77.794z M126.506,71.794h2.988V57.15h-2.988V71.794z"/></g><g><path class="st8" d="M151.934,176.888h-47.867c-1.657,0-3-1.343-3-3v-12.322c0-1.657,1.343-3,3-3h47.867c1.657,0,3,1.343,3,3    v12.322C154.934,175.544,153.591,176.888,151.934,176.888z M107.066,170.888h41.867v-6.322h-41.867V170.888z"/></g><g><path class="st8" d="M128,56.294c-1.657,0-3-1.343-3-3v-16.51c0-1.657,1.343-3,3-3c1.657,0,3,1.343,3,3v16.51    C131,54.951,129.657,56.294,128,56.294z"/></g><g><path class="st8" d="M79.827,214.216c-0.56,0-1.126-0.157-1.631-0.484c-1.39-0.902-1.784-2.76-0.883-4.15l24.236-37.328    c0.903-1.389,2.76-1.785,4.15-0.882c1.39,0.902,1.784,2.76,0.883,4.15L82.347,212.85C81.771,213.734,80.81,214.216,79.827,214.216    z"/></g><g><path class="st8" d="M104.065,214.217c-0.372,0-0.751-0.07-1.117-0.217c-1.538-0.618-2.283-2.365-1.665-3.902l14.999-37.328    c0.616-1.537,2.365-2.284,3.901-1.665c1.538,0.618,2.283,2.365,1.665,3.902l-14.999,37.328    C106.38,213.505,105.254,214.217,104.065,214.217z"/></g><g><path class="st8" d="M176.173,214.216c-0.982,0-1.944-0.482-2.52-1.367l-24.236-37.328c-0.901-1.39-0.507-3.248,0.883-4.15    c1.393-0.902,3.248-0.506,4.15,0.882l24.236,37.328c0.901,1.39,0.507,3.248-0.883,4.15    C177.299,214.06,176.732,214.216,176.173,214.216z"/></g><g><path class="st8" d="M151.935,214.217c-1.189,0-2.314-0.712-2.784-1.882l-14.999-37.328c-0.618-1.538,0.127-3.285,1.665-3.902    c1.537-0.619,3.284,0.128,3.901,1.665l14.999,37.328c0.618,1.538-0.127,3.285-1.665,3.902    C152.686,214.147,152.307,214.217,151.935,214.217z"/></g><g><g><path class="st8" d="M136.476,121.51h-16.951c-1.657,0-3-1.343-3-3V92.406c0-1.657,1.343-3,3-3h16.951c1.657,0,3,1.343,3,3     v26.104C139.476,120.167,138.133,121.51,136.476,121.51z M122.524,115.51h10.951V95.406h-10.951V115.51z"/></g><g><path class="st8" d="M136.476,164.565h-16.951c-1.657,0-3-1.343-3-3v-26.104c0-1.657,1.343-3,3-3h16.951c1.657,0,3,1.343,3,3     v26.104C139.476,163.222,138.133,164.565,136.476,164.565z M122.524,158.565h10.951v-20.104h-10.951V158.565z"/></g></g><g><path class="st8" d="M161.685,138.461H94.315c-1.657,0-3-1.343-3-3V118.51c0-1.657,1.343-3,3-3h67.369c1.657,0,3,1.343,3,3v16.951    C164.685,137.118,163.342,138.461,161.685,138.461z M97.315,132.461h61.369V121.51H97.315V132.461z"/></g></g></svg>