<?xml version="1.0" ?><!DOCTYPE svg  PUBLIC '-//W3C//DTD SVG 1.1//EN'  'http://www.w3.org/Graphics/SVG/1.1/DTD/svg11.dtd'><svg id="Icon_Set" style="enable-background:new 0 0 256 256;" version="1.1" viewBox="0 0 256 256" xml:space="preserve" xmlns="http://www.w3.org/2000/svg" xmlns:xlink="http://www.w3.org/1999/xlink"><style type="text/css">
	.st0{fill:#484771;}
	.st1{fill:#F1C48B;}
	.st2{fill:#FD919F;}
	.st3{fill:#E0667D;}
	.st4{fill:#504774;}
	.st5{fill:#A0D1F2;}
	.st6{fill:#D4E7F8;}
	.st7{fill:#7BABF3;}
	.st8{fill:#4C4372;}
	.st9{fill:#D5E6F7;}
	.st10{fill:#FFFFFF;}
</style><g><g><circle class="st1" cx="128" cy="128" r="103.873"/></g><g><path class="st6" d="M129.251,131.367V54.459c0-1.91-1.549-3.459-3.459-3.459H74.618c-1.91,0-3.459,1.549-3.459,3.459v67.309    v11.414v43.942h115.121v-17.09c0-11.101-8.034-20.571-18.986-22.38L129.251,131.367z"/></g><g><path class="st5" d="M167.294,137.653l-38.043-6.286V54.459c0-1.91-1.549-3.459-3.459-3.459h-7.541v83.354    c0,4.465,3.232,8.275,7.637,9.003l30.405,5.024c10.952,1.81,18.986,11.28,18.986,22.38v6.363h11v-17.09    C186.279,148.933,178.246,139.463,167.294,137.653z"/></g><g><path class="st5" d="M186.279,160.034c0-0.33-0.03-0.654-0.044-0.982h-34.91c-9.061,0-16.407,7.346-16.407,16.407v1.665h51.361    V160.034z"/></g><g><path class="st7" d="M186.235,159.052h-14.222c2.076,3.438,3.266,7.451,3.266,11.709v6.363h11v-17.09    C186.279,159.703,186.249,159.38,186.235,159.052z"/></g><g><path class="st5" d="M57.356,180.453v15.218c0,1.839,1.49,3.329,3.329,3.329h40.842v-10.938h22.224L129.663,199h65.652    c1.839,0,3.329-1.49,3.329-3.329v-15.218c0-1.839-1.49-3.329-3.329-3.329H60.685C58.846,177.124,57.356,178.614,57.356,180.453z"/></g><g><g><path class="st7" d="M195.44,176.999h-23.25c1.839,0,3.329,1.491,3.329,3.329v15.218c0,1.839-1.49,3.329-3.329,3.329h23.25     c1.839,0,3.329-1.49,3.329-3.329v-15.218C198.769,178.489,197.279,176.999,195.44,176.999z"/></g></g><g><rect class="st7" height="24.931" width="14.023" x="83.483" y="95.253"/></g><g><rect class="st7" height="24.931" width="14.023" x="83.483" y="61.728"/></g><g><path class="st5" d="M71.159,150.422L71.159,150.422c10.679,0,19.336,8.657,19.336,19.336v7.365H71.159V150.422z"/></g><g><rect class="st2" height="16.688" width="31.745" x="97.506" y="99.374"/></g><g><rect class="st2" height="16.688" width="12.325" x="71.159" y="99.374"/></g><g><rect class="st2" height="16.688" width="12.325" x="71.159" y="65.849"/></g><g><rect class="st2" height="16.688" width="31.745" x="97.506" y="65.849"/></g><g><rect class="st3" height="16.688" width="10.993" x="118.258" y="99.374"/></g><g><rect class="st3" height="16.688" width="10.993" x="118.258" y="65.849"/></g><g><path class="st8" d="M195.315,202h-65.652c-1.102,0-2.115-0.605-2.639-1.573l-5.062-9.365h-17.435V199c0,1.657-1.343,3-3,3H60.685    c-3.49,0-6.329-2.839-6.329-6.329v-15.218c0-3.49,2.839-6.329,6.329-6.329h134.63c3.49,0,6.329,2.839,6.329,6.329v15.218    C201.644,199.161,198.805,202,195.315,202z M131.452,196h63.863c0.182,0,0.329-0.148,0.329-0.329v-15.218    c0-0.182-0.147-0.329-0.329-0.329H60.685c-0.181,0-0.329,0.148-0.329,0.329v15.218c0,0.182,0.147,0.329,0.329,0.329h37.842v-7.939    c0-1.657,1.343-3,3-3h22.224c1.102,0,2.115,0.605,2.639,1.573L131.452,196z"/></g><g><path class="st8" d="M129.251,119.062H97.506c-1.657,0-3-1.343-3-3V99.374c0-1.657,1.343-3,3-3h31.745c1.657,0,3,1.343,3,3v16.688    C132.251,117.719,130.908,119.062,129.251,119.062z M100.506,113.062h25.745v-10.688h-25.745V113.062z"/></g><g><path class="st8" d="M83.483,119.062H71.159c-1.657,0-3-1.343-3-3V99.374c0-1.657,1.343-3,3-3h12.325c1.657,0,3,1.343,3,3v16.688    C86.483,117.719,85.14,119.062,83.483,119.062z M74.159,113.062h6.325v-10.688h-6.325V113.062z"/></g><g><path class="st8" d="M97.506,123.184H83.483c-1.657,0-3-1.343-3-3V95.252c0-1.657,1.343-3,3-3h14.023c1.657,0,3,1.343,3,3v24.931    C100.506,121.84,99.163,123.184,97.506,123.184z M86.483,117.184h8.023V98.252h-8.023V117.184z"/></g><g><path class="st8" d="M83.483,85.537H71.159c-1.657,0-3-1.343-3-3V65.849c0-1.657,1.343-3,3-3h12.325c1.657,0,3,1.343,3,3v16.688    C86.483,84.194,85.14,85.537,83.483,85.537z M74.159,79.537h6.325V68.849h-6.325V79.537z"/></g><g><path class="st8" d="M129.251,85.537H97.506c-1.657,0-3-1.343-3-3V65.849c0-1.657,1.343-3,3-3h31.745c1.657,0,3,1.343,3,3v16.688    C132.251,84.194,130.908,85.537,129.251,85.537z M100.506,79.537h25.745V68.849h-25.745V79.537z"/></g><g><path class="st8" d="M97.506,89.659H83.483c-1.657,0-3-1.343-3-3V61.728c0-1.657,1.343-3,3-3h14.023c1.657,0,3,1.343,3,3v24.931    C100.506,88.315,99.163,89.659,97.506,89.659z M86.483,83.659h8.023V64.728h-8.023V83.659z"/></g><g><path class="st8" d="M90.495,180.124H71.159c-1.657,0-3-1.343-3-3v-26.701c0-1.657,1.343-3,3-3    c12.316,0,22.336,10.02,22.336,22.336v7.365C93.495,178.781,92.152,180.124,90.495,180.124z M74.159,174.124h13.336v-4.365    c0-7.983-5.756-14.648-13.336-16.06V174.124z"/></g><g><path class="st8" d="M186.279,180.124h-51.361c-1.657,0-3-1.343-3-3v-1.665c0-10.701,8.706-19.407,19.407-19.407h34.91    c1.606,0,2.928,1.266,2.997,2.87l0.016,0.288c0.016,0.273,0.031,0.547,0.031,0.824v17.09    C189.279,178.781,187.936,180.124,186.279,180.124z M137.984,174.124h45.295v-12.072h-31.954    C144.383,162.052,138.656,167.355,137.984,174.124z"/></g><g><path class="st8" d="M186.279,180.124H71.159c-1.657,0-3-1.343-3-3V54.459c0-3.562,2.897-6.459,6.459-6.459h51.175    c3.561,0,6.459,2.897,6.459,6.459v74.363l35.532,5.871c12.456,2.059,21.497,12.716,21.497,25.341v17.09    C189.279,178.781,187.936,180.124,186.279,180.124z M74.159,174.124h109.121v-14.09c0-9.676-6.929-17.844-16.475-19.421    l-38.042-6.286c-1.448-0.239-2.511-1.492-2.511-2.96V54.459c0-0.253-0.206-0.459-0.459-0.459H74.618    c-0.253,0-0.459,0.206-0.459,0.459V174.124z"/></g></g></svg>