<?xml version="1.0" ?><!DOCTYPE svg  PUBLIC '-//W3C//DTD SVG 1.1//EN'  'http://www.w3.org/Graphics/SVG/1.1/DTD/svg11.dtd'><svg id="Icon_Set" style="enable-background:new 0 0 256 256;" version="1.1" viewBox="0 0 256 256" xml:space="preserve" xmlns="http://www.w3.org/2000/svg" xmlns:xlink="http://www.w3.org/1999/xlink"><style type="text/css">
	.st0{fill:#484771;}
	.st1{fill:#F1C48B;}
	.st2{fill:#FD919F;}
	.st3{fill:#E0667D;}
	.st4{fill:#504774;}
	.st5{fill:#A0D1F2;}
	.st6{fill:#D4E7F8;}
	.st7{fill:#7BABF3;}
	.st8{fill:#4C4372;}
	.st9{fill:#D5E6F7;}
	.st10{fill:#FFFFFF;}
</style><g><g><circle class="st1" cx="128" cy="128" r="103.873"/></g><g><path class="st6" d="M177.821,158.262l-15.803-15.803l27.14-27.14c4.364-4.364,11.439-4.364,15.803,0l0,0    c4.364,4.364,4.364,11.439,0,15.803L177.821,158.262z"/></g><g><rect class="st7" height="19.303" transform="matrix(0.7071 0.7071 -0.7071 0.7071 155.4182 -10.685)" width="101.87" x="39.672" y="172.613"/></g><g><path class="st7" d="M96.238,113.42V88.219c0-6.171-5.003-11.174-11.174-11.174c-6.172,0-11.175,5.003-11.175,11.174v47.55    L96.238,113.42z"/></g><g><path class="st6" d="M130.412,110.853L114.609,95.05l40.882-40.882c4.364-4.364,11.439-4.364,15.803,0l0,0    c4.364,4.364,4.364,11.439,0,15.803L130.412,110.853z"/></g><g><path class="st6" d="M146.215,126.656l-15.803-15.803L178.165,63.1c4.364-4.364,11.439-4.364,15.803,0l0,0    c4.364,4.364,4.364,11.439,0,15.803L146.215,126.656z"/></g><g><path class="st6" d="M162.018,142.459l-15.803-15.803l40.882-40.882c4.364-4.364,11.439-4.364,15.803,0l0,0    c4.364,4.364,4.364,11.439,0,15.803L162.018,142.459z"/></g><g><rect class="st6" height="68.99" transform="matrix(0.7071 0.7071 -0.7071 0.7071 142.488 -41.9012)" width="89.396" x="77.125" y="116.553"/></g><g><rect class="st5" height="68.99" transform="matrix(0.7071 0.7071 -0.7071 0.7071 170.2578 -53.4039)" width="10.851" x="144.168" y="144.322"/></g><g><path class="st5" d="M205.179,115.56l-35.03,35.03l7.673,7.673l27.14-27.14C209.248,126.835,209.313,119.939,205.179,115.56z"/></g><g><path class="st2" d="M109.228,187.236l-23.593-23.593l19.81-19.809c6.515-6.515,17.078-6.515,23.593,0l0,0    c6.515,6.515,6.515,17.078,0,23.593L109.228,187.236z"/></g><g><path class="st8" d="M130.412,113.853c-0.796,0-1.559-0.316-2.121-0.879l-15.803-15.803c-1.172-1.171-1.172-3.071,0-4.242    l40.881-40.882c2.678-2.677,6.237-4.152,10.022-4.152c3.786,0,7.346,1.475,10.023,4.151c5.526,5.527,5.526,14.519,0,20.046    l-40.882,40.882C131.971,113.537,131.208,113.853,130.412,113.853z M118.852,95.05l11.561,11.561l38.761-38.76    c3.186-3.188,3.186-8.373,0-11.561c-1.544-1.543-3.598-2.394-5.781-2.394c-2.183,0-4.236,0.851-5.78,2.395L118.852,95.05z"/></g><g><path class="st8" d="M119.799,228.105c-0.796,0-1.559-0.316-2.121-0.879l-72.033-72.033c-1.172-1.171-1.172-3.07-0.001-4.242    l13.649-13.649c1.125-1.124,3.117-1.126,4.243,0l72.033,72.033c1.172,1.171,1.172,3.071,0,4.242l-13.649,13.649    C121.357,227.789,120.594,228.105,119.799,228.105z M52.009,153.072l67.79,67.791l9.407-9.407l-67.791-67.79L52.009,153.072z"/></g><g><path class="st8" d="M146.215,129.655c-0.768,0-1.535-0.292-2.121-0.878l-15.803-15.803c-0.563-0.563-0.879-1.326-0.879-2.121    c0-0.796,0.316-1.559,0.879-2.121l47.753-47.753c2.677-2.677,6.236-4.152,10.023-4.152s7.345,1.475,10.023,4.151    c2.678,2.677,4.152,6.237,4.152,10.023c0,3.786-1.475,7.346-4.152,10.023l-47.753,47.753    C147.75,129.363,146.982,129.655,146.215,129.655z M134.654,110.853l11.561,11.56l45.632-45.631    c1.544-1.544,2.395-3.597,2.395-5.781c0-2.183-0.851-4.236-2.395-5.78c-1.544-1.544-3.597-2.395-5.78-2.395    c-2.184,0-4.236,0.85-5.78,2.394L134.654,110.853z"/></g><g><path class="st8" d="M162.019,145.459c-0.768,0-1.535-0.293-2.121-0.879l-15.804-15.803c-0.563-0.563-0.879-1.326-0.879-2.121    c0-0.795,0.316-1.559,0.879-2.121l40.882-40.882c2.678-2.677,6.236-4.152,10.022-4.152c3.786,0,7.346,1.475,10.022,4.152    c2.678,2.677,4.152,6.237,4.152,10.023c0,3.786-1.475,7.346-4.152,10.023L164.14,144.58    C163.554,145.166,162.786,145.459,162.019,145.459z M150.458,126.656l11.561,11.561l38.76-38.761    c1.544-1.545,2.395-3.597,2.395-5.78c0-2.184-0.851-4.236-2.395-5.781c-1.544-1.544-3.597-2.394-5.78-2.394    c-2.184,0-4.236,0.851-5.78,2.395L150.458,126.656z"/></g><g><path class="st8" d="M177.821,161.262c-0.768,0-1.535-0.293-2.121-0.879l-15.803-15.803c-1.172-1.171-1.172-3.071,0-4.242    l27.14-27.14c2.678-2.677,6.236-4.152,10.022-4.152c3.786,0,7.346,1.475,10.022,4.152c2.678,2.677,4.152,6.236,4.152,10.023    c0,3.786-1.475,7.346-4.152,10.022l-27.14,27.14C179.356,160.969,178.589,161.262,177.821,161.262z M166.261,142.459    l11.561,11.561l25.019-25.018c1.544-1.545,2.395-3.597,2.395-5.78c0-2.184-0.851-4.236-2.395-5.78    c-1.544-1.544-3.597-2.395-5.78-2.395c-2.184,0-4.236,0.851-5.78,2.395L166.261,142.459z"/></g><g><path class="st8" d="M195.342,143.741c-0.768,0-1.535-0.293-2.121-0.879L130.009,79.65c-1.172-1.171-1.172-3.071,0-4.242    c1.172-1.172,3.07-1.172,4.242,0l63.212,63.212c1.172,1.171,1.172,3.071,0,4.242C196.877,143.448,196.109,143.741,195.342,143.741    z"/></g><g><path class="st8" d="M196.385,111.092c-0.768,0-1.535-0.293-2.121-0.879l-47.409-47.409c-1.172-1.171-1.172-3.071,0-4.242    c1.172-1.172,3.07-1.172,4.242,0l47.409,47.409c1.172,1.171,1.172,3.071,0,4.242C197.92,110.799,197.152,111.092,196.385,111.092z    "/></g><g><path class="st8" d="M73.889,138.77c-0.387,0-0.776-0.074-1.147-0.229c-1.121-0.464-1.852-1.558-1.852-2.771v-47.55    c0-7.816,6.358-14.174,14.174-14.174c7.816,0,14.174,6.358,14.174,14.174v25.201c0,0.795-0.316,1.559-0.878,2.121l-22.349,22.349    C75.437,138.465,74.67,138.77,73.889,138.77z M85.064,80.045c-4.507,0-8.174,3.667-8.174,8.174v40.308l16.349-16.349V88.219    C93.238,83.712,89.571,80.045,85.064,80.045z"/></g><g><path class="st8" d="M129.038,210.045c-0.768,0-1.536-0.293-2.121-0.879l-63.212-63.212c-0.563-0.563-0.879-1.325-0.879-2.121    c0-0.796,0.316-1.559,0.879-2.121l48.783-48.783c1.171-1.172,3.071-1.172,4.242,0l63.212,63.212    c0.563,0.563,0.879,1.325,0.879,2.121s-0.316,1.559-0.879,2.121l-48.783,48.783C130.573,209.752,129.806,210.045,129.038,210.045z     M70.068,143.833l58.97,58.97l44.541-44.541l-58.97-58.969L70.068,143.833z"/></g><g><path class="st8" d="M109.228,190.236c-0.768,0-1.536-0.293-2.121-0.879l-23.594-23.594c-1.172-1.171-1.172-3.071,0-4.242    l19.81-19.81c3.717-3.718,8.66-5.765,13.918-5.765c5.257,0,10.2,2.047,13.918,5.765c7.674,7.675,7.674,20.161,0,27.836    l-19.81,19.81C110.764,189.943,109.996,190.236,109.228,190.236z M89.877,163.643l19.351,19.352l17.689-17.688    c5.334-5.335,5.334-14.017-0.001-19.352c-2.584-2.584-6.02-4.007-9.675-4.007c-3.655,0-7.091,1.423-9.676,4.007L89.877,163.643z"/></g></g></svg>