<?xml version="1.0" ?><!DOCTYPE svg  PUBLIC '-//W3C//DTD SVG 1.1//EN'  'http://www.w3.org/Graphics/SVG/1.1/DTD/svg11.dtd'><svg id="Icon_Set" style="enable-background:new 0 0 256 256;" version="1.1" viewBox="0 0 256 256" xml:space="preserve" xmlns="http://www.w3.org/2000/svg" xmlns:xlink="http://www.w3.org/1999/xlink"><style type="text/css">
	.st0{fill:#484771;}
	.st1{fill:#F1C48B;}
	.st2{fill:#FD919F;}
	.st3{fill:#E0667D;}
	.st4{fill:#504774;}
	.st5{fill:#A0D1F2;}
	.st6{fill:#D4E7F8;}
	.st7{fill:#7BABF3;}
	.st8{fill:#4C4372;}
	.st9{fill:#D5E6F7;}
	.st10{fill:#FFFFFF;}
</style><g><g><circle class="st1" cx="128" cy="128" r="103.873"/></g><g><path class="st5" d="M144.872,203.654H68.119v-11.438c0-3.59,2.911-6.501,6.501-6.501h63.751c3.59,0,6.501,2.911,6.501,6.501    V203.654z"/></g><g><polygon class="st9" points="124.833,185.714 88.419,185.714 88.419,132.617 102.769,132.617   "/></g><g><path class="st7" d="M138.371,185.714h-23.939c3.59,0,6.501,2.911,6.501,6.501v11.438h23.939v-11.438    C144.872,188.625,141.962,185.714,138.371,185.714z"/></g><g><polygon class="st5" points="102.769,132.617 92.75,132.617 114.814,185.714 124.833,185.714   "/></g><g><path class="st8" d="M124.853,188.714c-0.007,0-0.013,0-0.02,0H88.419c-1.657,0-3-1.343-3-3v-53.097c0-1.657,1.343-3,3-3h14.35    c1.212,0,2.305,0.729,2.771,1.849l21.938,52.793c0.239,0.431,0.376,0.927,0.376,1.456    C127.853,187.371,126.51,188.714,124.853,188.714z M91.419,182.714h28.919l-19.571-47.097h-9.348V182.714z"/></g><g><circle class="st7" cx="97.505" cy="128.159" r="12.901"/></g><g><path class="st8" d="M97.504,144.06c-4.247,0-8.24-1.654-11.244-4.658c-3.003-3.003-4.657-6.996-4.657-11.244    c0-4.248,1.654-8.241,4.657-11.244c3.003-3.004,6.997-4.658,11.244-4.658c4.248,0,8.241,1.654,11.244,4.658    c3.004,3.003,4.657,6.996,4.657,11.244c0,4.248-1.654,8.241-4.657,11.244C105.745,142.406,101.752,144.06,97.504,144.06z     M97.504,118.257c-2.645,0-5.131,1.03-7.002,2.9c-1.87,1.87-2.899,4.356-2.899,7.002c0,2.645,1.03,5.131,2.899,7.001    c1.871,1.87,4.357,2.9,7.002,2.9c2.645,0,5.131-1.03,7.002-2.9c1.87-1.87,2.899-4.357,2.899-7.001c0-2.645-1.03-5.131-2.899-7.002    C102.636,119.287,100.149,118.257,97.504,118.257z"/></g><g><path class="st2" d="M164.621,126.658c-17.962,17.962-47.083,17.962-65.045,0c-17.962-17.962-17.962-47.083,0-65.045    L164.621,126.658z"/></g><g><path class="st3" d="M153.573,115.611c-16.078,16.078-41.091,17.752-59.044,5.047c1.489,2.104,3.163,4.117,5.047,6    c17.962,17.962,47.083,17.962,65.045,0L153.573,115.611z"/></g><g><circle class="st2" cx="147.314" cy="78.349" r="8.988"/></g><g><path class="st8" d="M132.099,143.129c-13.087,0-25.39-5.096-34.643-14.35c-19.103-19.102-19.103-50.185,0-69.287    c1.171-1.172,3.071-1.172,4.242,0l65.045,65.045c0.563,0.563,0.879,1.326,0.879,2.121c0,0.796-0.316,1.559-0.879,2.122    C157.488,138.033,145.185,143.129,132.099,143.129z M99.649,65.929c-14.685,16.87-14.002,42.557,2.048,58.608    c8.121,8.12,18.917,12.592,30.401,12.592c10.478,0,20.385-3.723,28.207-10.543L99.649,65.929z"/></g><g><path class="st8" d="M147.313,90.337c-3.201,0-6.212-1.247-8.477-3.511c-4.674-4.675-4.674-12.28,0-16.954    c2.265-2.265,5.275-3.512,8.477-3.512c3.202,0,6.213,1.247,8.477,3.512c2.265,2.264,3.512,5.274,3.512,8.477    c0,3.202-1.247,6.212-3.512,8.477C153.526,89.09,150.516,90.337,147.313,90.337z M147.313,72.361    c-1.599,0-3.103,0.623-4.234,1.754c-2.334,2.335-2.334,6.133,0,8.468c1.131,1.13,2.635,1.753,4.234,1.753s3.104-0.623,4.234-1.753    c1.131-1.131,1.754-2.635,1.754-4.234c0-1.6-0.623-3.103-1.754-4.234C150.417,72.984,148.913,72.361,147.313,72.361z"/></g><g><path class="st8" d="M131.813,96.85c-0.768,0-1.535-0.293-2.121-0.878c-1.172-1.172-1.172-3.071,0-4.243l9.145-9.145    c1.172-1.172,3.07-1.171,4.242,0c1.172,1.172,1.172,3.071,0,4.243l-9.145,9.145C133.349,96.557,132.581,96.85,131.813,96.85z"/></g><g><path class="st8" d="M144.872,206.654H68.119c-1.657,0-3-1.343-3-3v-11.438c0-5.239,4.262-9.501,9.501-9.501h63.751    c5.239,0,9.501,4.262,9.501,9.501v11.438C147.872,205.311,146.529,206.654,144.872,206.654z M71.119,200.654h70.753v-8.438    c0-1.931-1.57-3.501-3.501-3.501H74.62c-1.931,0-3.501,1.57-3.501,3.501V200.654z"/></g><g><path class="st8" d="M178.548,84.324c-0.135,0-0.271-0.009-0.407-0.028c-1.642-0.222-2.792-1.734-2.569-3.375    c0.944-6.971-0.882-13.893-5.144-19.491c-4.262-5.597-10.448-9.2-17.419-10.145c-1.643-0.222-2.793-1.733-2.57-3.375    c0.223-1.642,1.743-2.792,3.375-2.57c8.56,1.16,16.155,5.583,21.388,12.456c5.232,6.873,7.476,15.371,6.315,23.931    C181.312,83.231,180.025,84.324,178.548,84.324z"/></g><g><path class="st8" d="M167.243,82.792c-0.135,0-0.271-0.009-0.407-0.028c-1.642-0.222-2.792-1.734-2.569-3.375    c0.535-3.952-0.5-7.876-2.916-11.048c-2.415-3.173-5.922-5.215-9.873-5.751c-1.642-0.222-2.793-1.733-2.57-3.375    c0.223-1.643,1.756-2.792,3.375-2.57c5.54,0.75,10.456,3.614,13.843,8.062c3.387,4.448,4.838,9.949,4.087,15.489    C170.008,81.7,168.721,82.792,167.243,82.792z"/></g><g><path class="st8" d="M189.515,85.81c-0.135,0-0.27-0.009-0.406-0.028c-1.643-0.222-2.793-1.733-2.57-3.375    c2.769-20.438-11.606-39.318-32.043-42.088c-1.643-0.222-2.793-1.733-2.57-3.375c0.223-1.643,1.753-2.79,3.375-2.57    c23.716,3.213,40.396,25.122,37.184,48.838C192.279,84.717,190.992,85.81,189.515,85.81z"/></g></g></svg>