<?xml version="1.0" ?><!DOCTYPE svg  PUBLIC '-//W3C//DTD SVG 1.1//EN'  'http://www.w3.org/Graphics/SVG/1.1/DTD/svg11.dtd'><svg id="Icon_Set" style="enable-background:new 0 0 256 256;" version="1.1" viewBox="0 0 256 256" xml:space="preserve" xmlns="http://www.w3.org/2000/svg" xmlns:xlink="http://www.w3.org/1999/xlink"><style type="text/css">
	.st0{fill:#484771;}
	.st1{fill:#F1C48B;}
	.st2{fill:#FD919F;}
	.st3{fill:#E0667D;}
	.st4{fill:#504774;}
	.st5{fill:#A0D1F2;}
	.st6{fill:#D4E7F8;}
	.st7{fill:#7BABF3;}
	.st8{fill:#4C4372;}
	.st9{fill:#D5E6F7;}
	.st10{fill:#FFFFFF;}
</style><g><g><circle class="st1" cx="128" cy="128" r="104.245"/></g><g><rect class="st2" height="19.556" width="183.779" x="36.11" y="119.046"/></g><g><rect class="st3" height="19.556" width="14.339" x="205.55" y="119.046"/></g><g><rect class="st3" height="19.556" width="45.067" x="105.466" y="119.046"/></g><g><path class="st4" d="M219.89,141.602H36.11c-1.657,0-3-1.343-3-3v-19.557c0-1.657,1.343-3,3-3H219.89c1.657,0,3,1.343,3,3v19.557    C222.89,140.26,221.546,141.602,219.89,141.602z M39.11,135.602H216.89v-13.557H39.11V135.602z"/></g><g><path class="st4" d="M219.89,141.602H36.11c-1.657,0-3-1.343-3-3v-9.229c0-1.657,1.343-3,3-3H219.89c1.657,0,3,1.343,3,3v9.229    C222.89,140.26,221.546,141.602,219.89,141.602z M39.11,135.602H216.89v-3.229H39.11V135.602z"/></g><g><path class="st6" d="M183.33,166.357h-34.953c-4.197,0-7.6-3.403-7.6-7.6v-29.933h50.152v29.933    C190.929,162.954,187.527,166.357,183.33,166.357z"/></g><g><polygon class="st5" points="98.005,89.644 82.288,89.644 79.639,105.668 100.654,105.668   "/></g><g><polygon class="st5" points="173.712,89.644 157.995,89.644 155.346,105.668 176.361,105.668   "/></g><g><path class="st6" d="M107.623,166.357H72.67c-4.197,0-7.6-3.403-7.6-7.6v-29.933h50.152v29.933    C115.223,162.954,111.82,166.357,107.623,166.357z"/></g><g><path class="st5" d="M180.422,128.824v29.933c0,4.197-3.403,7.599-7.6,7.599h10.507c4.197,0,7.6-3.402,7.6-7.599v-29.933H180.422z    "/></g><g><path class="st5" d="M104.715,128.824v29.933c0,4.197-3.403,7.599-7.6,7.599h10.508c4.197,0,7.6-3.402,7.6-7.599v-29.933H104.715z    "/></g><g><polygon class="st7" points="108.901,105.668 71.392,105.668 65.07,128.824 115.223,128.824   "/></g><g><polygon class="st7" points="184.608,105.668 147.099,105.668 140.777,128.824 190.929,128.824   "/></g><g><path class="st4" d="M107.623,169.356H72.67c-5.845,0-10.6-4.755-10.6-10.6v-29.933c0-1.657,1.343-3,3-3h50.152    c1.657,0,3,1.343,3,3v29.933C118.223,164.602,113.468,169.356,107.623,169.356z M68.07,131.824v26.933c0,2.536,2.063,4.6,4.6,4.6    h34.953c2.536,0,4.6-2.063,4.6-4.6v-26.933H68.07z"/></g><g><path class="st4" d="M115.223,131.824H65.07c-0.935,0-1.817-0.437-2.384-1.18c-0.567-0.743-0.756-1.708-0.51-2.61l6.322-23.156    c0.356-1.305,1.542-2.21,2.894-2.21h37.509c1.353,0,2.538,0.905,2.894,2.21l6.322,23.156c0.246,0.902,0.058,1.867-0.51,2.61    C117.04,131.388,116.158,131.824,115.223,131.824z M68.999,125.824h42.295l-4.684-17.156H73.683L68.999,125.824z"/></g><g><path class="st4" d="M100.654,108.668H79.639c-0.881,0-1.718-0.388-2.288-1.06c-0.57-0.672-0.816-1.561-0.672-2.43l2.649-16.024    c0.24-1.448,1.492-2.511,2.96-2.511h15.717c1.468,0,2.72,1.063,2.96,2.511l2.649,16.024c0.144,0.869-0.102,1.758-0.672,2.43    C102.372,108.28,101.536,108.668,100.654,108.668z M83.176,102.668h13.942L95.46,92.644H84.833L83.176,102.668z"/></g><g><path class="st4" d="M183.33,169.356h-34.953c-5.845,0-10.6-4.755-10.6-10.6v-29.933c0-1.657,1.343-3,3-3h50.152    c1.657,0,3,1.343,3,3v29.933C193.93,164.602,189.174,169.356,183.33,169.356z M143.777,131.824v26.933c0,2.536,2.064,4.6,4.6,4.6    h34.953c2.537,0,4.6-2.063,4.6-4.6v-26.933H143.777z"/></g><g><path class="st4" d="M190.93,131.824h-50.152c-0.935,0-1.817-0.437-2.384-1.18c-0.567-0.743-0.756-1.708-0.51-2.61l6.322-23.156    c0.356-1.305,1.541-2.21,2.894-2.21h37.509c1.353,0,2.538,0.905,2.894,2.21l6.322,23.156c0.246,0.902,0.058,1.867-0.51,2.61    C192.747,131.388,191.865,131.824,190.93,131.824z M144.706,125.824h42.295l-4.684-17.156H149.39L144.706,125.824z"/></g><g><path class="st4" d="M176.361,108.668h-21.015c-0.881,0-1.718-0.388-2.288-1.06c-0.57-0.672-0.816-1.561-0.672-2.43l2.649-16.024    c0.24-1.448,1.492-2.511,2.96-2.511h15.717c1.468,0,2.72,1.063,2.96,2.511l2.649,16.024c0.144,0.869-0.102,1.758-0.672,2.43    C178.079,108.28,177.242,108.668,176.361,108.668z M158.882,102.668h13.942l-1.657-10.024H160.54L158.882,102.668z"/></g><g><path class="st4" d="M115.223,157.198H65.07c-1.657,0-3-1.343-3-3c0-1.657,1.343-3,3-3h50.152c1.657,0,3,1.343,3,3    C118.223,155.855,116.879,157.198,115.223,157.198z"/></g><g><path class="st4" d="M190.93,157.198h-50.152c-1.657,0-3-1.343-3-3c0-1.657,1.343-3,3-3h50.152c1.657,0,3,1.343,3,3    C193.93,155.855,192.586,157.198,190.93,157.198z"/></g></g></svg>