<?xml version="1.0" ?><!DOCTYPE svg  PUBLIC '-//W3C//DTD SVG 1.1//EN'  'http://www.w3.org/Graphics/SVG/1.1/DTD/svg11.dtd'><svg id="Icon_Set" style="enable-background:new 0 0 256 256;" version="1.1" viewBox="0 0 256 256" xml:space="preserve" xmlns="http://www.w3.org/2000/svg" xmlns:xlink="http://www.w3.org/1999/xlink"><style type="text/css">
	.st0{fill:#484771;}
	.st1{fill:#F1C48B;}
	.st2{fill:#FD919F;}
	.st3{fill:#E0667D;}
	.st4{fill:#504774;}
	.st5{fill:#A0D1F2;}
	.st6{fill:#D4E7F8;}
	.st7{fill:#7BABF3;}
	.st8{fill:#4C4372;}
	.st9{fill:#D5E6F7;}
	.st10{fill:#FFFFFF;}
</style><g><g><circle class="st1" cx="128" cy="128" r="103.873"/></g><g><circle class="st6" cx="128" cy="128" r="79"/></g><g><path class="st5" d="M128,49c-3.011,0-5.978,0.185-8.901,0.513c39.438,4.424,70.099,37.868,70.099,78.487    c0,40.62-30.661,74.063-70.099,78.488c2.923,0.328,5.89,0.512,8.901,0.512c43.63,0,79-35.369,79-79C207,84.369,171.63,49,128,49z"/></g><g><path class="st4" d="M128,96.817c-26.168,0-50.851-4.233-66.028-11.324c-1.501-0.701-2.149-2.486-1.448-3.987    c0.701-1.502,2.485-2.15,3.988-1.448c14.421,6.737,38.155,10.76,63.488,10.76c25.332,0,49.066-4.022,63.488-10.76    c1.5-0.704,3.287-0.053,3.987,1.448c0.701,1.501,0.053,3.286-1.448,3.987C178.85,92.584,154.167,96.817,128,96.817z"/></g><g><path class="st4" d="M128,210c-45.215,0-82-36.785-82-82s36.785-82,82-82s82,36.785,82,82S173.215,210,128,210z M128,52    c-41.907,0-76,34.094-76,76c0,41.906,34.093,76,76,76c41.906,0,76-34.094,76-76C204,86.094,169.906,52,128,52z"/></g><g><path class="st4" d="M128,210c-11.986,0-23.091-8.797-31.269-24.771c-7.852-15.336-12.175-35.66-12.175-57.229    s4.324-41.893,12.175-57.229C104.909,54.797,116.014,46,128,46c11.986,0,23.091,8.797,31.269,24.771    c7.852,15.336,12.176,35.66,12.176,57.229s-4.324,41.893-12.176,57.229C151.091,201.203,139.986,210,128,210z M128,52    c-9.62,0-18.828,7.638-25.928,21.506C94.645,88.012,90.556,107.364,90.556,128s4.09,39.988,11.516,54.494    C109.172,196.362,118.38,204,128,204c9.62,0,18.828-7.638,25.928-21.506c7.427-14.506,11.517-33.858,11.517-54.494    s-4.09-39.988-11.517-54.494C146.828,59.638,137.62,52,128,52z"/></g><g><path class="st4" d="M128,210c-1.657,0-3-1.343-3-3V49c0-1.657,1.343-3,3-3c1.657,0,3,1.343,3,3v158    C131,208.657,129.657,210,128,210z"/></g><g><path class="st4" d="M207,131H49c-1.657,0-3-1.343-3-3c0-1.657,1.343-3,3-3h158c1.657,0,3,1.343,3,3    C210,129.657,208.657,131,207,131z"/></g><g><path class="st4" d="M192.756,176.226c-0.426,0-0.857-0.091-1.268-0.283c-14.422-6.737-38.156-10.76-63.488-10.76    c-25.333,0-49.067,4.022-63.488,10.76c-1.5,0.703-3.287,0.054-3.988-1.448c-0.702-1.501-0.053-3.286,1.448-3.987    c15.177-7.091,39.86-11.324,66.028-11.324c26.167,0,50.85,4.233,66.027,11.324c1.501,0.701,2.149,2.486,1.448,3.987    C194.967,175.585,193.885,176.226,192.756,176.226z"/></g><g><path class="st2" d="M128,168.107c-2.217,0-4.381-0.224-6.473-0.648v40.875c0,3.575,2.898,6.473,6.473,6.473    s6.473-2.898,6.473-6.473v-40.875C132.381,167.883,130.217,168.107,128,168.107z"/></g><g><circle class="st2" cx="128" cy="135.686" r="32.421"/></g><g><circle class="st10" cx="128" cy="135.686" r="22.015"/></g><g><path class="st4" d="M128,160.7c-13.793,0-25.015-11.222-25.015-25.015c0-13.793,11.222-25.015,25.015-25.015    s25.015,11.222,25.015,25.015C153.015,149.479,141.793,160.7,128,160.7z M128,116.671c-10.485,0-19.015,8.53-19.015,19.015    c0,10.484,8.53,19.015,19.015,19.015c10.484,0,19.015-8.53,19.015-19.015C147.015,125.201,138.484,116.671,128,116.671z"/></g><g><path class="st4" d="M128,217.807c-5.224,0-9.473-4.249-9.473-9.473v-40.875c0-0.9,0.404-1.753,1.101-2.322    c0.696-0.57,1.611-0.799,2.495-0.618c3.849,0.781,7.903,0.781,11.755,0c0.883-0.181,1.798,0.047,2.495,0.618    c0.696,0.569,1.101,1.422,1.101,2.322v40.875C137.474,213.558,133.224,217.807,128,217.807z M124.527,170.938v37.396    c0,1.915,1.558,3.473,3.473,3.473c1.915,0,3.474-1.558,3.474-3.473v-37.398C129.164,171.163,126.833,171.162,124.527,170.938z"/></g><g><path class="st4" d="M128,171.106c-19.531,0-35.421-15.89-35.421-35.421c0-19.53,15.89-35.42,35.421-35.42    c19.531,0,35.421,15.89,35.421,35.42C163.421,155.217,147.531,171.106,128,171.106z M128,106.266    c-16.223,0-29.421,13.197-29.421,29.42c0,16.223,13.198,29.421,29.421,29.421c16.223,0,29.421-13.198,29.421-29.421    C157.421,119.463,144.223,106.266,128,106.266z"/></g></g></svg>