<?xml version="1.0" ?><!DOCTYPE svg  PUBLIC '-//W3C//DTD SVG 1.1//EN'  'http://www.w3.org/Graphics/SVG/1.1/DTD/svg11.dtd'><svg id="Icon_Set" style="enable-background:new 0 0 256 256;" version="1.1" viewBox="0 0 256 256" xml:space="preserve" xmlns="http://www.w3.org/2000/svg" xmlns:xlink="http://www.w3.org/1999/xlink"><style type="text/css">
	.st0{fill:#484771;}
	.st1{fill:#F1C48B;}
	.st2{fill:#FD919F;}
	.st3{fill:#E0667D;}
	.st4{fill:#504774;}
	.st5{fill:#A0D1F2;}
	.st6{fill:#D4E7F8;}
	.st7{fill:#7BABF3;}
	.st8{fill:#4C4372;}
	.st9{fill:#D5E6F7;}
	.st10{fill:#FFFFFF;}
</style><g><g><circle class="st1" cx="128" cy="128" r="103.873"/></g><g><path class="st9" d="M206.796,129.23l-41.957-12.422H89.576H49.005c-6.034,0-10.925,4.891-10.925,10.925v21.391    c0,6.034,4.891,10.925,10.925,10.925h40.571h75.263h37.323c8.703,0,15.758-7.055,15.758-15.757l0,0    C217.92,137.373,213.408,131.264,206.796,129.23z"/></g><g><rect class="st5" height="43.241" width="11.98" x="136.75" y="116.808"/></g><g><rect class="st5" height="43.241" width="11.98" x="81.029" y="116.808"/></g><g><rect class="st2" height="12.485" width="110.65" x="38.08" y="137"/></g><g><rect class="st3" height="12.485" width="11.9" x="136.83" y="137"/></g><g><rect class="st3" height="12.485" width="11.9" x="81.109" y="137"/></g><g><path class="st4" d="M148.73,152.485H38.08c-1.657,0-3-1.343-3-3V137c0-1.657,1.343-3,3-3h110.65c1.657,0,3,1.343,3,3v12.485    C151.73,151.142,150.388,152.485,148.73,152.485z M41.08,146.485h104.65V140H41.08V146.485z"/></g><g><path class="st7" d="M164.839,116.808l-14.178-28.114c-1.022-2.027-3.099-3.306-5.37-3.306l0,0c-4.381,0-7.292,4.535-5.467,8.518    l10.49,22.901H164.839z"/></g><g><path class="st2" d="M78.221,116.808V90.154H70.1c-3.132,0-6.012,1.716-7.503,4.47L50.59,116.808H78.221z"/></g><g><path class="st10" d="M194.308,138.763c0,3.588,2.908,6.496,6.496,6.496h17.066c0.02-0.322,0.049-0.642,0.049-0.969    c0-4.737-2.117-9.094-5.575-12.024h-11.541C197.217,132.267,194.308,135.176,194.308,138.763L194.308,138.763z"/></g><g><path class="st4" d="M164.839,119.808h-14.524c-1.173,0-2.239-0.684-2.728-1.751l-10.49-22.901    c-1.284-2.805-1.057-6.028,0.609-8.624c1.666-2.595,4.502-4.145,7.586-4.145c3.424,0,6.508,1.899,8.048,4.956l14.178,28.112    c0.469,0.93,0.422,2.037-0.124,2.924C166.848,119.268,165.881,119.808,164.839,119.808z M152.24,113.808h7.726l-11.983-23.762    c-0.515-1.022-1.546-1.657-2.69-1.657c-1.047,0-1.971,0.505-2.536,1.386c-0.565,0.881-0.64,1.932-0.204,2.884L152.24,113.808z"/></g><g><path class="st4" d="M78.221,119.808H50.59c-1.057,0-2.036-0.556-2.577-1.464s-0.564-2.034-0.061-2.964l12.007-22.183    c2.018-3.727,5.904-6.043,10.142-6.043h8.121c1.657,0,3,1.343,3,3v26.653C81.221,118.464,79.877,119.808,78.221,119.808z     M55.625,113.808h19.596V93.154H70.1c-2.033,0-3.897,1.111-4.865,2.899L55.625,113.808z"/></g><g><path class="st4" d="M148.73,163.048H93.009c-1.657,0-3-1.343-3-3v-43.241c0-1.657,1.343-3,3-3h55.721c1.657,0,3,1.343,3,3v43.241    C151.73,161.705,150.388,163.048,148.73,163.048z M96.009,157.048h49.721v-37.241H96.009V157.048z"/></g><g><path class="st4" d="M217.871,148.26h-17.066c-5.236,0-9.496-4.26-9.496-9.497s4.26-9.496,9.496-9.496h11.54    c0.71,0,1.397,0.252,1.939,0.711c4.217,3.573,6.636,8.79,6.636,14.313c0,0.314-0.018,0.623-0.04,0.932l-0.015,0.219    C220.769,147.025,219.457,148.26,217.871,148.26z M200.805,135.267c-1.928,0-3.496,1.568-3.496,3.496    c0,1.928,1.568,3.497,3.496,3.497h13.953c-0.425-2.642-1.671-5.088-3.579-6.993H200.805z"/></g><g><path class="st4" d="M202.162,163.048H49.005c-7.678,0-13.925-6.246-13.925-13.925v-21.391c0-7.678,6.247-13.925,13.925-13.925    h115.834c0.288,0,0.575,0.041,0.852,0.124l41.957,12.422c7.951,2.446,13.272,9.651,13.272,17.938    C220.92,154.634,212.505,163.048,202.162,163.048z M49.005,119.808c-4.37,0-7.925,3.555-7.925,7.925v21.391    c0,4.37,3.555,7.925,7.925,7.925h153.157c7.035,0,12.758-5.723,12.758-12.757c0-5.636-3.619-10.536-9.006-12.194l-41.51-12.29    H49.005z"/></g><g><path class="st7" d="M93.801,170.612H59.999c-1.896,0-3.433-1.537-3.433-3.433v-14.26c0-1.896,1.537-3.433,3.433-3.433h33.802    c1.896,0,3.433,1.537,3.433,3.433v14.26C97.234,169.075,95.697,170.612,93.801,170.612z"/></g><g><path class="st7" d="M182.953,170.612H149.15c-1.896,0-3.433-1.537-3.433-3.433v-14.26c0-1.896,1.537-3.433,3.433-3.433h33.802    c1.896,0,3.433,1.537,3.433,3.433v14.26C186.386,169.075,184.849,170.612,182.953,170.612z"/></g><g><path class="st4" d="M93.801,173.612H59.999c-3.547,0-6.433-2.886-6.433-6.433v-14.261c0-3.547,2.886-6.433,6.433-6.433h33.802    c3.547,0,6.433,2.886,6.433,6.433v14.261C100.234,170.726,97.349,173.612,93.801,173.612z M59.999,152.485    c-0.239,0-0.433,0.194-0.433,0.433v14.261c0,0.239,0.194,0.433,0.433,0.433h33.802c0.239,0,0.433-0.194,0.433-0.433v-14.261    c0-0.239-0.194-0.433-0.433-0.433H59.999z"/></g><g><path class="st4" d="M182.953,173.612H149.15c-3.548,0-6.434-2.886-6.434-6.433v-14.261c0-3.547,2.886-6.433,6.434-6.433h33.803    c3.547,0,6.433,2.886,6.433,6.433v14.261C189.386,170.726,186.5,173.612,182.953,173.612z M149.15,152.485    c-0.239,0-0.434,0.194-0.434,0.433v14.261c0,0.239,0.194,0.433,0.434,0.433h33.803c0.238,0,0.433-0.194,0.433-0.433v-14.261    c0-0.239-0.194-0.433-0.433-0.433H149.15z"/></g><g><path class="st4" d="M157.333,196.667H126c-1.657,0-3-1.343-3-3c0-1.657,1.343-3,3-3h31.333c1.657,0,3,1.343,3,3    C160.333,195.323,158.99,196.667,157.333,196.667z"/></g><g><path class="st4" d="M180.333,196.667h-11c-1.657,0-3-1.343-3-3c0-1.657,1.343-3,3-3h11c1.657,0,3,1.343,3,3    C183.333,195.323,181.99,196.667,180.333,196.667z"/></g><g><path class="st4" d="M105.387,78H74.054c-1.657,0-3-1.343-3-3s1.343-3,3-3h31.333c1.657,0,3,1.343,3,3S107.044,78,105.387,78z"/></g><g><path class="st4" d="M62.054,78h-11c-1.657,0-3-1.343-3-3s1.343-3,3-3h11c1.657,0,3,1.343,3,3S63.711,78,62.054,78z"/></g></g></svg>