<?xml version="1.0" ?><!DOCTYPE svg  PUBLIC '-//W3C//DTD SVG 1.1//EN'  'http://www.w3.org/Graphics/SVG/1.1/DTD/svg11.dtd'><svg id="Icon_Set" style="enable-background:new 0 0 256 256;" version="1.1" viewBox="0 0 256 256" xml:space="preserve" xmlns="http://www.w3.org/2000/svg" xmlns:xlink="http://www.w3.org/1999/xlink"><style type="text/css">
	.st0{fill:#484771;}
	.st1{fill:#F1C48B;}
	.st2{fill:#FD919F;}
	.st3{fill:#E0667D;}
	.st4{fill:#504774;}
	.st5{fill:#A0D1F2;}
	.st6{fill:#D4E7F8;}
	.st7{fill:#7BABF3;}
	.st8{fill:#4C4372;}
	.st9{fill:#D5E6F7;}
	.st10{fill:#FFFFFF;}
</style><g><g><circle class="st1" cx="128" cy="128" r="103.873"/></g><g><circle class="st2" cx="128" cy="128" r="29.418"/></g><g><path class="st3" d="M128,98.582c-1.822,0-3.603,0.174-5.333,0.491c13.699,2.51,24.084,14.502,24.084,28.926    s-10.385,26.416-24.084,28.926c1.731,0.317,3.511,0.491,5.333,0.491c16.247,0,29.418-13.171,29.418-29.418    S144.247,98.582,128,98.582z"/></g><g><path class="st4" d="M128,215c-47.972,0-87-39.028-87-87s39.028-87,87-87s87,39.028,87,87S175.972,215,128,215z M128,47    c-44.664,0-81,36.336-81,81s36.336,81,81,81s81-36.336,81-81S172.664,47,128,47z"/></g><g><path class="st4" d="M128,193.025c-35.855,0-65.025-29.17-65.025-65.025S92.145,62.975,128,62.975s65.025,29.17,65.025,65.025    S163.855,193.025,128,193.025z M128,68.975c-32.547,0-59.025,26.479-59.025,59.025S95.453,187.025,128,187.025    s59.025-26.479,59.025-59.025S160.547,68.975,128,68.975z"/></g><g><path class="st4" d="M128,160.417c-17.875,0-32.418-14.542-32.418-32.417S110.125,95.582,128,95.582s32.417,14.543,32.417,32.418    S145.875,160.417,128,160.417z M128,101.582c-14.566,0-26.418,11.851-26.418,26.418s11.851,26.417,26.418,26.417    c14.566,0,26.417-11.851,26.417-26.417S142.566,101.582,128,101.582z"/></g><g><path class="st4" d="M128,101.582c-1.657,0-3-1.343-3-3v-8.506c0-1.657,1.343-3,3-3c1.657,0,3,1.343,3,3v8.506    C131,100.239,129.657,101.582,128,101.582z"/></g><g><path class="st4" d="M128,168.924c-1.657,0-3-1.343-3-3v-8.506c0-1.657,1.343-3,3-3c1.657,0,3,1.343,3,3v8.506    C131,167.581,129.657,168.924,128,168.924z"/></g><g><path class="st4" d="M165.924,131h-8.506c-1.657,0-3-1.343-3-3c0-1.657,1.343-3,3-3h8.506c1.657,0,3,1.343,3,3    C168.924,129.657,167.581,131,165.924,131z"/></g><g><path class="st4" d="M98.582,131h-8.506c-1.657,0-3-1.343-3-3c0-1.657,1.343-3,3-3h8.506c1.657,0,3,1.343,3,3    C101.582,129.657,100.239,131,98.582,131z"/></g><g><path class="st4" d="M148.801,110.199c-0.768,0-1.536-0.293-2.121-0.879c-1.172-1.171-1.172-3.071,0-4.242l6.015-6.015    c1.171-1.172,3.071-1.172,4.242,0c1.172,1.171,1.172,3.071,0,4.242l-6.015,6.015C150.337,109.906,149.569,110.199,148.801,110.199    z"/></g><g><path class="st4" d="M101.184,157.816c-0.768,0-1.536-0.293-2.121-0.879c-1.172-1.171-1.172-3.071,0-4.242l6.015-6.015    c1.171-1.172,3.071-1.172,4.242,0c1.172,1.171,1.172,3.071,0,4.242l-6.015,6.015C102.719,157.523,101.951,157.816,101.184,157.816    z"/></g><g><path class="st4" d="M154.816,157.816c-0.768,0-1.536-0.293-2.121-0.879l-6.015-6.015c-1.172-1.171-1.172-3.071,0-4.242    c1.171-1.172,3.071-1.172,4.242,0l6.015,6.015c1.172,1.171,1.172,3.071,0,4.242C156.352,157.523,155.584,157.816,154.816,157.816z    "/></g><g><path class="st4" d="M107.199,110.199c-0.767,0-1.536-0.293-2.121-0.879l-6.015-6.015c-1.172-1.171-1.172-3.071,0-4.242    c1.171-1.172,3.071-1.172,4.242,0l6.015,6.015c1.172,1.171,1.172,3.071,0,4.242C108.734,109.906,107.966,110.199,107.199,110.199z    "/></g><g><circle class="st5" cx="67.038" cy="117.996" r="11.262"/></g><g><path class="st4" d="M67.038,132.258c-7.864,0-14.262-6.398-14.262-14.262s6.398-14.262,14.262-14.262    c7.864,0,14.262,6.398,14.262,14.262S74.902,132.258,67.038,132.258z M67.038,109.734c-4.556,0-8.262,3.706-8.262,8.262    s3.706,8.262,8.262,8.262s8.262-3.706,8.262-8.262S71.594,109.734,67.038,109.734z"/></g><g><circle class="st3" cx="185.595" cy="65.975" r="11.262"/></g><g><path class="st4" d="M185.595,80.237c-7.864,0-14.262-6.398-14.262-14.262c0-7.864,6.398-14.262,14.262-14.262    c7.864,0,14.262,6.398,14.262,14.262C199.857,73.839,193.459,80.237,185.595,80.237z M185.595,57.713    c-4.556,0-8.262,3.706-8.262,8.262c0,4.556,3.706,8.262,8.262,8.262c4.556,0,8.262-3.707,8.262-8.262    C193.857,61.419,190.15,57.713,185.595,57.713z"/></g><g><circle class="st2" cx="155.911" cy="183.557" r="11.262"/></g><g><path class="st4" d="M155.912,197.819c-7.864,0-14.262-6.398-14.262-14.262c0-7.864,6.398-14.262,14.262-14.262    c7.864,0,14.262,6.398,14.262,14.262C170.173,191.421,163.775,197.819,155.912,197.819z M155.912,175.295    c-4.556,0-8.262,3.707-8.262,8.262c0,4.556,3.707,8.262,8.262,8.262c4.556,0,8.262-3.706,8.262-8.262    C164.173,179.001,160.467,175.295,155.912,175.295z"/></g></g></svg>