<?xml version="1.0" ?><!DOCTYPE svg  PUBLIC '-//W3C//DTD SVG 1.1//EN'  'http://www.w3.org/Graphics/SVG/1.1/DTD/svg11.dtd'><svg id="Icon_Set" style="enable-background:new 0 0 256 256;" version="1.1" viewBox="0 0 256 256" xml:space="preserve" xmlns="http://www.w3.org/2000/svg" xmlns:xlink="http://www.w3.org/1999/xlink"><style type="text/css">
	.st0{fill:#484771;}
	.st1{fill:#F1C48B;}
	.st2{fill:#FD919F;}
	.st3{fill:#E0667D;}
	.st4{fill:#504774;}
	.st5{fill:#A0D1F2;}
	.st6{fill:#D4E7F8;}
	.st7{fill:#7BABF3;}
	.st8{fill:#4C4372;}
	.st9{fill:#D5E6F7;}
	.st10{fill:#FFFFFF;}
</style><g><g><circle class="st1" cx="128" cy="128" r="103.873"/></g><g><path class="st7" d="M196.189,151.82H59.811V67.785c0-3.748,3.038-6.786,6.786-6.786h122.806c3.748,0,6.786,3.038,6.786,6.786    V151.82z"/></g><g><circle class="st6" cx="85.906" cy="84.543" r="7.51"/></g><g><circle class="st5" cx="121.904" cy="97.567" r="7.51"/></g><g><circle class="st6" cx="84.045" cy="113.071" r="5.649"/></g><g><circle class="st2" cx="168.298" cy="94.796" r="14.091"/></g><g><polygon class="st6" points="155.791,133.131 163.917,151.82 196.189,151.82 196.189,133.131   "/></g><g><rect class="st6" height="43.18" width="136.378" x="59.811" y="151.82"/></g><g><rect class="st5" height="43.18" width="11.759" x="184.43" y="151.82"/></g><g><rect class="st5" height="18.69" width="11.759" x="184.43" y="133.131"/></g><g><rect class="st5" height="43.18" width="71.834" x="92.083" y="151.82"/></g><g><rect class="st7" height="43.18" width="10.247" x="153.67" y="151.82"/></g><g><rect class="st6" height="25.135" width="31.092" x="112.454" y="169.866"/></g><g><polygon class="st6" points="59.811,133.131 59.811,151.82 92.083,151.82 100.209,133.131   "/></g><g><polygon class="st6" points="113,74.484 143,74.484 151.115,61 104.884,61   "/></g><g><polygon class="st2" points="151.307,122.819 104.692,122.819 92.083,151.82 163.917,151.82   "/></g><g><path class="st8" d="M196.188,154.82H59.811c-1.657,0-3-1.343-3-3V67.786c0-5.396,4.39-9.786,9.786-9.786h122.807    c5.396,0,9.785,4.39,9.785,9.786v84.035C199.188,153.477,197.846,154.82,196.188,154.82z M62.811,148.82h130.377V67.786    c0-2.087-1.698-3.786-3.785-3.786H66.597c-2.087,0-3.786,1.698-3.786,3.786V148.82z"/></g><g><path class="st8" d="M196.188,198H59.811c-1.657,0-3-1.343-3-3v-43.18c0-1.657,1.343-3,3-3h136.377c1.657,0,3,1.343,3,3V195    C199.188,196.657,197.846,198,196.188,198z M62.811,192h130.377v-37.18H62.811V192z"/></g><g><path class="st8" d="M163.917,198H92.083c-1.657,0-3-1.343-3-3v-43.18c0-1.657,1.343-3,3-3h71.834c1.657,0,3,1.343,3,3V195    C166.917,196.657,165.574,198,163.917,198z M95.083,192h65.834v-37.18H95.083V192z"/></g><g><path class="st8" d="M143.546,198h-31.092c-1.657,0-3-1.343-3-3v-25.134c0-1.657,1.343-3,3-3h31.092c1.657,0,3,1.343,3,3V195    C146.546,196.657,145.203,198,143.546,198z M115.454,192h25.092v-19.134h-25.092V192z"/></g><g><path class="st8" d="M196.188,154.82h-32.271c-1.194,0-2.275-0.708-2.751-1.804l-8.126-18.689    c-0.403-0.927-0.313-1.996,0.242-2.841c0.555-0.846,1.498-1.355,2.509-1.355h40.397c1.657,0,3,1.343,3,3v18.689    C199.188,153.477,197.846,154.82,196.188,154.82z M165.884,148.82h27.305v-12.689h-32.822L165.884,148.82z"/></g><g><path class="st8" d="M92.083,154.82H59.811c-1.657,0-3-1.343-3-3v-18.689c0-1.657,1.343-3,3-3h40.398    c1.011,0,1.955,0.509,2.509,1.355c0.555,0.846,0.646,1.914,0.242,2.841l-8.126,18.689C94.358,154.112,93.277,154.82,92.083,154.82    z M62.811,148.82h27.305l5.517-12.689H62.811V148.82z"/></g><g><path class="st8" d="M163.917,154.82H92.083c-1.011,0-1.955-0.509-2.509-1.355c-0.555-0.846-0.646-1.914-0.242-2.841    l12.609-29.001c0.476-1.095,1.557-1.804,2.751-1.804h46.615c1.194,0,2.275,0.709,2.751,1.804l12.609,29.001    c0.403,0.927,0.312,1.996-0.242,2.841S164.928,154.82,163.917,154.82z M96.659,148.82h62.683l-10.001-23.001h-42.682    L96.659,148.82z"/></g><g><path class="st8" d="M143,77.484h-30.001c-1.052,0-2.028-0.551-2.57-1.453l-8.115-13.484c-0.558-0.927-0.574-2.082-0.042-3.024    c0.532-0.941,1.53-1.523,2.612-1.523h46.231c1.082,0,2.079,0.582,2.611,1.523c0.532,0.942,0.517,2.097-0.041,3.024l-8.115,13.484    C145.027,76.933,144.053,77.484,143,77.484z M114.695,71.484h26.608L145.809,64h-35.617L114.695,71.484z"/></g><g><path class="st8" d="M85.906,95.053c-5.795,0-10.51-4.715-10.51-10.51c0-5.795,4.715-10.51,10.51-10.51    c5.795,0,10.51,4.715,10.51,10.51C96.416,90.338,91.702,95.053,85.906,95.053z M85.906,80.033c-2.487,0-4.51,2.023-4.51,4.51    s2.023,4.51,4.51,4.51c2.487,0,4.51-2.023,4.51-4.51S88.393,80.033,85.906,80.033z"/></g><g><path class="st8" d="M121.904,108.077c-5.795,0-10.51-4.715-10.51-10.51c0-5.795,4.715-10.51,10.51-10.51    c5.795,0,10.51,4.715,10.51,10.51C132.414,103.362,127.699,108.077,121.904,108.077z M121.904,93.057    c-2.487,0-4.51,2.023-4.51,4.51s2.023,4.51,4.51,4.51c2.487,0,4.51-2.023,4.51-4.51S124.391,93.057,121.904,93.057z"/></g><g><path class="st8" d="M84.045,121.72c-4.769,0-8.649-3.88-8.649-8.649s3.88-8.649,8.649-8.649c4.769,0,8.648,3.88,8.648,8.649    S88.814,121.72,84.045,121.72z M84.045,110.422c-1.46,0-2.649,1.188-2.649,2.649c0,1.461,1.189,2.649,2.649,2.649    c1.46,0,2.648-1.188,2.648-2.649C86.694,111.61,85.506,110.422,84.045,110.422z"/></g><g><path class="st8" d="M168.298,111.888c-4.566,0-8.857-1.778-12.085-5.006c-6.664-6.664-6.664-17.507,0-24.17    c3.228-3.229,7.52-5.006,12.085-5.006c4.565,0,8.857,1.778,12.085,5.006c3.229,3.228,5.007,7.52,5.007,12.086    c0,4.565-1.778,8.857-5.007,12.085C177.155,110.11,172.863,111.888,168.298,111.888z M168.298,83.705    c-2.963,0-5.748,1.154-7.843,3.249c-4.324,4.325-4.324,11.361,0,15.686c2.095,2.095,4.88,3.249,7.843,3.249    c2.963,0,5.748-1.154,7.843-3.249c2.095-2.095,3.249-4.88,3.249-7.843c0-2.963-1.154-5.748-3.249-7.843    C174.046,84.858,171.261,83.705,168.298,83.705z"/></g><g><path class="st8" d="M155.672,110.422c-0.768,0-1.535-0.293-2.121-0.879c-1.172-1.171-1.172-3.071,0-4.242l25.252-25.252    c1.172-1.172,3.07-1.172,4.242,0c1.172,1.171,1.172,3.071,0,4.242l-25.252,25.252    C157.207,110.129,156.439,110.422,155.672,110.422z"/></g><g><path class="st8" d="M72.083,145.476H67.25c-1.657,0-3-1.343-3-3c0-1.657,1.343-3,3-3h4.833c1.657,0,3,1.343,3,3    C75.083,144.132,73.74,145.476,72.083,145.476z"/></g><g><path class="st8" d="M85.531,145.476h-4.834c-1.657,0-3-1.343-3-3c0-1.657,1.343-3,3-3h4.834c1.657,0,3,1.343,3,3    C88.531,144.132,87.188,145.476,85.531,145.476z"/></g><g><path class="st8" d="M173.588,145.476h-4.834c-1.657,0-3-1.343-3-3c0-1.657,1.343-3,3-3h4.834c1.657,0,3,1.343,3,3    C176.588,144.132,175.245,145.476,173.588,145.476z"/></g><g><path class="st8" d="M187.036,145.476h-4.834c-1.657,0-3-1.343-3-3c0-1.657,1.343-3,3-3h4.834c1.657,0,3,1.343,3,3    C190.036,144.132,188.693,145.476,187.036,145.476z"/></g><g><circle class="st8" cx="144.974" cy="130.323" r="2.635"/></g><g><circle class="st8" cx="147.296" cy="137.497" r="2.635"/></g><g><circle class="st8" cx="149.618" cy="144.671" r="2.635"/></g></g></svg>