<?xml version="1.0" ?><!DOCTYPE svg  PUBLIC '-//W3C//DTD SVG 1.1//EN'  'http://www.w3.org/Graphics/SVG/1.1/DTD/svg11.dtd'><svg id="Icon_Set" style="enable-background:new 0 0 256 256;" version="1.1" viewBox="0 0 256 256" xml:space="preserve" xmlns="http://www.w3.org/2000/svg" xmlns:xlink="http://www.w3.org/1999/xlink"><style type="text/css">
	.st0{fill:#484771;}
	.st1{fill:#F1C48B;}
	.st2{fill:#FD919F;}
	.st3{fill:#E0667D;}
	.st4{fill:#504774;}
	.st5{fill:#A0D1F2;}
	.st6{fill:#D4E7F8;}
	.st7{fill:#7BABF3;}
	.st8{fill:#4C4372;}
	.st9{fill:#D5E6F7;}
	.st10{fill:#FFFFFF;}
</style><g><g><circle class="st1" cx="128" cy="128" r="103.873"/></g><g><circle class="st6" cx="128" cy="128" r="79"/></g><g><path class="st5" d="M128,49c-3.011,0-5.978,0.185-8.901,0.513c39.438,4.424,70.099,37.868,70.099,78.487    c0,40.62-30.661,74.063-70.099,78.488c2.923,0.328,5.89,0.512,8.901,0.512c43.63,0,79-35.369,79-79C207,84.369,171.63,49,128,49z"/></g><g><path class="st4" d="M128,96.817c-26.169,0-50.853-4.233-66.028-11.324c-1.501-0.701-2.149-2.487-1.448-3.988    c0.701-1.501,2.486-2.149,3.988-1.448c14.419,6.737,38.153,10.76,63.488,10.76s49.069-4.022,63.488-10.76    c1.501-0.702,3.287-0.054,3.988,1.448c0.702,1.501,0.053,3.287-1.448,3.988C178.853,92.584,154.169,96.817,128,96.817z"/></g><g><path class="st4" d="M128,210c-45.215,0-82-36.785-82-82s36.785-82,82-82s82,36.785,82,82S173.215,210,128,210z M128,52    c-41.907,0-76,34.093-76,76s34.093,76,76,76s76-34.093,76-76S169.907,52,128,52z"/></g><g><path class="st4" d="M128,210c-11.986,0-23.091-8.797-31.269-24.771C88.879,169.892,84.556,149.568,84.556,128    s4.324-41.892,12.175-57.229C104.909,54.797,116.014,46,128,46s23.091,8.797,31.269,24.771    c7.852,15.336,12.175,35.661,12.175,57.229s-4.324,41.892-12.175,57.229C151.091,201.203,139.986,210,128,210z M128,52    c-9.62,0-18.828,7.638-25.928,21.506C94.646,88.012,90.556,107.365,90.556,128s4.09,39.988,11.516,54.494    C109.172,196.362,118.38,204,128,204s18.828-7.638,25.928-21.506c7.426-14.506,11.516-33.859,11.516-54.494    s-4.09-39.988-11.516-54.494C146.828,59.638,137.62,52,128,52z"/></g><g><path class="st4" d="M128,210c-1.657,0-3-1.343-3-3V49c0-1.657,1.343-3,3-3c1.657,0,3,1.343,3,3v158    C131,208.657,129.657,210,128,210z"/></g><g><path class="st4" d="M207,131H49c-1.657,0-3-1.343-3-3c0-1.657,1.343-3,3-3h158c1.657,0,3,1.343,3,3    C210,129.657,208.657,131,207,131z"/></g><g><path class="st4" d="M192.756,176.226c-0.425,0-0.857-0.091-1.268-0.283c-14.419-6.737-38.153-10.76-63.488-10.76    s-49.069,4.022-63.488,10.76c-1.501,0.702-3.286,0.054-3.988-1.448c-0.702-1.501-0.053-3.287,1.448-3.988    c15.175-7.091,39.858-11.324,66.028-11.324s50.853,4.233,66.028,11.324c1.501,0.701,2.149,2.487,1.448,3.988    C194.966,175.585,193.885,176.226,192.756,176.226z"/></g><g><path class="st2" d="M128,106.364c-28.06,0-50.806,22.747-50.806,50.806v31.309C90.93,200.031,108.648,207,128,207    s37.07-6.969,50.806-18.52v-31.309C178.806,129.111,156.06,106.364,128,106.364z"/></g><g><path class="st4" d="M128,210c-19.266,0-37.995-6.827-52.737-19.225c-0.678-0.57-1.069-1.41-1.069-2.296v-31.309    c0-29.669,24.138-53.807,53.807-53.807s53.806,24.138,53.806,53.807v31.309c0,0.886-0.391,1.726-1.069,2.296    C165.995,203.173,147.266,210,128,210z M80.193,187.066C93.687,197.997,110.607,204,128,204s34.313-6.003,47.806-16.934v-29.895    c0-26.361-21.446-47.807-47.806-47.807c-26.361,0-47.807,21.446-47.807,47.807V187.066z"/></g><path class="st6" d="M165.567,140.249c-0.277-1.038-1.087-1.848-2.125-2.125c-2.577-0.688-5.238-1.037-7.911-1.037   c-8.158,0-15.825,3.175-21.591,8.941c-7.682,7.682-10.711,18.986-7.904,29.501c0.277,1.038,1.087,1.848,2.125,2.125   c2.576,0.688,5.238,1.036,7.91,1.037h0.001c8.156,0,15.824-3.175,21.589-8.941C165.345,162.068,168.373,150.764,165.567,140.249z"/><path class="st6" d="M122.059,146.028c-5.766-5.766-13.433-8.941-21.591-8.941c-2.672,0-5.334,0.349-7.911,1.037   c-1.038,0.277-1.848,1.087-2.125,2.125c-2.806,10.516,0.223,21.82,7.905,29.501c5.765,5.766,13.433,8.941,21.59,8.941   c2.672,0,5.334-0.349,7.911-1.037c1.038-0.277,1.848-1.087,2.125-2.125C132.769,165.014,129.741,153.71,122.059,146.028z"/><g><path class="st4" d="M128,210c-1.657,0-3-1.343-3-3v-39.779c0-1.657,1.343-3,3-3c1.657,0,3,1.343,3,3V207    C131,208.657,129.657,210,128,210z"/></g><g><path class="st4" d="M136.073,178.691h-0.001c-2.672-0.001-5.334-0.349-7.91-1.037c-1.038-0.277-1.848-1.087-2.125-2.125    c-2.807-10.515,0.222-21.819,7.904-29.501c5.766-5.766,13.433-8.941,21.591-8.941c2.672,0,5.334,0.349,7.911,1.037    c1.038,0.277,1.848,1.087,2.125,2.125c2.806,10.516-0.223,21.82-7.905,29.501C151.897,175.516,144.229,178.691,136.073,178.691z     M131.438,172.252c1.524,0.291,3.077,0.438,4.634,0.439c6.554,0,12.715-2.551,17.348-7.184c5.753-5.753,8.258-14.038,6.745-21.982    c-1.525-0.292-3.077-0.439-4.634-0.439c-6.555,0-12.716,2.551-17.349,7.184C132.43,156.024,129.925,164.309,131.438,172.252z"/></g><g><path class="st4" d="M119.928,178.691c-8.158,0-15.825-3.175-21.59-8.941c-7.682-7.682-10.711-18.986-7.905-29.501    c0.277-1.038,1.087-1.848,2.125-2.125c2.577-0.688,5.238-1.037,7.911-1.037c8.158,0,15.825,3.175,21.591,8.941    c7.682,7.682,10.71,18.986,7.904,29.501c-0.277,1.038-1.087,1.848-2.125,2.125C125.262,178.342,122.6,178.691,119.928,178.691z     M95.835,143.525c-1.513,7.944,0.992,16.229,6.745,21.982c4.632,4.632,10.793,7.183,17.348,7.183c1.557,0,3.109-0.147,4.634-0.439    c1.513-7.943-0.992-16.228-6.745-21.982c-4.632-4.632-10.794-7.184-17.348-7.184C98.911,143.087,97.359,143.234,95.835,143.525z"/></g></g></svg>