<?xml version="1.0" ?><!DOCTYPE svg  PUBLIC '-//W3C//DTD SVG 1.1//EN'  'http://www.w3.org/Graphics/SVG/1.1/DTD/svg11.dtd'><svg id="Icon_Set" style="enable-background:new 0 0 256 256;" version="1.1" viewBox="0 0 256 256" xml:space="preserve" xmlns="http://www.w3.org/2000/svg" xmlns:xlink="http://www.w3.org/1999/xlink"><style type="text/css">
	.st0{fill:#484771;}
	.st1{fill:#F1C48B;}
	.st2{fill:#FD919F;}
	.st3{fill:#E0667D;}
	.st4{fill:#504774;}
	.st5{fill:#A0D1F2;}
	.st6{fill:#D4E7F8;}
	.st7{fill:#7BABF3;}
	.st8{fill:#4C4372;}
	.st9{fill:#D5E6F7;}
	.st10{fill:#FFFFFF;}
</style><g><g><circle class="st1" cx="128" cy="128" r="104.245"/></g><g><polygon class="st2" points="86.125,165.366 112.19,146.43 131.493,146.43 142.225,157.162 155.771,157.162 169.425,170.816     169.425,202.334 162.446,209.313 150.916,209.313 142.728,217.5 114.498,217.5 107.219,210.221 93.255,210.221 86.125,203.091       "/></g><g><path class="st5" d="M148.134,132.14h-40.619c-3.232,0-5.853-2.62-5.853-5.853v-28.88c0-3.232,2.62-5.853,5.853-5.853h40.619    c3.232,0,5.853,2.62,5.853,5.853v28.88C153.987,129.52,151.366,132.14,148.134,132.14z"/></g><g><polygon class="st3" points="155.771,157.162 142.225,157.162 141.871,156.809 142.046,157.162 155.699,170.815 155.699,202.334     148.721,209.313 146.501,213.727 150.916,209.313 162.446,209.313 169.425,202.334 169.425,170.815   "/></g><g><circle class="st3" cx="153.987" cy="192.66" r="5.256"/></g><g><circle class="st3" cx="135.659" cy="172.447" r="5.256"/></g><g><circle class="st3" cx="106.793" cy="191.66" r="5.256"/></g><g><rect class="st6" height="53.054" width="29.585" x="113.032" y="38.5"/></g><g><rect class="st5" height="53.054" width="10.706" x="131.91" y="38.5"/></g><g><path class="st7" d="M148.134,91.554h-9.608c3.232,0,5.853,2.62,5.853,5.853v28.88c0,3.232-2.62,5.853-5.853,5.853h9.608    c3.232,0,5.853-2.62,5.853-5.853v-28.88C153.987,94.174,151.366,91.554,148.134,91.554z"/></g><g><path class="st6" d="M60.856,159.335c-2.338,0-4.576-0.422-6.646-1.191L66.468,188c2.152,5.242,8.147,7.747,13.389,5.594l0,0    c5.242-2.152,7.747-8.147,5.595-13.389l-10.935-26.631C71.05,157.127,66.212,159.335,60.856,159.335z"/></g><g><path class="st5" d="M195.144,159.335c-5.484,0-10.425-2.316-13.907-6.018l-11.041,26.888c-2.153,5.242,0.352,11.237,5.595,13.389    h0c5.242,2.152,11.236-0.352,13.389-5.594l12.2-29.712C199.425,158.964,197.329,159.335,195.144,159.335z"/></g><g><path class="st5" d="M172.744,101.818h-18.758v20.521h10.257l12.57,12.569c2.051-7.06,8.065-12.433,15.478-13.544L172.744,101.818    z"/></g><g><path class="st6" d="M101.661,101.818H82.904l-19.507,19.507c7.458,0.993,13.556,6.286,15.712,13.309l12.296-12.295h10.257    V101.818z"/></g><g><circle class="st7" cx="60.856" cy="140.244" r="19.092"/></g><g><circle class="st7" cx="195.144" cy="140.244" r="19.092"/></g><g><circle class="st6" cx="60.856" cy="140.244" r="8.104"/></g><g><circle class="st6" cx="195.144" cy="140.244" r="8.104"/></g><g><path class="st2" d="M139.303,116.922h-22.959c-2.803,0-5.075-2.272-5.075-5.075l0,0c0-2.803,2.272-5.075,5.075-5.075h22.959    c2.803,0,5.075,2.272,5.075,5.075l0,0C144.378,114.65,142.106,116.922,139.303,116.922z"/></g><g><path class="st4" d="M139.304,119.922h-22.959c-4.453,0-8.075-3.622-8.075-8.075c0-4.453,3.623-8.075,8.075-8.075h22.959    c4.453,0,8.075,3.622,8.075,8.075C147.379,116.3,143.757,119.922,139.304,119.922z M116.345,109.771    c-1.144,0-2.075,0.931-2.075,2.075c0,1.145,0.931,2.075,2.075,2.075h22.959c1.145,0,2.075-0.931,2.075-2.075    c0-1.145-0.931-2.075-2.075-2.075H116.345z"/></g><g><path class="st4" d="M60.856,151.348c-6.123,0-11.104-4.982-11.104-11.105c0-6.122,4.981-11.104,11.104-11.104    c6.122,0,11.103,4.981,11.103,11.104C71.959,146.366,66.978,151.348,60.856,151.348z M60.856,135.14    c-2.814,0-5.104,2.289-5.104,5.104c0,2.814,2.29,5.105,5.104,5.105c2.814,0,5.103-2.29,5.103-5.105    C65.959,137.429,63.67,135.14,60.856,135.14z"/></g><g><path class="st4" d="M195.144,151.348c-6.123,0-11.104-4.982-11.104-11.105c0-6.122,4.981-11.104,11.104-11.104    c6.122,0,11.104,4.981,11.104,11.104C206.248,146.366,201.267,151.348,195.144,151.348z M195.144,135.14    c-2.814,0-5.104,2.289-5.104,5.104c0,2.814,2.29,5.105,5.104,5.105c2.815,0,5.104-2.29,5.104-5.105    C200.248,137.429,197.959,135.14,195.144,135.14z"/></g><g><path class="st4" d="M75.964,197.366c-5.403,0-10.219-3.229-12.271-8.227l-12.259-29.855c-0.452-1.103-0.21-2.368,0.618-3.225    c0.828-0.857,2.085-1.142,3.202-0.728c1.792,0.666,3.677,1.003,5.602,1.003c4.369,0,8.458-1.725,11.514-4.857    c0.705-0.723,1.727-1.043,2.719-0.85c0.992,0.193,1.82,0.871,2.204,1.806l10.935,26.631c1.345,3.276,1.334,6.881-0.031,10.149    c-1.366,3.269-3.922,5.81-7.199,7.155C79.387,197.031,77.693,197.366,75.964,197.366z M59.146,162.27l10.097,24.591    c1.124,2.737,3.762,4.506,6.721,4.506c0.943,0,1.87-0.184,2.753-0.547c1.794-0.736,3.194-2.128,3.942-3.917    c0.748-1.79,0.753-3.764,0.017-5.558l-9.379-22.841c-3.637,2.492-7.931,3.831-12.442,3.831    C60.283,162.335,59.713,162.314,59.146,162.27z"/></g><g><path class="st4" d="M60.856,162.335c-12.182,0-22.092-9.91-22.092-22.092c0-12.182,9.91-22.092,22.092-22.092    c12.182,0,22.092,9.91,22.092,22.092C82.948,152.425,73.038,162.335,60.856,162.335z M60.856,124.151    c-8.873,0-16.092,7.219-16.092,16.092c0,8.873,7.219,16.092,16.092,16.092c8.873,0,16.092-7.219,16.092-16.092    C76.948,131.37,69.729,124.151,60.856,124.151z"/></g><g><path class="st4" d="M179.685,197.366c-1.729,0-3.423-0.335-5.033-0.996c-3.276-1.346-5.833-3.887-7.199-7.155    c-1.365-3.268-1.376-6.873-0.031-10.149l11.041-26.889c0.388-0.943,1.228-1.625,2.23-1.811c1.005-0.183,2.032,0.152,2.73,0.895    c3.077,3.273,7.239,5.074,11.722,5.074c1.793,0,3.562-0.297,5.255-0.882c1.114-0.387,2.352-0.083,3.161,0.774    c0.81,0.858,1.042,2.109,0.595,3.2l-12.2,29.712C189.903,194.137,185.087,197.366,179.685,197.366z M182.434,158.302    l-9.462,23.043c-1.521,3.704,0.255,7.954,3.959,9.475c0.884,0.363,1.809,0.547,2.754,0.547c2.958,0,5.596-1.768,6.72-4.506    l10.088-24.566C191.497,162.602,186.495,161.154,182.434,158.302z"/></g><g><path class="st4" d="M195.144,162.335c-12.182,0-22.093-9.91-22.093-22.092c0-12.182,9.911-22.092,22.093-22.092    c12.182,0,22.092,9.91,22.092,22.092C217.236,152.425,207.326,162.335,195.144,162.335z M195.144,124.151    c-8.874,0-16.093,7.219-16.093,16.092c0,8.873,7.219,16.092,16.093,16.092c8.873,0,16.092-7.219,16.092-16.092    C211.236,131.37,204.018,124.151,195.144,124.151z"/></g><g><path class="st4" d="M176.813,137.908c-0.785,0-1.552-0.309-2.121-0.879l-11.69-11.689h-9.016c-1.657,0-3-1.343-3-3v-20.521    c0-1.657,1.343-3,3-3h18.758c0.796,0,1.559,0.316,2.121,0.879l19.547,19.547c0.801,0.801,1.083,1.984,0.729,3.061    c-0.355,1.075-1.285,1.859-2.405,2.027c-6.176,0.925-11.295,5.405-13.041,11.413c-0.296,1.019-1.107,1.805-2.135,2.069    C177.312,137.877,177.062,137.908,176.813,137.908z M156.986,119.34h7.258c0.796,0,1.559,0.317,2.121,0.879l9.408,9.407    c2.398-4.367,6.219-7.809,10.794-9.742l-15.065-15.065h-14.516V119.34z"/></g><g><path class="st4" d="M79.109,137.635c-0.241,0-0.484-0.029-0.724-0.089c-1.021-0.254-1.835-1.024-2.144-2.031    c-1.838-5.987-7.035-10.391-13.239-11.216c-1.132-0.15-2.08-0.93-2.446-2.011c-0.366-1.082-0.087-2.277,0.72-3.084l19.507-19.507    c0.563-0.563,1.326-0.879,2.121-0.879h18.758c1.657,0,3,1.343,3,3v20.521c0,1.657-1.343,3-3,3h-9.015L81.23,136.756    C80.661,137.325,79.894,137.635,79.109,137.635z M69.181,119.783c4.604,1.877,8.47,5.272,10.922,9.614l9.18-9.179    c0.563-0.563,1.326-0.879,2.121-0.879h7.257v-14.521H84.146L69.181,119.783z"/></g><g><path class="st4" d="M148.134,135.14h-40.62c-4.881,0-8.853-3.972-8.853-8.853v-28.88c0-4.882,3.971-8.854,8.853-8.854h40.62    c4.881,0,8.853,3.972,8.853,8.854v28.88C156.986,131.168,153.015,135.14,148.134,135.14z M107.514,94.554    c-1.573,0-2.853,1.28-2.853,2.854v28.88c0,1.573,1.28,2.853,2.853,2.853h40.62c1.573,0,2.853-1.279,2.853-2.853v-28.88    c0-1.573-1.279-2.854-2.853-2.854H107.514z"/></g><g><path class="st4" d="M142.728,220.5h-28.23c-0.795,0-1.559-0.316-2.121-0.879l-6.401-6.4H93.255c-0.796,0-1.559-0.316-2.122-0.879    l-7.129-7.13c-0.563-0.563-0.878-1.325-0.878-2.121v-37.725c0-0.96,0.46-1.862,1.237-2.427l26.065-18.936    c0.513-0.373,1.13-0.573,1.763-0.573h19.303c0.796,0,1.559,0.316,2.121,0.879l9.853,9.852h12.305c0.796,0,1.559,0.316,2.121,0.879    l13.653,13.653c0.563,0.563,0.879,1.325,0.879,2.121v31.519c0,0.796-0.316,1.559-0.879,2.121l-6.979,6.979    c-0.563,0.563-1.325,0.879-2.121,0.879h-10.288l-7.309,7.309C144.287,220.184,143.524,220.5,142.728,220.5z M115.741,214.5h25.745    l7.309-7.309c0.563-0.563,1.325-0.879,2.121-0.879h10.288l5.221-5.221v-29.034l-11.895-11.896h-12.305    c-0.796,0-1.559-0.316-2.121-0.879l-9.852-9.853h-17.086l-24.04,17.464v34.954l5.372,5.372h12.721    c0.795,0,1.558,0.316,2.121,0.879L115.741,214.5z"/></g><g><circle class="st4" cx="114.049" cy="164.411" r="2.78"/></g><g><circle class="st4" cx="135.659" cy="200.696" r="2.78"/></g><g><path class="st4" d="M153.986,200.916c-4.553,0-8.256-3.703-8.256-8.256c0-4.553,3.703-8.257,8.256-8.257    c4.553,0,8.257,3.704,8.257,8.257C162.243,197.213,158.539,200.916,153.986,200.916z M153.986,190.403    c-1.244,0-2.256,1.013-2.256,2.257c0,1.244,1.012,2.256,2.256,2.256c1.244,0,2.257-1.012,2.257-2.256    C156.243,191.416,155.23,190.403,153.986,190.403z"/></g><g><path class="st4" d="M135.658,180.703c-4.553,0-8.256-3.703-8.256-8.256c0-4.553,3.703-8.257,8.256-8.257    c4.553,0,8.257,3.704,8.257,8.257C143.915,177,140.211,180.703,135.658,180.703z M135.658,170.19    c-1.244,0-2.256,1.013-2.256,2.257c0,1.244,1.012,2.256,2.256,2.256c1.244,0,2.257-1.012,2.257-2.256    C137.915,171.203,136.902,170.19,135.658,170.19z"/></g><g><path class="st4" d="M106.793,199.916c-4.553,0-8.256-3.703-8.256-8.256c0-4.553,3.704-8.257,8.256-8.257    c4.553,0,8.256,3.704,8.256,8.257C115.049,196.213,111.346,199.916,106.793,199.916z M106.793,189.403    c-1.244,0-2.256,1.013-2.256,2.257c0,1.244,1.012,2.256,2.256,2.256c1.244,0,2.256-1.012,2.256-2.256    C109.049,190.416,108.037,189.403,106.793,189.403z"/></g><g><path class="st4" d="M142.616,94.554h-29.585c-1.657,0-3-1.343-3-3V38.5c0-1.657,1.343-3,3-3h29.585c1.657,0,3,1.343,3,3v53.054    C145.616,93.211,144.273,94.554,142.616,94.554z M116.032,88.554h23.585V41.5h-23.585V88.554z"/></g></g></svg>