<?xml version="1.0" ?><!DOCTYPE svg  PUBLIC '-//W3C//DTD SVG 1.1//EN'  'http://www.w3.org/Graphics/SVG/1.1/DTD/svg11.dtd'><svg id="Icon_Set" style="enable-background:new 0 0 256 256;" version="1.1" viewBox="0 0 256 256" xml:space="preserve" xmlns="http://www.w3.org/2000/svg" xmlns:xlink="http://www.w3.org/1999/xlink"><style type="text/css">
	.st0{fill:#484771;}
	.st1{fill:#F1C48B;}
	.st2{fill:#FD919F;}
	.st3{fill:#E0667D;}
	.st4{fill:#504774;}
	.st5{fill:#A0D1F2;}
	.st6{fill:#D4E7F8;}
	.st7{fill:#7BABF3;}
	.st8{fill:#4C4372;}
	.st9{fill:#D5E6F7;}
	.st10{fill:#FFFFFF;}
</style><g><g><circle class="st1" cx="128" cy="128" r="104.245"/></g><g><path class="st5" d="M167.76,140.971h-30.104c-4.437,0-8.131-3.408-8.486-7.831l-5.915-73.522h58.906l-5.915,73.522    C175.89,137.563,172.197,140.971,167.76,140.971z"/></g><g><g><path class="st2" d="M123.255,210.469H78.42c-2.53,0-4.582-2.051-4.582-4.582l0,0c0-2.53,2.051-4.582,4.582-4.582h44.834     c2.53,0,4.582-2.051,4.582-4.582v-0.327c0-2.53-2.051-4.582-4.582-4.582h-4.899c-7.443,0-13.791-5.776-14.072-13.214     c-0.296-7.82,5.979-14.276,13.735-14.276h25.526c2.53,0,4.582-2.051,4.582-4.582v-3.927h9.163v3.927     c0,7.591-6.154,13.745-13.745,13.745h-25.366c-2.328,0-4.406,1.669-4.703,3.978c-0.359,2.794,1.818,5.185,4.543,5.185h5.236     c7.591,0,13.745,6.154,13.745,13.745v0.327C137,204.315,130.846,210.469,123.255,210.469z"/></g></g><g><path class="st6" d="M157.289,155.817h-9.163c-2.35,0-4.254-1.905-4.254-4.254V140.97h17.672v10.592    C161.544,153.912,159.639,155.817,157.289,155.817z"/></g><g><path class="st7" d="M173.325,59.617l-5.915,73.523c-0.356,4.423-4.049,7.831-8.486,7.831h8.836c4.437,0,8.13-3.408,8.486-7.831    l5.915-73.523H173.325z"/></g><g><rect class="st6" height="14.086" width="58.906" x="123.255" y="45.531"/></g><g><rect class="st5" height="14.086" width="9.49" x="172.671" y="45.531"/></g><g><circle class="st2" cx="152.708" cy="85.904" r="11.881"/></g><g><path class="st8" d="M152.708,100.785c-8.206,0-14.881-6.676-14.881-14.881s6.676-14.881,14.881-14.881    c8.206,0,14.881,6.676,14.881,14.881c0.001,3.975-1.547,7.712-4.358,10.523C160.42,99.237,156.683,100.785,152.708,100.785z     M152.708,77.023c-4.897,0-8.881,3.984-8.881,8.881s3.984,8.881,8.881,8.881c2.372,0,4.602-0.924,6.28-2.602    c1.678-1.677,2.601-3.907,2.601-6.279C161.589,81.008,157.605,77.023,152.708,77.023z"/></g><g><path class="st8" d="M167.763,88.904h-30.11c-1.657,0-3-1.343-3-3c0-1.657,1.343-3,3-3h30.11c1.657,0,3,1.343,3,3    C170.763,87.562,169.42,88.904,167.763,88.904z"/></g><g><path class="st4" d="M167.76,143.971h-30.104c-5.958,0-10.999-4.651-11.477-10.591l-5.915-73.522    c-0.067-0.834,0.218-1.659,0.786-2.274c0.568-0.616,1.367-0.966,2.205-0.966h58.906c0.837,0,1.637,0.35,2.205,0.966    c0.568,0.615,0.853,1.44,0.786,2.274l-5.915,73.522C178.758,139.319,173.717,143.971,167.76,143.971z M126.506,62.617    l5.654,70.282c0.229,2.844,2.643,5.071,5.496,5.071h30.104c2.853,0,5.267-2.228,5.496-5.071l5.654-70.282H126.506z"/></g><g><path class="st4" d="M182.161,62.617h-58.906c-1.657,0-3-1.343-3-3V45.531c0-1.657,1.343-3,3-3h58.906c1.657,0,3,1.343,3,3v14.086    C185.161,61.274,183.818,62.617,182.161,62.617z M126.255,56.617h52.906v-8.086h-52.906V56.617z"/></g><g><path class="st4" d="M157.29,158.816h-9.163c-4,0-7.254-3.254-7.254-7.254V140.97c0-1.657,1.343-3,3-3h17.672c1.657,0,3,1.343,3,3    v10.593C164.544,155.563,161.29,158.816,157.29,158.816z M146.872,143.97v7.593c0,0.691,0.563,1.254,1.254,1.254h9.163    c0.692,0,1.254-0.563,1.254-1.254v-7.593H146.872z"/></g><g><g><path class="st4" d="M123.255,213.469H78.42c-4.181,0-7.581-3.401-7.581-7.582c0-4.181,3.401-7.581,7.581-7.581h44.835     c0.872,0,1.581-0.71,1.581-1.582v-0.327c0-0.872-0.709-1.581-1.581-1.581h-4.899c-9.23,0-16.728-7.072-17.071-16.101     c-0.173-4.591,1.486-8.942,4.674-12.253c3.189-3.313,7.472-5.137,12.059-5.137h25.526c0.872,0,1.582-0.709,1.582-1.581v-3.928     c0-1.657,1.343-3,3-3h9.163c1.657,0,3,1.343,3,3v3.928c0,9.232-7.512,16.744-16.745,16.744h-25.366     c-0.871,0-1.629,0.598-1.727,1.361c-0.081,0.631,0.203,1.062,0.379,1.263c0.177,0.201,0.568,0.54,1.188,0.54h5.236     c9.233,0,16.745,7.512,16.745,16.744v0.327C139.999,205.957,132.488,213.469,123.255,213.469z M78.42,204.306     c-0.872,0-1.581,0.709-1.581,1.581s0.709,1.582,1.581,1.582h44.835c5.925,0,10.745-4.82,10.745-10.745v-0.327     c0-5.925-4.82-10.744-10.745-10.744h-5.236c-2.177,0-4.252-0.939-5.693-2.578c-1.439-1.636-2.105-3.819-1.825-5.99     c0.483-3.76,3.784-6.596,7.678-6.596h25.366c5.925,0,10.745-4.819,10.745-10.744v-0.928h-3.163v0.928     c0,4.181-3.401,7.581-7.582,7.581h-25.526c-2.941,0-5.689,1.172-7.737,3.299c-2.046,2.125-3.112,4.918-3,7.864     c0.215,5.694,5.184,10.327,11.075,10.327h4.899c4.181,0,7.581,3.4,7.581,7.581v0.327c0,4.181-3.401,7.582-7.581,7.582H78.42z"/></g></g><g><path class="st4" d="M167.763,112.128h-30.11c-1.657,0-3-1.343-3-3c0-1.657,1.343-3,3-3h30.11c1.657,0,3,1.343,3,3    C170.763,110.785,169.42,112.128,167.763,112.128z"/></g><g><path class="st4" d="M167.763,122.126h-30.11c-1.657,0-3-1.343-3-3c0-1.657,1.343-3,3-3h30.11c1.657,0,3,1.343,3,3    C170.763,120.783,169.42,122.126,167.763,122.126z"/></g></g></svg>