<?xml version="1.0" ?><!DOCTYPE svg  PUBLIC '-//W3C//DTD SVG 1.1//EN'  'http://www.w3.org/Graphics/SVG/1.1/DTD/svg11.dtd'><svg id="Icon_Set" style="enable-background:new 0 0 256 256;" version="1.1" viewBox="0 0 256 256" xml:space="preserve" xmlns="http://www.w3.org/2000/svg" xmlns:xlink="http://www.w3.org/1999/xlink"><style type="text/css">
	.st0{fill:#484771;}
	.st1{fill:#F1C48B;}
	.st2{fill:#FD919F;}
	.st3{fill:#E0667D;}
	.st4{fill:#504774;}
	.st5{fill:#A0D1F2;}
	.st6{fill:#D4E7F8;}
	.st7{fill:#7BABF3;}
	.st8{fill:#4C4372;}
	.st9{fill:#D5E6F7;}
	.st10{fill:#FFFFFF;}
</style><g><g><circle class="st1" cx="128" cy="128" r="103.873"/></g><g><path class="st8" d="M155.915,157.387c-0.767,0-1.535-0.293-2.121-0.879l-54.303-54.302c-1.172-1.171-1.172-3.071,0-4.242    c1.172-1.172,3.07-1.172,4.242,0l54.303,54.302c1.172,1.171,1.172,3.071,0,4.242C157.45,157.094,156.683,157.387,155.915,157.387z    "/></g><g><path class="st6" d="M118.413,162.946l-24.964-24.964c-1.315-1.315-1.315-3.447,0-4.762l42.754-42.754    c1.315-1.315,3.447-1.315,4.762,0l24.964,24.964c1.315,1.315,1.315,3.447,0,4.762l-42.754,42.754    C121.86,164.261,119.728,164.261,118.413,162.946z"/></g><g><path class="st5" d="M165.929,115.43l-6.52-6.52c1.315,1.315,1.315,3.447,0,4.762l-42.754,42.754    c-1.315,1.315-3.447,1.315-4.762,0l6.52,6.52c1.315,1.315,3.447,1.315,4.762,0l42.754-42.754    C167.244,118.877,167.244,116.745,165.929,115.43z"/></g><g><rect class="st7" height="28.215" transform="matrix(0.7071 0.7071 -0.7071 0.7071 127.8812 -53.8649)" width="19.87" x="119.026" y="113.326"/></g><g><rect class="st2" height="16.506" transform="matrix(0.7071 0.7071 -0.7071 0.7071 142.998 -17.3697)" width="42.039" x="71.446" y="155.676"/></g><g><path class="st2" d="M198.51,102.904c-12.432,12.432-32.587,12.432-45.019,0c-12.432-12.432-12.432-32.587,0-45.019    L198.51,102.904z"/></g><g><path class="st3" d="M190.864,95.258c-11.128,11.128-28.44,12.286-40.866,3.493c1.03,1.456,2.189,2.849,3.493,4.153    c12.432,12.432,32.587,12.432,45.019,0L190.864,95.258z"/></g><g><circle class="st2" cx="187.221" cy="68.779" r="7.196"/></g><g><rect class="st3" height="9.221" transform="matrix(0.7071 -0.7071 0.7071 0.7071 -93.6388 125.0001)" width="16.506" x="95.816" y="170.922"/></g><g><rect class="st7" height="10.789" transform="matrix(0.7071 0.7071 -0.7071 0.7071 139.0012 -27.0198)" width="28.227" x="88.003" y="148.884"/></g><g><rect class="st5" height="91.313" transform="matrix(-0.7071 -0.7071 0.7071 -0.7071 86.6659 205.0174)" width="44.328" x="63.629" y="38.903"/></g><g><rect class="st5" height="91.313" transform="matrix(-0.7071 -0.7071 0.7071 -0.7071 172.3122 411.7875)" width="44.328" x="149.276" y="124.55"/></g><g><rect class="st7" height="91.313" transform="matrix(-0.7071 -0.7071 0.7071 -0.7071 184.3503 440.8488)" width="10.281" x="178.338" y="136.587"/></g><g><rect class="st7" height="91.313" transform="matrix(-0.7071 -0.7071 0.7071 -0.7071 98.7041 234.0785)" width="10.281" x="92.69" y="50.94"/></g><g><path class="st8" d="M176.001,115.228c-9.305,0-18.052-3.623-24.631-10.203c-13.582-13.581-13.582-35.68,0-49.261    c1.172-1.172,3.07-1.172,4.242,0l45.019,45.019c1.172,1.171,1.172,3.071,0,4.242C194.052,111.604,185.305,115.228,176.001,115.228    z M153.601,62.237c-9.184,11.313-8.514,28.019,2.012,38.545c5.446,5.446,12.686,8.445,20.389,8.445    c6.692,0,13.036-2.265,18.158-6.432L153.601,62.237z"/></g><g><path class="st8" d="M101.493,187.628c-0.768,0-1.535-0.293-2.121-0.879l-29.726-29.726c-1.172-1.171-1.172-3.071,0-4.242    l11.671-11.671c1.125-1.126,3.117-1.126,4.242,0l29.727,29.727c0.563,0.563,0.879,1.326,0.879,2.121    c0,0.796-0.316,1.559-0.879,2.122l-11.672,11.671C103.028,187.335,102.261,187.628,101.493,187.628z M76.01,154.901l25.483,25.484    l7.429-7.429l-25.483-25.484L76.01,154.901z"/></g><g><path class="st8" d="M108.281,171.073c-0.796,0-1.559-0.316-2.121-0.879l-19.959-19.959c-1.172-1.171-1.172-3.071,0-4.242    l7.629-7.629c1.125-1.126,3.117-1.126,4.242,0l19.959,19.96c1.172,1.171,1.172,3.071,0,4.242l-7.629,7.629    C109.84,170.757,109.077,171.073,108.281,171.073z M92.564,148.114l15.717,15.716l3.387-3.386l-15.717-15.717L92.564,148.114z"/></g><g><path class="st8" d="M120.795,166.933c-1.701,0-3.3-0.662-4.503-1.865l-24.964-24.965c-1.203-1.202-1.865-2.801-1.865-4.502    c0-1.701,0.662-3.3,1.865-4.503l42.753-42.753c1.202-1.203,2.802-1.865,4.503-1.865c1.7,0,3.3,0.662,4.502,1.865l24.964,24.964    c1.203,1.202,1.865,2.801,1.865,4.502c0,1.701-0.662,3.3-1.865,4.503l-42.753,42.753    C124.094,166.27,122.495,166.933,120.795,166.933z M138.583,92.48c-0.101,0-0.188,0.036-0.26,0.107L95.57,135.341    c-0.071,0.072-0.107,0.159-0.107,0.26c0,0.101,0.036,0.188,0.107,0.259l24.964,24.965c0.142,0.141,0.377,0.142,0.521,0    l42.753-42.753c0.071-0.072,0.107-0.159,0.107-0.26c0-0.101-0.036-0.188-0.107-0.26l-24.964-24.964    c-0.072-0.071-0.159-0.107-0.26-0.107C138.583,92.48,138.583,92.48,138.583,92.48z"/></g><g><path class="st8" d="M69.182,135.516c-0.768,0-1.535-0.293-2.121-0.879l-31.345-31.345c-0.563-0.563-0.879-1.325-0.879-2.121    c0-0.795,0.316-1.559,0.879-2.121l64.568-64.568c1.172-1.172,3.07-1.172,4.242,0l31.345,31.345    c0.563,0.563,0.879,1.325,0.879,2.121c0,0.795-0.316,1.559-0.879,2.121l-64.568,64.568    C70.717,135.223,69.949,135.516,69.182,135.516z M42.079,101.171l27.103,27.102l60.326-60.326l-27.103-27.102L42.079,101.171z"/></g><g><path class="st8" d="M53.509,119.844c-0.768,0-1.535-0.293-2.121-0.879c-1.172-1.171-1.172-3.071,0-4.242l64.568-64.568    c1.172-1.172,3.07-1.172,4.242,0c1.172,1.171,1.172,3.071,0,4.242L55.63,118.965C55.044,119.551,54.276,119.844,53.509,119.844z"/></g><g><path class="st8" d="M101.612,103.085c-0.768,0-1.535-0.293-2.121-0.879L68.146,70.861c-1.172-1.171-1.172-3.071,0-4.242    c1.172-1.172,3.07-1.172,4.242,0l31.345,31.345c1.172,1.171,1.172,3.071,0,4.242C103.147,102.792,102.38,103.085,101.612,103.085z    "/></g><g><path class="st8" d="M118.098,86.6c-0.768,0-1.535-0.293-2.121-0.879L84.632,54.376c-1.172-1.171-1.172-3.071,0-4.242    c1.172-1.172,3.07-1.172,4.242,0l31.345,31.345c1.172,1.171,1.172,3.071,0,4.242C119.633,86.307,118.865,86.6,118.098,86.6z"/></g><g><path class="st8" d="M84.834,119.864c-0.768,0-1.535-0.293-2.121-0.879L51.368,87.64c-1.172-1.171-1.172-3.071,0-4.242    c1.172-1.172,3.07-1.172,4.242,0l31.345,31.345c1.172,1.171,1.172,3.071,0,4.242C86.369,119.571,85.602,119.864,84.834,119.864z"/></g><g><path class="st8" d="M154.828,221.163c-0.796,0-1.559-0.316-2.121-0.879l-31.344-31.345c-1.172-1.171-1.172-3.071,0-4.242    l64.567-64.568c1.125-1.126,3.117-1.126,4.242,0l31.345,31.345c0.563,0.563,0.879,1.325,0.879,2.121    c0,0.795-0.316,1.559-0.879,2.121l-64.568,64.568C156.387,220.847,155.624,221.163,154.828,221.163z M127.727,186.818    l27.101,27.102l60.326-60.326l-27.102-27.102L127.727,186.818z"/></g><g><path class="st8" d="M139.156,205.491c-0.768,0-1.535-0.293-2.121-0.879c-1.172-1.171-1.172-3.071,0-4.242l64.568-64.568    c1.172-1.172,3.07-1.172,4.242,0c1.172,1.171,1.172,3.071,0,4.242l-64.568,64.568    C140.691,205.198,139.924,205.491,139.156,205.491z"/></g><g><path class="st8" d="M187.26,188.732c-0.768,0-1.535-0.293-2.121-0.879l-31.345-31.345c-1.172-1.171-1.172-3.071,0-4.242    c1.172-1.172,3.07-1.172,4.242,0l31.345,31.345c1.172,1.171,1.172,3.071,0,4.242C188.795,188.439,188.027,188.732,187.26,188.732z    "/></g><g><path class="st8" d="M203.744,172.247c-0.768,0-1.535-0.293-2.121-0.879l-31.345-31.345c-1.172-1.171-1.172-3.071,0-4.242    c1.172-1.172,3.07-1.172,4.242,0l31.345,31.345c1.172,1.171,1.172,3.071,0,4.242C205.279,171.954,204.512,172.247,203.744,172.247    z"/></g><g><path class="st8" d="M170.48,205.511c-0.768,0-1.535-0.293-2.121-0.879l-31.345-31.345c-1.172-1.171-1.172-3.071,0-4.242    c1.172-1.172,3.07-1.172,4.242,0l31.345,31.345c1.172,1.171,1.172,3.071,0,4.242C172.016,205.218,171.248,205.511,170.48,205.511z    "/></g><g><path class="st8" d="M187.222,78.975c-2.724,0-5.284-1.061-7.21-2.987c-1.926-1.925-2.986-4.486-2.986-7.209    s1.061-5.284,2.986-7.21c1.926-1.926,4.486-2.986,7.21-2.986c2.723,0,5.283,1.061,7.209,2.987    c1.926,1.925,2.986,4.486,2.987,7.209c-0.001,2.724-1.062,5.284-2.987,7.21C192.505,77.915,189.944,78.975,187.222,78.975z     M187.222,64.582c-1.121,0-2.175,0.437-2.968,1.229c-0.793,0.793-1.229,1.847-1.229,2.967s0.436,2.174,1.229,2.967    c0.793,0.793,1.847,1.229,2.968,1.229c1.12,0,2.174-0.437,2.967-1.229c0.793-0.793,1.229-1.847,1.229-2.967    c-0.001-1.121-0.437-2.174-1.229-2.967C189.395,65.019,188.342,64.582,187.222,64.582z"/></g><g><path class="st8" d="M175.803,83.197c-0.768,0-1.535-0.293-2.121-0.879c-1.172-1.171-1.172-3.071,0-4.243l6.33-6.33    c1.172-1.171,3.07-1.171,4.242,0.001c1.172,1.171,1.172,3.071,0,4.243l-6.33,6.33C177.338,82.904,176.57,83.197,175.803,83.197z"/></g><g><path class="st8" d="M126.011,147.435L126.011,147.435c-0.796,0-1.559-0.316-2.121-0.879l-14.05-14.051    c-1.172-1.171-1.172-3.071,0-4.242l19.95-19.951c1.172-1.172,3.07-1.171,4.242,0l14.051,14.05    c0.563,0.563,0.879,1.326,0.879,2.122c0,0.795-0.316,1.559-0.879,2.121l-19.951,19.951    C127.569,147.119,126.807,147.435,126.011,147.435z M116.203,130.384l9.808,9.808l15.709-15.708l-9.809-9.808L116.203,130.384z"/></g><g><path class="st8" d="M126.089,127.561c-0.768,0-1.535-0.293-2.121-0.879l-4.152-4.152c-1.172-1.171-1.172-3.071,0-4.242    c1.172-1.172,3.07-1.172,4.242,0l4.152,4.152c1.172,1.171,1.172,3.071,0,4.242C127.624,127.268,126.856,127.561,126.089,127.561z"/></g></g></svg>