<?xml version="1.0" ?><!DOCTYPE svg  PUBLIC '-//W3C//DTD SVG 1.1//EN'  'http://www.w3.org/Graphics/SVG/1.1/DTD/svg11.dtd'><svg id="Icon_Set" style="enable-background:new 0 0 256 256;" version="1.1" viewBox="0 0 256 256" xml:space="preserve" xmlns="http://www.w3.org/2000/svg" xmlns:xlink="http://www.w3.org/1999/xlink"><style type="text/css">
	.st0{fill:#484771;}
	.st1{fill:#F1C48B;}
	.st2{fill:#FD919F;}
	.st3{fill:#E0667D;}
	.st4{fill:#504774;}
	.st5{fill:#A0D1F2;}
	.st6{fill:#D4E7F8;}
	.st7{fill:#7BABF3;}
	.st8{fill:#4C4372;}
	.st9{fill:#D5E6F7;}
	.st10{fill:#FFFFFF;}
</style><g><g><circle class="st1" cx="128" cy="128" r="103.873"/></g><g><path class="st2" d="M84.439,171.561L84.439,171.561c8.052,8.052,4.368,21.801-6.631,24.749v0l-24.749,6.631l6.631-24.749h0    C62.637,167.193,76.386,163.509,84.439,171.561L84.439,171.561z"/></g><g><path class="st3" d="M84.439,171.561L84.439,171.561c3.978,3.978,2.158,10.77-3.276,12.226l0,0l-12.226,3.276l3.276-12.226l0,0    C73.669,169.404,80.461,167.584,84.439,171.561L84.439,171.561z"/></g><g><path class="st9" d="M113.365,168.8l-26.173-26.173l46.063-52.592c17.911-20.45,42.708-33.61,69.682-36.981v0v0    c-3.372,26.974-16.532,51.771-36.981,69.682L113.365,168.8z"/></g><g><path class="st5" d="M202.938,53.055L202.938,53.055c-3.324,0.416-6.615,0.981-9.865,1.689    c-5.038,23.117-17.363,44.114-35.292,59.818l-52.592,46.063l8.175,8.175l52.591-46.063    C186.406,104.826,199.566,80.029,202.938,53.055z"/></g><g><circle class="st7" cx="162.565" cy="93.435" r="11.567"/></g><g><path class="st2" d="M96.48,172.73l-13.217-13.217c-1.337-1.337-1.337-3.505,0-4.842l7.986-7.986l18.059,18.059l-7.986,7.986    C99.985,174.067,97.817,174.067,96.48,172.73z"/></g><g><polygon class="st2" points="120.507,104.59 98.508,103.044 70.152,131.401 91.895,137.258   "/></g><g><polygon class="st3" points="151.41,135.493 152.956,157.492 124.599,185.848 118.742,164.105   "/></g><g><path class="st3" d="M104.137,159.572l-7.986,7.986c-1.337,1.337-3.505,1.337-4.842,0l5.171,5.171    c1.337,1.337,3.505,1.337,4.842,0l7.986-7.986L104.137,159.572z"/></g><g><path class="st4" d="M91.895,140.258c-0.26,0-0.522-0.034-0.78-0.104l-21.743-5.856c-1.034-0.278-1.842-1.087-2.118-2.122    c-0.276-1.034,0.02-2.139,0.777-2.895l28.357-28.357c0.613-0.615,1.451-0.933,2.331-0.871l21.998,1.546    c1.137,0.08,2.13,0.797,2.565,1.85c0.433,1.054,0.233,2.262-0.518,3.119l-28.612,32.668    C93.573,139.895,92.746,140.258,91.895,140.258z M75.941,129.854l14.928,4.021l23.399-26.716l-14.605-1.026L75.941,129.854z"/></g><g><path class="st4" d="M124.599,188.849c-0.259,0-0.519-0.033-0.774-0.102c-1.035-0.276-1.844-1.084-2.122-2.118l-5.856-21.743    c-0.298-1.105,0.059-2.283,0.92-3.037l32.667-28.612c0.857-0.75,2.064-0.949,3.119-0.518c1.054,0.435,1.77,1.428,1.85,2.564    l1.547,21.998c0.062,0.866-0.257,1.717-0.871,2.331L126.72,187.97C126.15,188.54,125.384,188.849,124.599,188.849z     M122.125,165.131l4.021,14.928l23.721-23.722l-1.026-14.605L122.125,165.131z"/></g><g><path class="st4" d="M113.365,171.801c-0.77,0-1.538-0.295-2.122-0.879L85.07,144.749c-1.117-1.117-1.177-2.909-0.136-4.098    l46.063-52.592c18.416-21.026,43.833-34.515,71.567-37.982c0.919-0.113,1.84,0.201,2.493,0.856    c0.655,0.654,0.971,1.575,0.855,2.493c-3.467,27.735-16.956,53.151-37.981,71.567l-52.592,46.063    C114.773,171.555,114.068,171.801,113.365,171.801z M91.298,142.492l22.202,22.202l50.48-44.214    c18.927-16.577,31.406-39.141,35.42-63.888c-24.747,4.014-47.311,16.493-63.888,35.42L91.298,142.492z"/></g><g><path class="st4" d="M98.9,176.732c-1.716,0-3.329-0.668-4.542-1.882l-13.217-13.217c-1.214-1.213-1.882-2.826-1.882-4.542    c0-1.716,0.668-3.329,1.882-4.542l7.985-7.986c1.125-1.125,3.117-1.125,4.242,0l18.06,18.059c0.563,0.563,0.879,1.325,0.879,2.121    s-0.316,1.559-0.879,2.121l-7.986,7.986C102.229,176.064,100.616,176.732,98.9,176.732z M91.248,150.928l-5.864,5.864    c-0.102,0.102-0.124,0.22-0.124,0.3c0,0.08,0.021,0.197,0.124,0.3l13.217,13.217c0.205,0.205,0.395,0.205,0.6,0l5.864-5.865    L91.248,150.928z"/></g><g><path class="st4" d="M162.565,108.002c-3.892,0-7.55-1.515-10.301-4.266c-5.68-5.68-5.68-14.921,0-20.601    c2.751-2.752,6.409-4.267,10.301-4.267c3.891,0,7.549,1.515,10.3,4.267c2.752,2.751,4.268,6.409,4.268,10.3    c0,3.891-1.516,7.549-4.268,10.3C170.114,106.486,166.456,108.002,162.565,108.002z M162.565,84.868    c-2.289,0-4.44,0.891-6.059,2.509c-3.34,3.34-3.34,8.775,0,12.115c1.618,1.618,3.77,2.509,6.059,2.509    c2.288,0,4.439-0.891,6.058-2.509c1.618-1.618,2.509-3.77,2.51-6.058c-0.001-2.289-0.892-4.44-2.51-6.058    C167.005,85.759,164.854,84.868,162.565,84.868z"/></g><g><path class="st4" d="M53.059,205.941c-0.785,0-1.551-0.309-2.121-0.879c-0.758-0.758-1.054-1.862-0.776-2.898l6.631-24.749    c2.082-7.77,9.174-13.196,17.245-13.196c4.709,0,9.156,1.855,12.522,5.221c4.549,4.549,6.271,10.974,4.605,17.188    c-1.665,6.213-6.368,10.915-12.581,12.579l-24.749,6.632C53.578,205.908,53.317,205.941,53.059,205.941z M74.037,170.22    c-4.532,0-9.83,2.705-11.449,8.749l-5.286,19.73l19.73-5.286c4.117-1.104,7.234-4.221,8.338-8.339    c1.104-4.118-0.037-8.377-3.052-11.392C80.084,171.449,77.144,170.22,74.037,170.22z"/></g><g><path class="st4" d="M68.937,190.064c-0.785,0-1.552-0.309-2.121-0.879c-0.758-0.758-1.054-1.862-0.776-2.898l3.276-12.227    c1.206-4.501,5.312-7.643,9.984-7.643c2.732,0,5.311,1.073,7.26,3.023c2.635,2.635,3.633,6.357,2.668,9.956    c-0.964,3.6-3.688,6.324-7.288,7.288l-12.227,3.276C69.456,190.03,69.195,190.064,68.937,190.064z M79.3,172.417    c-1.658,0-3.598,0.988-4.189,3.196l-1.931,7.207l7.207-1.931c1.504-0.403,2.643-1.542,3.045-3.046    c0.403-1.504-0.014-3.06-1.114-4.161C81.271,172.637,80.099,172.417,79.3,172.417z"/></g><g><rect class="st2" height="57.786" transform="matrix(0.7071 0.7071 -0.7071 0.7071 132.6281 -41.8351)" width="10.734" x="111.446" y="110.286"/></g><g><path class="st4" d="M100.179,166.404c-0.796,0-1.559-0.316-2.121-0.879l-7.591-7.591c-1.172-1.171-1.172-3.071,0-4.242    l40.86-40.86c1.172-1.172,3.07-1.171,4.242-0.001l7.591,7.59c0.563,0.563,0.879,1.326,0.879,2.122    c0,0.795-0.316,1.559-0.879,2.121l-40.86,40.861C101.737,166.088,100.975,166.404,100.179,166.404z M96.83,155.814l3.349,3.349    l36.617-36.619l-3.348-3.348L96.83,155.814z"/></g></g></svg>