<?xml version="1.0" ?><!DOCTYPE svg  PUBLIC '-//W3C//DTD SVG 1.1//EN'  'http://www.w3.org/Graphics/SVG/1.1/DTD/svg11.dtd'><svg id="Icon_Set" style="enable-background:new 0 0 256 256;" version="1.1" viewBox="0 0 256 256" xml:space="preserve" xmlns="http://www.w3.org/2000/svg" xmlns:xlink="http://www.w3.org/1999/xlink"><style type="text/css">
	.st0{fill:#484771;}
	.st1{fill:#F1C48B;}
	.st2{fill:#FD919F;}
	.st3{fill:#E0667D;}
	.st4{fill:#504774;}
	.st5{fill:#A0D1F2;}
	.st6{fill:#D4E7F8;}
	.st7{fill:#7BABF3;}
	.st8{fill:#4C4372;}
	.st9{fill:#D5E6F7;}
	.st10{fill:#FFFFFF;}
</style><g><g><circle class="st1" cx="128" cy="128" r="104.245"/></g><g><path class="st2" d="M198.171,126.832L198.171,126.832c4.864,0,8.807-3.943,8.807-8.807V80.546c0-4.864-3.943-8.807-8.807-8.807    l0,0c-4.864,0-8.807,3.943-8.807,8.807v37.479C189.364,122.889,193.307,126.832,198.171,126.832z"/></g><g><path class="st9" d="M110.144,57.511H88.362c-0.819,0-1.483-0.664-1.483-1.483v-7.985c0-0.819,0.664-1.483,1.483-1.483h21.782    V57.511z"/></g><g><path class="st5" d="M148.703,61.11h-36.101c-1.358,0-2.459-1.101-2.459-2.458V45.418c0-1.358,1.101-2.458,2.459-2.458h36.101    V61.11z"/></g><g><path class="st5" d="M189.364,118.086H94.576c-2.813,0-5.093-2.28-5.093-5.093V85.578c0-2.813,2.28-5.093,5.093-5.093h94.788    V118.086z"/></g><g><rect class="st5" height="10.951" width="7.281" x="102.863" y="46.56"/></g><g><rect class="st9" height="21.251" width="33.692" x="55.791" y="88.66"/></g><g><rect class="st5" height="21.251" width="9.885" x="79.598" y="88.66"/></g><g><rect class="st7" height="37.601" width="13.429" x="175.935" y="80.485"/></g><g><rect class="st7" height="18.15" width="9.042" x="139.661" y="42.96"/></g><g><rect class="st9" height="19.375" width="12.459" x="123.194" y="61.11"/></g><g><rect class="st5" height="19.375" width="5.641" x="130.012" y="61.11"/></g><g><g><path class="st7" d="M180.235,210.14c-1.646,0-3.246-0.854-4.128-2.381l-46.683-80.857L82.74,207.758     c-1.315,2.278-4.226,3.056-6.504,1.743c-2.277-1.315-3.058-4.227-1.743-6.504l50.807-88c0.851-1.473,2.423-2.381,4.124-2.381     c1.701,0,3.273,0.907,4.124,2.381l50.807,88c1.315,2.277,0.534,5.189-1.743,6.504C181.861,209.934,181.042,210.14,180.235,210.14     z"/></g></g><g><g><path class="st4" d="M180.234,213.14c-2.768,0-5.345-1.487-6.727-3.883L129.423,132.9l-44.085,76.357     c-1.382,2.394-3.959,3.881-6.725,3.882c-1.355,0-2.696-0.359-3.875-1.04c-3.708-2.141-4.982-6.896-2.844-10.602l50.808-88     c1.382-2.394,3.958-3.881,6.721-3.881c2.764,0,5.34,1.487,6.722,3.881l50.807,88c2.14,3.706,0.865,8.462-2.84,10.602     C182.93,212.78,181.59,213.14,180.234,213.14z M129.423,123.9c1.072,0,2.063,0.572,2.598,1.5l46.684,80.857     c0.473,0.818,1.565,1.127,2.407,0.645c0.84-0.485,1.129-1.564,0.644-2.405l-50.806-88c-0.314-0.543-0.899-0.881-1.526-0.881     c-0.627,0-1.211,0.338-1.525,0.881l-50.807,88c-0.484,0.841-0.195,1.92,0.646,2.406c0.828,0.479,1.932,0.174,2.405-0.646     l46.683-80.857C127.36,124.473,128.351,123.9,129.423,123.9z"/></g></g><g><g><path class="st5" d="M129.423,210.139c-2.63,0-4.761-2.132-4.761-4.761v-88c0-2.63,2.132-4.761,4.761-4.761     c2.63,0,4.761,2.132,4.761,4.761v88C134.185,208.007,132.053,210.139,129.423,210.139z"/></g></g><g><g><path class="st4" d="M129.423,213.139c-4.279,0-7.761-3.482-7.761-7.761v-88c0-4.28,3.481-7.762,7.761-7.762     c4.28,0,7.762,3.481,7.762,7.762v88C137.185,209.657,133.703,213.139,129.423,213.139z M129.423,115.616     c-0.971,0-1.761,0.79-1.761,1.762v88c0,0.971,0.79,1.761,1.761,1.761c0.972,0,1.762-0.79,1.762-1.761v-88     C131.185,116.406,130.395,115.616,129.423,115.616z"/></g></g><g><path class="st2" d="M49.407,118.086L49.407,118.086c-3.526,0-6.384-2.858-6.384-6.384V86.869c0-3.526,2.858-6.384,6.384-6.384    l0,0c3.526,0,6.384,2.858,6.384,6.384v24.833C55.791,115.228,52.933,118.086,49.407,118.086z"/></g><g><path class="st2" d="M153.235,66.209L153.235,66.209c2.503,0,4.532-2.029,4.532-4.532V42.392c0-2.503-2.029-4.532-4.532-4.532l0,0    c-2.503,0-4.532,2.029-4.532,4.532v19.285C148.703,64.18,150.732,66.209,153.235,66.209z"/></g><g><path class="st4" d="M49.406,121.086c-5.174,0-9.384-4.21-9.384-9.384V86.869c0-5.174,4.21-9.384,9.384-9.384    c5.175,0,9.385,4.21,9.385,9.384v24.833C58.791,116.876,54.581,121.086,49.406,121.086z M49.406,83.485    c-1.866,0-3.384,1.518-3.384,3.384v24.833c0,1.866,1.518,3.384,3.384,3.384c1.866,0,3.385-1.518,3.385-3.384V86.869    C52.791,85.003,51.272,83.485,49.406,83.485z"/></g><g><path class="st4" d="M189.363,121.086H94.576c-4.463,0-8.094-3.631-8.094-8.093V85.578c0-4.462,3.631-8.093,8.094-8.093h94.787    c1.657,0,3,1.343,3,3v37.601C192.363,119.743,191.02,121.086,189.363,121.086z M94.576,83.485c-1.154,0-2.094,0.938-2.094,2.093    v27.415c0,1.154,0.939,2.093,2.094,2.093h91.787V83.485H94.576z"/></g><g><path class="st4" d="M148.703,64.11h-36.101c-3.01,0-5.459-2.449-5.459-5.459V45.418c0-3.01,2.449-5.458,5.459-5.458h36.101    c1.657,0,3,1.343,3,3v18.15C151.703,62.768,150.36,64.11,148.703,64.11z M113.144,58.11h32.559V45.96h-32.559V58.11z"/></g><g><path class="st4" d="M110.144,60.511H88.362c-2.472,0-4.483-2.012-4.483-4.483v-7.984c0-2.472,2.012-4.483,4.483-4.483h21.781    c1.657,0,3,1.343,3,3v10.951C113.144,59.168,111.801,60.511,110.144,60.511z M89.879,54.511h17.265V49.56H89.879V54.511z"/></g><g><path class="st4" d="M198.171,129.832c-6.511,0-11.808-5.297-11.808-11.807V80.546c0-6.51,5.297-11.807,11.808-11.807    c6.51,0,11.807,5.297,11.807,11.807v37.479C209.977,124.535,204.681,129.832,198.171,129.832z M198.171,74.739    c-3.202,0-5.808,2.604-5.808,5.807v37.479c0,3.202,2.605,5.807,5.808,5.807s5.807-2.604,5.807-5.807V80.546    C203.977,77.344,201.373,74.739,198.171,74.739z"/></g><g><path class="st4" d="M153.234,69.209c-4.152,0-7.531-3.379-7.531-7.531V42.393c0-4.153,3.379-7.532,7.531-7.532    c4.153,0,7.532,3.379,7.532,7.532v19.285C160.767,65.83,157.388,69.209,153.234,69.209z M153.234,40.86    c-0.845,0-1.531,0.688-1.531,1.532v19.285c0,0.845,0.687,1.531,1.531,1.531c0.845,0,1.532-0.687,1.532-1.531V42.393    C154.767,41.548,154.079,40.86,153.234,40.86z"/></g><g><path class="st4" d="M89.482,112.911H55.791c-1.657,0-3-1.343-3-3V88.66c0-1.657,1.343-3,3-3h33.691c1.657,0,3,1.343,3,3v21.251    C92.482,111.568,91.14,112.911,89.482,112.911z M58.791,106.911h27.691V91.66H58.791V106.911z"/></g><g><path class="st4" d="M135.652,83.485h-12.459c-1.657,0-3-1.343-3-3V61.11c0-1.657,1.343-3,3-3h12.459c1.657,0,3,1.343,3,3v19.375    C138.652,82.143,137.31,83.485,135.652,83.485z M126.193,77.485h6.459V64.11h-6.459V77.485z"/></g><g><path class="st4" d="M66.489,112.911c-1.657,0-3-1.343-3-3V88.66c0-1.657,1.343-3,3-3c1.657,0,3,1.343,3,3v21.251    C69.489,111.568,68.146,112.911,66.489,112.911z"/></g><g><path class="st4" d="M175.935,121.086c-1.657,0-3-1.343-3-3V80.485c0-1.657,1.343-3,3-3c1.657,0,3,1.343,3,3v37.601    C178.935,119.743,177.592,121.086,175.935,121.086z"/></g><g><circle class="st2" cx="129.423" cy="117.378" r="19.28"/></g><g><path class="st3" d="M129.423,98.099c-1.773,0-3.488,0.244-5.119,0.692c8.162,2.243,14.161,9.713,14.161,18.588    c0,8.875-5.998,16.344-14.161,18.587c1.631,0.448,3.346,0.693,5.119,0.693c10.648,0,19.28-8.632,19.28-19.28    C148.703,106.73,140.071,98.099,129.423,98.099z"/></g><g><circle class="st9" cx="129.423" cy="117.378" r="9.042"/></g><g><path class="st4" d="M129.423,139.658c-12.285,0-22.279-9.995-22.279-22.28c0-12.285,9.994-22.279,22.279-22.279    c12.285,0,22.28,9.994,22.28,22.279C151.703,129.663,141.708,139.658,129.423,139.658z M129.423,101.099    c-8.977,0-16.279,7.303-16.279,16.279c0,8.977,7.303,16.28,16.279,16.28c8.977,0,16.28-7.304,16.28-16.28    C145.703,108.401,138.399,101.099,129.423,101.099z"/></g><g><path class="st4" d="M129.423,129.42c-6.64,0-12.041-5.402-12.041-12.042c0-6.64,5.401-12.041,12.041-12.041    c6.64,0,12.042,5.401,12.042,12.041C141.465,124.018,136.063,129.42,129.423,129.42z M129.423,111.337    c-3.331,0-6.041,2.71-6.041,6.041c0,3.332,2.71,6.042,6.041,6.042c3.332,0,6.042-2.71,6.042-6.042    C135.465,114.047,132.755,111.337,129.423,111.337z"/></g></g></svg>