<?xml version="1.0" ?><!DOCTYPE svg  PUBLIC '-//W3C//DTD SVG 1.1//EN'  'http://www.w3.org/Graphics/SVG/1.1/DTD/svg11.dtd'><svg id="Icon_Set" style="enable-background:new 0 0 256 256;" version="1.1" viewBox="0 0 256 256" xml:space="preserve" xmlns="http://www.w3.org/2000/svg" xmlns:xlink="http://www.w3.org/1999/xlink"><style type="text/css">
	.st0{fill:#484771;}
	.st1{fill:#F1C48B;}
	.st2{fill:#FD919F;}
	.st3{fill:#E0667D;}
	.st4{fill:#504774;}
	.st5{fill:#A0D1F2;}
	.st6{fill:#D4E7F8;}
	.st7{fill:#7BABF3;}
	.st8{fill:#4C4372;}
	.st9{fill:#D5E6F7;}
	.st10{fill:#FFFFFF;}
</style><g><g><circle class="st1" cx="128" cy="128" r="104.245"/></g><g><path class="st2" d="M128,49c-43.631,0-79,35.37-79,79s35.369,79,79,79c43.63,0,79-35.37,79-79S171.63,49,128,49z M128,141    c-7.18,0-13-5.82-13-13s5.82-13,13-13c7.18,0,13,5.82,13,13S135.18,141,128,141z"/></g><g><g><path class="st3" d="M128,49c-3.019,0-5.993,0.186-8.924,0.516c39.427,4.435,70.076,37.873,70.076,78.484     s-30.649,74.05-70.076,78.484c2.931,0.33,5.905,0.516,8.924,0.516c43.63,0,79-35.37,79-79S171.63,49,128,49z"/></g></g><g><path class="st4" d="M128,210c-45.215,0-82-36.785-82-82s36.785-82,82-82s82,36.785,82,82S173.215,210,128,210z M128,52    c-41.907,0-76,34.094-76,76c0,41.906,34.093,76,76,76c41.906,0,76-34.094,76-76C204,86.094,169.906,52,128,52z M128,144    c-8.822,0-16-7.178-16-16s7.178-16,16-16c8.822,0,16,7.178,16,16S136.822,144,128,144z M128,118c-5.514,0-10,4.486-10,10    s4.486,10,10,10c5.514,0,10-4.486,10-10S133.514,118,128,118z"/></g><g><path class="st4" d="M90.417,122.521c-11.162,0-20.243-9.081-20.243-20.243s9.081-20.243,20.243-20.243    c11.162,0,20.243,9.081,20.243,20.243S101.579,122.521,90.417,122.521z M90.417,88.035c-7.854,0-14.243,6.39-14.243,14.243    s6.39,14.243,14.243,14.243c7.853,0,14.243-6.39,14.243-14.243S98.27,88.035,90.417,88.035z"/></g><g><path class="st4" d="M90.417,88.035c-1.657,0-3-1.343-3-3V80.05c0-1.657,1.343-3,3-3c1.657,0,3,1.343,3,3v4.985    C93.417,86.692,92.074,88.035,90.417,88.035z"/></g><g><path class="st4" d="M90.417,127.507c-1.657,0-3-1.343-3-3v-4.985c0-1.657,1.343-3,3-3c1.657,0,3,1.343,3,3v4.985    C93.417,126.164,92.074,127.507,90.417,127.507z"/></g><g><path class="st4" d="M112.646,105.278h-4.986c-1.657,0-3-1.343-3-3c0-1.657,1.343-3,3-3h4.986c1.657,0,3,1.343,3,3    C115.646,103.936,114.303,105.278,112.646,105.278z"/></g><g><path class="st4" d="M73.174,105.278h-4.986c-1.657,0-3-1.343-3-3c0-1.657,1.343-3,3-3h4.986c1.657,0,3,1.343,3,3    C76.174,103.936,74.831,105.278,73.174,105.278z"/></g><g><path class="st4" d="M102.609,93.086c-0.768,0-1.536-0.293-2.122-0.879c-1.171-1.172-1.171-3.071,0.001-4.242l3.526-3.525    c1.171-1.173,3.071-1.171,4.243,0c1.171,1.172,1.171,3.071,0,4.242l-3.526,3.525C104.145,92.793,103.377,93.086,102.609,93.086z"/></g><g><path class="st4" d="M74.699,120.996c-0.768,0-1.536-0.293-2.121-0.879c-1.172-1.171-1.172-3.071,0-4.242l3.525-3.525    c1.171-1.172,3.071-1.172,4.242,0c1.172,1.171,1.172,3.071,0,4.242l-3.525,3.525C76.234,120.703,75.466,120.996,74.699,120.996z"/></g><g><path class="st4" d="M106.135,120.996c-0.768,0-1.535-0.293-2.121-0.879l-3.526-3.525c-1.172-1.171-1.172-3.07-0.001-4.242    c1.172-1.172,3.071-1.172,4.243,0l3.526,3.525c1.172,1.171,1.172,3.07,0,4.242C107.671,120.703,106.903,120.996,106.135,120.996z"/></g><g><path class="st4" d="M78.224,93.086c-0.768,0-1.536-0.293-2.121-0.879l-3.525-3.525c-1.172-1.171-1.172-3.071,0-4.242    c1.171-1.172,3.071-1.172,4.242,0l3.525,3.525c1.172,1.171,1.172,3.071,0,4.242C79.76,92.793,78.992,93.086,78.224,93.086z"/></g><g><path class="st4" d="M135.024,90.938c-6.004,0-10.889-4.885-10.889-10.889c0-6.005,4.885-10.89,10.889-10.89    c6.005,0,10.89,4.885,10.89,10.89C145.914,86.054,141.029,90.938,135.024,90.938z M135.024,75.16c-2.695,0-4.889,2.193-4.889,4.89    c0,2.695,2.193,4.889,4.889,4.889c2.696,0,4.89-2.193,4.89-4.889C139.914,77.354,137.721,75.16,135.024,75.16z"/></g><g><path class="st4" d="M187.25,113.917c-0.768,0-1.535-0.293-2.121-0.879l-8.845-8.845v6.258c0,1.214-0.73,2.308-1.852,2.771    c-1.122,0.466-2.414,0.207-3.27-0.65l-8.379-8.379v5.493c0,1.214-0.73,2.308-1.852,2.771c-1.122,0.467-2.413,0.208-3.27-0.65    l-12.735-12.735c-1.172-1.171-1.172-3.071,0-4.242c1.172-1.172,3.07-1.172,4.242,0l7.614,7.614v-5.493    c0-1.214,0.73-2.308,1.852-2.771c1.123-0.467,2.413-0.208,3.27,0.65l8.379,8.379v-6.258c0-1.214,0.73-2.308,1.852-2.771    c1.123-0.467,2.413-0.208,3.27,0.65l13.966,13.966c1.172,1.171,1.172,3.071,0,4.242    C188.785,113.624,188.018,113.917,187.25,113.917z"/></g><g><path class="st4" d="M173.671,182.598h-36.253c-1.657,0-3-1.343-3-3v-28.778c0-1.657,1.343-3,3-3h36.253c1.657,0,3,1.343,3,3    v28.778C176.671,181.255,175.328,182.598,173.671,182.598z M140.418,176.598h30.253v-22.778h-30.253V176.598z"/></g><g><path class="st4" d="M155.545,174.708c-5.238,0-9.5-4.262-9.5-9.5c0-5.238,4.262-9.5,9.5-9.5s9.5,4.262,9.5,9.5    C165.045,170.446,160.783,174.708,155.545,174.708z M155.545,161.708c-1.93,0-3.5,1.57-3.5,3.5c0,1.93,1.57,3.5,3.5,3.5    s3.5-1.57,3.5-3.5C159.045,163.278,157.475,161.708,155.545,161.708z"/></g><g><path class="st4" d="M90.417,182.598c-1.657,0-3-1.343-3-3V141c0-1.657,1.343-3,3-3c1.657,0,3,1.343,3,3v38.598    C93.417,181.255,92.074,182.598,90.417,182.598z"/></g><g><path class="st4" d="M118,163.299H76.461c-1.657,0-3-1.343-3-3c0-1.657,1.343-3,3-3H118c1.657,0,3,1.343,3,3    C121,161.956,119.657,163.299,118,163.299z"/></g><g><path class="st4" d="M115.226,188.107c-0.768,0-1.536-0.293-2.121-0.879l-35.667-35.667c-1.171-1.171-1.171-3.071,0.001-4.242    c1.171-1.172,3.072-1.172,4.242,0l35.667,35.667c1.172,1.171,1.172,3.071,0,4.242    C116.761,187.814,115.993,188.107,115.226,188.107z"/></g><g><path class="st4" d="M80.524,173.191c-0.768,0-1.536-0.293-2.121-0.879c-1.172-1.171-1.172-3.071,0-4.242l23.539-23.539    c1.171-1.172,3.071-1.172,4.242,0c1.172,1.171,1.172,3.071,0,4.242l-23.539,23.539C82.06,172.898,81.292,173.191,80.524,173.191z"/></g><g><path class="st4" d="M187.25,125.015h-31.705c-1.657,0-3-1.343-3-3c0-1.657,1.343-3,3-3h31.705c1.657,0,3,1.343,3,3    C190.25,123.672,188.907,125.015,187.25,125.015z"/></g></g></svg>