<?xml version="1.0" ?><!DOCTYPE svg  PUBLIC '-//W3C//DTD SVG 1.1//EN'  'http://www.w3.org/Graphics/SVG/1.1/DTD/svg11.dtd'><svg id="Icon_Set" style="enable-background:new 0 0 256 256;" version="1.1" viewBox="0 0 256 256" xml:space="preserve" xmlns="http://www.w3.org/2000/svg" xmlns:xlink="http://www.w3.org/1999/xlink"><style type="text/css">
	.st0{fill:#484771;}
	.st1{fill:#F1C48B;}
	.st2{fill:#FD919F;}
	.st3{fill:#E0667D;}
	.st4{fill:#504774;}
	.st5{fill:#A0D1F2;}
	.st6{fill:#D4E7F8;}
	.st7{fill:#7BABF3;}
	.st8{fill:#4C4372;}
	.st9{fill:#D5E6F7;}
	.st10{fill:#FFFFFF;}
</style><g><g><circle class="st1" cx="128" cy="128" r="104.245"/></g><g><path class="st2" d="M202.734,149.423H53.266v-15.514c0-10.144,8.223-18.367,18.367-18.367h112.734    c10.144,0,18.367,8.223,18.367,18.367V149.423z"/></g><g><path class="st7" d="M181.946,115.542H74.054V98.404c0-29.793,24.152-53.946,53.945-53.946h0    c29.793,0,53.945,24.152,53.945,53.946V115.542z"/></g><g><path class="st6" d="M128,84.424L128,84.424c16.828,0,30.922-11.665,34.662-27.347C153.286,49.206,141.2,44.458,128,44.458h0    c-13.2,0-25.286,4.748-34.662,12.619C97.078,72.759,111.173,84.424,128,84.424z"/></g><g><path class="st5" d="M152.795,74.369c4.78-4.636,8.27-10.596,9.867-17.292C153.286,49.206,141.2,44.458,128,44.458h0    c-4.043,0-7.98,0.45-11.769,1.294C132.283,49.313,145.639,60.019,152.795,74.369z"/></g><g><path class="st5" d="M165.743,165.626H90.257c-8.949,0-16.203-7.254-16.203-16.203v0h107.891v0    C181.946,158.372,174.691,165.626,165.743,165.626z"/></g><g><circle class="st7" cx="128" cy="190.792" r="8.75"/></g><g><circle class="st7" cx="75.902" cy="190.792" r="8.75"/></g><g><circle class="st7" cx="183.196" cy="190.792" r="8.75"/></g><g><path class="st7" d="M156.446,149.423v12.355c0,2.125-1.723,3.848-3.848,3.848h13.146c8.948,0,16.203-7.254,16.203-16.203v0    H156.446z"/></g><g><path class="st3" d="M184.367,115.542h-37.5c10.144,0,18.367,8.223,18.367,18.367v15.514h37.5v-15.514    C202.734,123.765,194.511,115.542,184.367,115.542z"/></g><g><path class="st8" d="M128,87.424c-17.963,0-33.416-12.192-37.58-29.65c-0.264-1.105,0.119-2.264,0.989-2.994    c10.232-8.59,23.227-13.321,36.59-13.321c13.363,0,26.358,4.731,36.59,13.321c0.87,0.73,1.253,1.889,0.989,2.994    C161.416,75.231,145.963,87.424,128,87.424z M96.74,58.185c4.114,13.774,16.712,23.239,31.26,23.239    c14.547,0,27.146-9.465,31.26-23.239c-8.911-6.93-19.938-10.727-31.26-10.727C116.678,47.458,105.651,51.255,96.74,58.185z"/></g><g><path class="st8" d="M181.946,118.542H74.054c-1.657,0-3-1.343-3-3V98.403c0-31.399,25.546-56.945,56.946-56.945    s56.946,25.546,56.946,56.945v17.139C184.946,117.199,183.602,118.542,181.946,118.542z M77.054,112.542h101.892V98.403    c0-28.092-22.854-50.945-50.946-50.945c-28.092,0-50.946,22.854-50.946,50.945V112.542z"/></g><g><path class="st8" d="M202.734,152.424H53.266c-1.657,0-3-1.343-3-3v-15.515c0-11.782,9.585-21.367,21.367-21.367h112.734    c11.782,0,21.367,9.585,21.367,21.367v15.515C205.734,151.081,204.391,152.424,202.734,152.424z M56.266,146.424h143.469v-12.515    c0-8.474-6.894-15.367-15.367-15.367H71.633c-8.474,0-15.367,6.894-15.367,15.367V146.424z"/></g><g><path class="st8" d="M165.743,168.626H90.257c-10.588,0-19.203-8.614-19.203-19.202c0-1.657,1.343-3,3-3h107.892    c1.657,0,3,1.343,3,3C184.946,160.012,176.331,168.626,165.743,168.626z M77.398,152.424c1.362,5.839,6.611,10.202,12.859,10.202    h75.486c6.248,0,11.497-4.363,12.859-10.202H77.398z"/></g><g><path class="st8" d="M128,202.542c-6.479,0-11.75-5.272-11.75-11.75c0-6.479,5.271-11.75,11.75-11.75    c6.479,0,11.75,5.271,11.75,11.75C139.75,197.27,134.479,202.542,128,202.542z M128,185.042c-3.17,0-5.75,2.579-5.75,5.75    c0,3.171,2.58,5.75,5.75,5.75c3.17,0,5.75-2.579,5.75-5.75C133.75,187.621,131.17,185.042,128,185.042z"/></g><g><path class="st8" d="M128,185.042c-1.657,0-3-1.343-3-3v-16.416c0-1.657,1.343-3,3-3c1.657,0,3,1.343,3,3v16.416    C131,183.699,129.657,185.042,128,185.042z"/></g><g><path class="st8" d="M75.902,202.542c-6.479,0-11.75-5.272-11.75-11.75c0-6.479,5.271-11.75,11.75-11.75    c6.479,0,11.75,5.271,11.75,11.75C87.652,197.27,82.381,202.542,75.902,202.542z M75.902,185.042c-3.17,0-5.75,2.579-5.75,5.75    c0,3.171,2.58,5.75,5.75,5.75c3.17,0,5.75-2.579,5.75-5.75C81.652,187.621,79.072,185.042,75.902,185.042z"/></g><g><path class="st8" d="M79.132,185.661c-0.369,0-0.743-0.068-1.107-0.213c-1.54-0.612-2.292-2.356-1.68-3.895l6.769-17.034    c0.612-1.541,2.354-2.294,3.896-1.681c1.539,0.612,2.292,2.356,1.68,3.895l-6.769,17.034    C81.454,184.944,80.326,185.661,79.132,185.661z"/></g><g><path class="st8" d="M183.196,202.542c-6.479,0-11.75-5.272-11.75-11.75c0-6.479,5.271-11.75,11.75-11.75s11.75,5.271,11.75,11.75    C194.946,197.27,189.675,202.542,183.196,202.542z M183.196,185.042c-3.17,0-5.75,2.579-5.75,5.75c0,3.171,2.58,5.75,5.75,5.75    s5.75-2.579,5.75-5.75C188.946,187.621,186.366,185.042,183.196,185.042z"/></g><g><path class="st8" d="M179.72,185.043c-1.193,0-2.321-0.717-2.789-1.894l-6.523-16.416c-0.612-1.539,0.141-3.283,1.68-3.895    c1.54-0.612,3.284,0.14,3.896,1.681l6.523,16.416c0.612,1.539-0.141,3.283-1.68,3.895    C180.463,184.975,180.088,185.043,179.72,185.043z"/></g><g><path class="st8" d="M202.734,136.909H53.266c-1.657,0-3-1.343-3-3c0-1.657,1.343-3,3-3h149.469c1.657,0,3,1.343,3,3    C205.734,135.566,204.391,136.909,202.734,136.909z"/></g></g></svg>