<?xml version="1.0" ?><!DOCTYPE svg  PUBLIC '-//W3C//DTD SVG 1.1//EN'  'http://www.w3.org/Graphics/SVG/1.1/DTD/svg11.dtd'><svg id="Icon_Set" style="enable-background:new 0 0 256 256;" version="1.1" viewBox="0 0 256 256" xml:space="preserve" xmlns="http://www.w3.org/2000/svg" xmlns:xlink="http://www.w3.org/1999/xlink"><style type="text/css">
	.st0{fill:#484771;}
	.st1{fill:#F1C48B;}
	.st2{fill:#FD919F;}
	.st3{fill:#E0667D;}
	.st4{fill:#504774;}
	.st5{fill:#A0D1F2;}
	.st6{fill:#D4E7F8;}
	.st7{fill:#7BABF3;}
	.st8{fill:#4C4372;}
	.st9{fill:#D5E6F7;}
	.st10{fill:#FFFFFF;}
</style><g><g><circle class="st1" cx="128" cy="128" r="104.245"/></g><g><path class="st2" d="M193.903,99.903C193.903,63.506,164.397,34,128,34S62.097,63.506,62.097,99.903H193.903z"/></g><g><path class="st6" d="M161.614,99.903C161.614,63.506,146.565,34,128,34S94.386,63.506,94.386,99.903H161.614z"/></g><g><path class="st3" d="M193.903,99.903c0-36.395-29.502-65.899-65.896-65.903c18.561,0.008,33.607,29.51,33.607,65.903H193.903z"/></g><g><path class="st4" d="M193.903,102.903H62.097c-1.657,0-3-1.343-3-3C59.097,61.91,90.007,31,128,31s68.903,30.91,68.903,68.903    C196.903,101.561,195.56,102.903,193.903,102.903z M65.168,96.903h125.665C189.262,63.605,161.679,37,128,37    S66.738,63.605,65.168,96.903z"/></g><g><path class="st4" d="M161.614,102.903H94.386c-1.657,0-3-1.343-3-3C91.386,61.266,107.469,31,128,31    c20.531,0,36.614,30.266,36.614,68.903C164.614,101.561,163.271,102.903,161.614,102.903z M97.422,96.903h61.156    C157.786,64.134,144.105,37,128,37C111.895,37,98.215,64.134,97.422,96.903z"/></g><g><path class="st4" d="M102.146,146.513c-0.811,0-1.619-0.326-2.211-0.971l-40.049-43.609c-1.121-1.221-1.04-3.118,0.18-4.239    c1.221-1.119,3.119-1.04,4.239,0.181l40.049,43.609c1.121,1.221,1.04,3.118-0.18,4.239    C103.599,146.251,102.872,146.513,102.146,146.513z"/></g><g><path class="st4" d="M116.527,146.043c-1.089,0-2.14-0.596-2.671-1.631l-22.138-43.139c-0.756-1.475-0.175-3.282,1.299-4.039    c1.475-0.757,3.283-0.174,4.039,1.299l22.138,43.139c0.757,1.475,0.175,3.282-1.299,4.039    C117.456,145.936,116.988,146.043,116.527,146.043z"/></g><g><path class="st4" d="M139.473,146.043c-0.461,0-0.929-0.107-1.367-0.332c-1.474-0.757-2.056-2.564-1.299-4.039l22.139-43.139    c0.756-1.473,2.564-2.054,4.039-1.299c1.474,0.757,2.056,2.564,1.299,4.039l-22.139,43.139    C141.613,145.447,140.563,146.043,139.473,146.043z"/></g><g><path class="st4" d="M153.868,146.513c-0.725,0-1.452-0.261-2.028-0.79c-1.221-1.12-1.302-3.019-0.181-4.238l40.034-43.609    c1.12-1.22,3.018-1.303,4.239-0.182c1.221,1.12,1.302,3.019,0.181,4.238l-40.034,43.609    C155.488,146.186,154.679,146.513,153.868,146.513z"/></g><g><path class="st2" d="M162.299,219.709H93.716c-3.384,0-6.128-2.744-6.128-6.128v-49.025c0-3.384,2.744-6.128,6.128-6.128h68.583    c3.384,0,6.128,2.744,6.128,6.128v49.025C168.427,216.965,165.683,219.709,162.299,219.709z"/></g><g><path class="st6" d="M104.392,143.042h47.23c3.105,0,5.622,2.517,5.622,5.622v9.764H98.771v-9.764    C98.771,145.559,101.288,143.042,104.392,143.042z"/></g><g><path class="st5" d="M151.622,143.043h-12.349c3.105,0,5.622,2.517,5.622,5.621v9.764h12.349v-9.764    C157.244,145.559,154.727,143.043,151.622,143.043z"/></g><g><path class="st3" d="M162.299,158.428h-17.494c3.384,0,6.128,2.744,6.128,6.128v49.025c0,3.384-2.744,6.128-6.128,6.128h17.494    c3.384,0,6.128-2.744,6.128-6.128v-49.025C168.427,161.172,165.683,158.428,162.299,158.428z"/></g><g><path class="st4" d="M162.299,222.709H93.716c-5.033,0-9.128-4.095-9.128-9.128v-49.025c0-5.033,4.095-9.128,9.128-9.128h68.583    c5.033,0,9.128,4.095,9.128,9.128v49.025C171.427,218.614,167.332,222.709,162.299,222.709z M93.716,161.428    c-1.725,0-3.128,1.403-3.128,3.128v49.025c0,1.725,1.403,3.128,3.128,3.128h68.583c1.725,0,3.128-1.403,3.128-3.128v-49.025    c0-1.725-1.403-3.128-3.128-3.128H93.716z"/></g><g><path class="st4" d="M157.244,161.428H98.771c-1.657,0-3-1.343-3-3v-9.764c0-4.754,3.868-8.622,8.622-8.622h47.229    c4.754,0,8.622,3.868,8.622,8.622v9.764C160.244,160.085,158.9,161.428,157.244,161.428z M101.771,155.428h52.473v-6.764    c0-1.446-1.176-2.622-2.622-2.622h-47.229c-1.445,0-2.622,1.176-2.622,2.622V155.428z"/></g><g><path class="st4" d="M168.427,178.378H87.588c-1.657,0-3-1.343-3-3c0-1.657,1.343-3,3-3h80.839c1.657,0,3,1.343,3,3    C171.427,177.035,170.083,178.378,168.427,178.378z"/></g></g></svg>