<?xml version="1.0" ?><!DOCTYPE svg  PUBLIC '-//W3C//DTD SVG 1.1//EN'  'http://www.w3.org/Graphics/SVG/1.1/DTD/svg11.dtd'><svg id="Icon_Set" style="enable-background:new 0 0 256 256;" version="1.1" viewBox="0 0 256 256" xml:space="preserve" xmlns="http://www.w3.org/2000/svg" xmlns:xlink="http://www.w3.org/1999/xlink"><style type="text/css">
	.st0{fill:#484771;}
	.st1{fill:#F1C48B;}
	.st2{fill:#FD919F;}
	.st3{fill:#E0667D;}
	.st4{fill:#504774;}
	.st5{fill:#A0D1F2;}
	.st6{fill:#D4E7F8;}
	.st7{fill:#7BABF3;}
	.st8{fill:#4C4372;}
	.st9{fill:#D5E6F7;}
	.st10{fill:#FFFFFF;}
</style><g><g><circle class="st1" cx="128" cy="128" r="104.245"/></g><g><path class="st2" d="M162.178,101.634H93.822v-28.79c0-18.876,15.302-34.178,34.178-34.178l0,0    c18.876,0,34.178,15.302,34.178,34.178V101.634z"/></g><g><path class="st6" d="M136.39,194.975h-16.78c-5.105,0-9.244-4.139-9.244-9.244v-34.77h35.268v34.77    C145.634,190.837,141.495,194.975,136.39,194.975z"/></g><g><path class="st6" d="M166.108,150.961H89.892c-3.955,0-7.161-3.206-7.161-7.161v-35.005c0-3.955,3.206-7.161,7.161-7.161h76.216    c3.955,0,7.161,3.206,7.161,7.161V143.8C173.269,147.755,170.063,150.961,166.108,150.961z"/></g><g><path class="st5" d="M136.301,150.961v34.77c0,5.105-4.139,9.244-9.244,9.244h9.333c5.105,0,9.244-4.139,9.244-9.244v-34.77    H136.301z"/></g><g><path class="st5" d="M131.949,171.583h-7.899c-2.403,0-4.351-1.948-4.351-4.351v-16.271h16.601v16.271    C136.301,169.635,134.352,171.583,131.949,171.583z"/></g><g><path class="st5" d="M166.108,101.634h-13.072c3.955,0,7.161,3.206,7.161,7.161V143.8c0,3.955-3.206,7.161-7.161,7.161h13.072    c3.955,0,7.161-3.206,7.161-7.161v-35.005C173.269,104.84,170.063,101.634,166.108,101.634z"/></g><g><path class="st7" d="M153.661,132.834h-30.76c-3.61,0-6.536-2.926-6.536-6.536l0,0c0-3.61,2.926-6.536,6.536-6.536h30.76    c3.61,0,6.536,2.926,6.536,6.536l0,0C160.197,129.907,157.271,132.834,153.661,132.834z"/></g><g><circle class="st2" cx="101.428" cy="126.298" r="5.626"/></g><g><path class="st3" d="M128,38.667L128,38.667c-1.551,0-3.075,0.113-4.571,0.313c16.713,2.235,29.607,16.54,29.607,33.864v28.79    h9.142v-28.79C162.178,53.968,146.876,38.667,128,38.667z"/></g><g><path class="st7" d="M144.707,84.9h-33.415c-4.836,0-8.756-3.92-8.756-8.756v0c0-4.836,3.92-8.756,8.756-8.756h33.415    c4.836,0,8.757,3.92,8.757,8.756v0C153.464,80.979,149.544,84.9,144.707,84.9z"/></g><g><rect class="st7" height="11.844" width="16.318" x="173.269" y="118.852"/></g><g><rect class="st5" height="11.844" width="16.318" x="66.413" y="118.852"/></g><g><g><path class="st5" d="M217.617,141.564h-22.201c-3.219,0-5.829-2.61-5.829-5.829v-21.923c0-3.219,2.61-5.829,5.829-5.829h22.201     v10.138h-17.892v13.306h17.892V141.564z"/></g></g><g><g><path class="st6" d="M38.383,107.983h22.201c3.219,0,5.829,2.61,5.829,5.829v21.923c0,3.219-2.61,5.829-5.829,5.829H38.383     v-10.138h17.892v-13.306H38.383V107.983z"/></g></g><g><path class="st7" d="M183.534,203.333h-20.529c-4.651,0-8.422-3.771-8.422-8.422v-22.898c0-4.651,3.771-8.422,8.422-8.422h20.529    c4.651,0,8.422,3.771,8.422,8.422v22.898C191.956,199.563,188.185,203.333,183.534,203.333z"/></g><g><path class="st7" d="M92.995,203.333H72.466c-4.651,0-8.422-3.771-8.422-8.422v-22.898c0-4.651,3.771-8.422,8.422-8.422h20.529    c4.651,0,8.422,3.771,8.422,8.422v22.898C101.417,199.563,97.647,203.333,92.995,203.333z"/></g><g><path class="st8" d="M162.178,104.634H93.822c-1.657,0-3-1.343-3-3V72.845c0-20.5,16.678-37.178,37.178-37.178    s37.178,16.678,37.178,37.178v28.789C165.178,103.291,163.835,104.634,162.178,104.634z M96.822,98.634h62.355V72.845    c0-17.191-13.986-31.178-31.178-31.178c-17.191,0-31.178,13.986-31.178,31.178V98.634z"/></g><g><path class="st8" d="M144.707,87.899h-33.415c-6.482,0-11.756-5.273-11.756-11.756c0-6.482,5.274-11.757,11.756-11.757h33.415    c6.482,0,11.757,5.274,11.757,11.757C156.464,82.626,151.189,87.899,144.707,87.899z M111.292,70.387    c-3.174,0-5.756,2.582-5.756,5.757c0,3.174,2.583,5.756,5.756,5.756h33.415c3.175,0,5.757-2.582,5.757-5.756    c0-3.175-2.582-5.757-5.757-5.757H111.292z"/></g><g><path class="st8" d="M166.108,153.961H89.892c-5.603,0-10.161-4.559-10.161-10.161v-35.004c0-5.604,4.558-10.162,10.161-10.162    h76.216c5.602,0,10.161,4.559,10.161,10.162V143.8C176.269,149.402,171.711,153.961,166.108,153.961z M89.892,104.634    c-2.294,0-4.161,1.867-4.161,4.162V143.8c0,2.295,1.867,4.161,4.161,4.161h76.216c2.295,0,4.161-1.866,4.161-4.161v-35.004    c0-2.295-1.866-4.162-4.161-4.162H89.892z"/></g><g><path class="st8" d="M131.949,174.583h-7.898c-4.054,0-7.352-3.298-7.352-7.351v-16.271c0-1.657,1.343-3,3-3h16.602    c1.657,0,3,1.343,3,3v16.271C139.301,171.285,136.003,174.583,131.949,174.583z M122.699,153.961v13.271    c0,0.745,0.606,1.351,1.352,1.351h7.898c0.745,0,1.352-0.605,1.352-1.351v-13.271H122.699z"/></g><g><path class="st8" d="M189.587,133.695h-16.317c-1.657,0-3-1.343-3-3v-11.844c0-1.657,1.343-3,3-3h16.317c1.657,0,3,1.343,3,3    v11.844C192.587,132.352,191.244,133.695,189.587,133.695z M176.269,127.695h10.317v-5.844h-10.317V127.695z"/></g><g><g><path class="st8" d="M217.617,144.564h-22.201c-4.868,0-8.829-3.961-8.829-8.829v-21.923c0-4.869,3.961-8.83,8.829-8.83h22.201     c1.657,0,3,1.343,3,3v10.139c0,1.657-1.343,3-3,3h-14.893v7.306h14.893c1.657,0,3,1.343,3,3v10.138     C220.617,143.222,219.274,144.564,217.617,144.564z M195.416,110.982c-1.56,0-2.829,1.27-2.829,2.83v21.923     c0,1.56,1.27,2.829,2.829,2.829h19.201v-4.138h-14.893c-1.657,0-3-1.343-3-3v-13.306c0-1.657,1.343-3,3-3h14.893v-4.139H195.416z     "/></g></g><g><path class="st8" d="M82.731,133.695H66.413c-1.657,0-3-1.343-3-3v-11.844c0-1.657,1.343-3,3-3h16.318c1.657,0,3,1.343,3,3v11.844    C85.731,132.352,84.388,133.695,82.731,133.695z M69.413,127.695h10.318v-5.844H69.413V127.695z"/></g><g><g><path class="st8" d="M60.583,144.564H38.383c-1.657,0-3-1.343-3-3v-10.138c0-1.657,1.343-3,3-3h14.892v-7.306H38.383     c-1.657,0-3-1.343-3-3v-10.139c0-1.657,1.343-3,3-3h22.201c4.868,0,8.829,3.961,8.829,8.83v21.923     C69.413,140.604,65.452,144.564,60.583,144.564z M41.383,138.564h19.201c1.56,0,2.829-1.27,2.829-2.829v-21.923     c0-1.561-1.269-2.83-2.829-2.83H41.383v4.139h14.892c1.657,0,3,1.343,3,3v13.306c0,1.657-1.343,3-3,3H41.383V138.564z"/></g></g><g><path class="st8" d="M183.534,206.333h-20.529c-6.298,0-11.422-5.124-11.422-11.422v-22.897c0-6.299,5.124-11.423,11.422-11.423    h20.529c6.298,0,11.422,5.124,11.422,11.423v22.897C194.956,201.209,189.832,206.333,183.534,206.333z M163.005,166.591    c-2.989,0-5.422,2.433-5.422,5.423v22.897c0,2.989,2.433,5.422,5.422,5.422h20.529c2.989,0,5.422-2.433,5.422-5.422v-22.897    c0-2.99-2.433-5.423-5.422-5.423H163.005z"/></g><g><path class="st8" d="M92.995,206.333H72.466c-6.298,0-11.422-5.124-11.422-11.422v-22.897c0-6.299,5.124-11.423,11.422-11.423    h20.529c6.298,0,11.422,5.124,11.422,11.423v22.897C104.417,201.209,99.293,206.333,92.995,206.333z M72.466,166.591    c-2.99,0-5.422,2.433-5.422,5.423v22.897c0,2.989,2.433,5.422,5.422,5.422h20.529c2.99,0,5.422-2.433,5.422-5.422v-22.897    c0-2.99-2.433-5.423-5.422-5.423H72.466z"/></g><g><path class="st8" d="M110.397,190.245h-8.98c-1.657,0-3-1.343-3-3v-8.604c0-1.657,1.343-3,3-3h8.949c1.657,0,3,1.343,3,3v7.761    c0,0.181,0.01,0.357,0.02,0.535l0.008,0.161c0.04,0.82-0.258,1.621-0.824,2.216C112.003,189.908,111.218,190.245,110.397,190.245z     M104.417,184.245h2.949v-2.604h-2.949V184.245z"/></g><g><path class="st8" d="M154.583,190.245h-8.981c-0.821,0-1.606-0.337-2.173-0.931c-0.565-0.595-0.863-1.396-0.823-2.216l0.008-0.161    c0.009-0.178,0.02-0.355,0.02-0.535v-7.761c0-1.657,1.343-3,3-3h8.949c1.657,0,3,1.343,3,3v8.604    C157.583,188.902,156.24,190.245,154.583,190.245z M148.634,184.245h2.949v-2.604h-2.949V184.245z"/></g><g><path class="st8" d="M110.366,186.402v-7.76h-8.949v8.604h8.98C110.384,186.965,110.366,186.687,110.366,186.402z"/></g><g><path class="st8" d="M145.634,178.642v7.76c0,0.285-0.018,0.563-0.032,0.843h8.98v-8.604H145.634z"/></g><g><path class="st8" d="M136.39,197.976h-16.78c-6.751,0-12.244-5.493-12.244-12.244v-34.77c0-1.657,1.343-3,3-3h35.268    c1.657,0,3,1.343,3,3v34.77C148.634,192.482,143.141,197.976,136.39,197.976z M113.366,153.961v31.77    c0,3.443,2.801,6.244,6.244,6.244h16.78c3.443,0,6.244-2.801,6.244-6.244v-31.77H113.366z"/></g><g><path class="st8" d="M101.428,134.924c-4.756,0-8.625-3.869-8.625-8.626c0-4.757,3.869-8.626,8.625-8.626    c4.756,0,8.626,3.869,8.626,8.626C110.054,131.055,106.185,134.924,101.428,134.924z M101.428,123.672    c-1.448,0-2.625,1.178-2.625,2.626c0,1.448,1.178,2.626,2.625,2.626c1.448,0,2.626-1.178,2.626-2.626    C104.054,124.85,102.876,123.672,101.428,123.672z"/></g><g><path class="st8" d="M153.661,135.834h-30.76c-5.258,0-9.536-4.278-9.536-9.536c0-5.258,4.278-9.536,9.536-9.536h30.76    c5.258,0,9.536,4.278,9.536,9.536C163.197,131.556,158.919,135.834,153.661,135.834z M122.901,122.762    c-1.95,0-3.536,1.586-3.536,3.536c0,1.95,1.586,3.536,3.536,3.536h30.76c1.95,0,3.536-1.586,3.536-3.536    c0-1.95-1.586-3.536-3.536-3.536H122.901z"/></g><g><path class="st8" d="M182.894,176.509h-19.25c-1.657,0-3-1.343-3-3c0-1.657,1.343-3,3-3h19.25c1.657,0,3,1.343,3,3    C185.894,175.166,184.552,176.509,182.894,176.509z"/></g><g><path class="st8" d="M182.894,186.462h-19.25c-1.657,0-3-1.343-3-3s1.343-3,3-3h19.25c1.657,0,3,1.343,3,3    S184.552,186.462,182.894,186.462z"/></g><g><path class="st8" d="M182.894,196.415h-19.25c-1.657,0-3-1.343-3-3c0-1.657,1.343-3,3-3h19.25c1.657,0,3,1.343,3,3    C185.894,195.072,184.552,196.415,182.894,196.415z"/></g><g><path class="st8" d="M92.356,176.509H73.105c-1.657,0-3-1.343-3-3c0-1.657,1.343-3,3-3h19.251c1.657,0,3,1.343,3,3    C95.356,175.166,94.013,176.509,92.356,176.509z"/></g><g><path class="st8" d="M92.356,186.462H73.105c-1.657,0-3-1.343-3-3s1.343-3,3-3h19.251c1.657,0,3,1.343,3,3    S94.013,186.462,92.356,186.462z"/></g><g><path class="st8" d="M92.356,196.415H73.105c-1.657,0-3-1.343-3-3c0-1.657,1.343-3,3-3h19.251c1.657,0,3,1.343,3,3    C95.356,195.072,94.013,196.415,92.356,196.415z"/></g></g></svg>