<?xml version="1.0" ?><!DOCTYPE svg  PUBLIC '-//W3C//DTD SVG 1.1//EN'  'http://www.w3.org/Graphics/SVG/1.1/DTD/svg11.dtd'><svg id="Icon_Set" style="enable-background:new 0 0 256 256;" version="1.1" viewBox="0 0 256 256" xml:space="preserve" xmlns="http://www.w3.org/2000/svg" xmlns:xlink="http://www.w3.org/1999/xlink"><style type="text/css">
	.st0{fill:#484771;}
	.st1{fill:#F1C48B;}
	.st2{fill:#FD919F;}
	.st3{fill:#E0667D;}
	.st4{fill:#504774;}
	.st5{fill:#A0D1F2;}
	.st6{fill:#D4E7F8;}
	.st7{fill:#7BABF3;}
	.st8{fill:#4C4372;}
	.st9{fill:#D5E6F7;}
	.st10{fill:#FFFFFF;}
</style><g><g><circle class="st1" cx="128" cy="128" r="103.873"/></g><g><circle class="st6" cx="128" cy="128" r="70.368"/></g><g><path class="st5" d="M163.208,67.074c-3.395-1.962-6.889-3.593-10.442-4.934c26.156,21.462,33.712,59.298,16.229,89.551    c-17.483,30.253-54.037,42.598-85.693,30.652c2.936,2.409,6.093,4.621,9.488,6.583c33.649,19.445,76.689,7.931,96.134-25.717    C208.371,129.56,196.857,86.519,163.208,67.074z"/></g><g><circle class="st5" cx="101.76" cy="157.685" r="10.798"/></g><g><circle class="st5" cx="117.046" cy="86.021" r="11.14"/></g><g><circle class="st5" cx="167.59" cy="112.225" r="13.533"/></g><g><path class="st4" d="M127.935,201.379c-12.815,0-25.486-3.408-36.645-9.856c-16.968-9.806-29.102-25.632-34.166-44.563    c-5.064-18.932-2.453-38.702,7.353-55.67c13.071-22.619,37.438-36.67,63.589-36.67c12.816,0,25.486,3.408,36.645,9.856    c35.026,20.242,47.055,65.206,26.813,100.233C178.452,187.328,154.086,201.379,127.935,201.379z M128.065,60.621    c-24.016,0-46.391,12.902-58.394,33.672c-9.004,15.58-11.401,33.734-6.751,51.117c4.649,17.383,15.791,31.915,31.371,40.918    c10.246,5.921,21.88,9.051,33.643,9.051c24.016,0,46.391-12.902,58.393-33.672c18.587-32.162,7.542-73.449-24.62-92.036    C151.462,63.75,139.828,60.621,128.065,60.621z"/></g><g><path class="st4" d="M101.75,171.485c-2.412,0-4.796-0.641-6.894-1.853c-6.588-3.807-8.851-12.263-5.044-18.851    c2.459-4.254,7.04-6.896,11.957-6.896c2.412,0,4.796,0.641,6.895,1.853c3.191,1.844,5.474,4.821,6.426,8.381    c0.952,3.561,0.461,7.279-1.383,10.47C111.249,168.843,106.667,171.485,101.75,171.485z M101.77,149.885    c-2.781,0-5.372,1.494-6.762,3.898c-2.151,3.723-0.873,8.502,2.851,10.654c1.187,0.686,2.532,1.048,3.892,1.048    c2.781,0,5.372-1.494,6.762-3.898c1.043-1.804,1.32-3.905,0.782-5.917c-0.538-2.012-1.828-3.694-3.632-4.736    C104.476,150.247,103.13,149.885,101.77,149.885z"/></g><g><path class="st4" d="M117.035,100.163c-2.472,0-4.914-0.657-7.063-1.899c-3.271-1.89-5.609-4.941-6.585-8.589    c-0.977-3.649-0.473-7.459,1.417-10.729c2.519-4.358,7.214-7.066,12.253-7.066c2.472,0,4.914,0.657,7.064,1.899    c3.271,1.89,5.608,4.94,6.585,8.588c0.975,3.649,0.473,7.459-1.417,10.729C126.771,97.455,122.075,100.163,117.035,100.163z     M117.057,77.879c-2.903,0-5.607,1.559-7.058,4.069c-1.089,1.883-1.378,4.076-0.816,6.176c0.563,2.101,1.908,3.856,3.791,4.944    c1.238,0.716,2.643,1.094,4.062,1.094c2.904,0,5.608-1.56,7.059-4.069c1.088-1.882,1.378-4.076,0.815-6.176    c-0.562-2.101-1.907-3.856-3.79-4.944C119.881,78.257,118.476,77.879,117.057,77.879z"/></g><g><path class="st4" d="M167.577,128.761c-2.89,0-5.746-0.767-8.26-2.22c-7.894-4.562-10.604-14.694-6.043-22.587    c2.946-5.097,8.437-8.264,14.328-8.264c2.89,0,5.746,0.768,8.26,2.221c3.823,2.21,6.558,5.776,7.699,10.042    c1.141,4.267,0.553,8.722-1.657,12.545C178.959,125.595,173.469,128.761,167.577,128.761z M167.602,101.689    c-3.757,0-7.256,2.018-9.133,5.266c-2.906,5.029-1.179,11.484,3.85,14.39c1.603,0.926,3.421,1.415,5.258,1.415    c3.756,0,7.255-2.017,9.132-5.265c1.408-2.436,1.783-5.274,1.056-7.993c-0.727-2.718-2.469-4.99-4.904-6.398    C171.258,102.179,169.439,101.689,167.602,101.689z"/></g><g><path class="st2" d="M191.807,176.808L53.853,97.086c-4.941-2.855-6.632-9.176-3.777-14.117v0    c2.855-4.941,9.176-6.632,14.117-3.776l137.954,79.722c4.941,2.855,6.632,9.176,3.777,14.117l0,0    C203.069,177.973,196.748,179.663,191.807,176.808z"/></g><g><path class="st3" d="M202.148,158.914L165.35,137.65c4.941,2.855,6.632,9.176,3.777,14.117c-2.855,4.941-9.176,6.632-14.117,3.777    l36.798,21.265c4.941,2.855,11.262,1.165,14.117-3.777C208.78,168.09,207.089,161.77,202.148,158.914z"/></g><g><path class="st4" d="M196.968,181.196c-2.331,0-4.635-0.619-6.662-1.79L52.352,99.683c-6.365-3.679-8.552-11.85-4.873-18.216    c2.376-4.11,6.803-6.664,11.554-6.664c2.331,0,4.635,0.619,6.662,1.79l137.954,79.723c6.365,3.679,8.552,11.85,4.873,18.216    C206.145,178.643,201.719,181.196,196.968,181.196z M59.032,80.804c-2.615,0-5.052,1.405-6.358,3.665    c-2.023,3.502-0.821,7.996,2.68,10.019l137.954,79.723c1.116,0.645,2.382,0.986,3.66,0.986c2.615,0,5.052-1.405,6.358-3.665    c2.023-3.502,0.821-7.996-2.68-10.019L62.692,81.79C61.576,81.145,60.311,80.804,59.032,80.804z"/></g></g></svg>